/* XPM */
static char *collect2[] = {
/* columns rows colors chars-per-pixel */
"50 50 79 1 ",
"  c #1A252B",
". c #1D282F",
"X c #1E2A31",
"o c #212E36",
"O c #222F38",
"+ c #24333C",
"@ c #273740",
"# c #293A44",
"$ c #2C3E49",
"% c #2E414C",
"& c #30434F",
"* c #314551",
"= c #344956",
"- c #374D5A",
"; c #384F5C",
": c #39505E",
"> c #3C5563",
", c #3F5968",
"< c #425D6D",
"1 c #445F70",
"2 c #466273",
"3 c #486577",
"4 c #496778",
"5 c #4C6A7C",
"6 c #4E6E81",
"7 c #4F7083",
"8 c #517285",
"9 c #547589",
"0 c #577A8E",
"q c #597D92",
"w c #5B8096",
"e c #5E849B",
"r c #60879E",
"t c #648CA4",
"y c #668FA8",
"u c #6791A9",
"i c #6993AD",
"p c #6B97B1",
"a c #6E9AB5",
"s c #709EB8",
"d c #73A2BE",
"f c #76A5C2",
"g c #78A9C5",
"h c #7BADCA",
"j c #7EB1CE",
"k c #7FB2D1",
"l c #81B4D3",
"z c #86BAD6",
"x c #85BBD9",
"c c #8DC3DC",
"v c #8AC2E2",
"b c #8FC8E5",
"n c #8EC7E9",
"m c #8FC9EB",
"M c #91CCEC",
"N c #94D0F2",
"B c #99D7F3",
"V c #9DDBF3",
"C c #97D4F9",
"Z c #9CDBFC",
"A c #A2DFF4",
"S c #A7E4F4",
"D c #ACE4F6",
"F c #A2E3FB",
"G c #ACECFC",
"H c #AEF2FF",
"J c #B2F3FF",
"K c #BCF3FD",
"L c #BBFBFF",
"P c #C4F1FB",
"I c #CAF7FE",
"U c #C3FCFF",
"Y c #CCFCFF",
"T c #D7F9FE",
"R c #DBFDFF",
"E c #E4FDFF",
"W c #EBFFFF",
"Q c #FFFFFF",
"! c None",
/* pixels */
"!!!!!!!!!!!!!!!!!!!!!!!!!!!!!!!!!!!!!!!!!!!!!!!!!!",
"!!!!!!!!!!!!!!!!!!!!!!!!!!!!!!!!!!!!!!!!!!!!!!!!!!",
"!!!!!!!!!!!!!!!!!!!!!!!!!!!!!!!!!!!!!!!!!!!!!!!!!!",
"!!!!!!!!!!!!!!!!!!!!!!!!!!!!!!!!!!!!!!!!!!!!!!!!!!",
"!!!!!!!!!!!!!!!!!!!!!!!!!!!!!!!!!!!!!!!!!!!!!!!!!!",
"!!!!!!!!!!!!!!!!!!!!!!!!!!!!!!!!!!!!!!!!!!!!!!!!!!",
"!!!!!!!!!!!!!!!!!!!!!!!!!!!!!!!!!!!!!!!!!!!!!!!!!!",
"!!!!!!!!!!!!!!!!!!!!!!!!!!!!!!!!!!!!!!!!!!!!!!!!!!",
"!!!!!!!!!!!!!!!!!!!!!!!!!!!!!!!!!!!!!!!!!!!!!!!!!!",
"!!!!!!!!!!!!!!!!!!!!!!!!!!!!!!!!!!!!!!!!!!!!!!!!!!",
"!!!!!!!!!!!!!!!!! XX.!!!!!!!!!!!! Xo !!!!!!!!!!!!!",
"!!!!!!!!!!!!!!! Xo@@+OX  .   !!! +++X!!!!!!!!!!!!!",
"!!!!!!!!!!!!!!!X+#*-=*#+@++oX  X+@#@X!!!!!!!!!!!!!",
"!!!!!!!!!!!! !X+$-,<22<>:;*#+oX+@%%@X!!!!!!!!!!!!!",
"!!!!!!!!!!! .o+#;<50wwwq982;%@+@#%%+.!!!!!!!!!!!!!",
"!!!!!!!!!!X++++#>5qiadfgddt5>=&#$$$+X  !!!!!!!!!!!",
"!!!!!!!!!.+#%%##-5ygkxvmnmlr5<-%$%#oXXX.!!!!!!!!!!",
"!!!!!!!! o%=::*&;5izvnNCCZFxr5<&*%@+XX. !!!!!!!!!!",
"!!!!!!!! +*>21<:,3tkhkvmNCHBs5>**%#+X.!!!!!!!!!!!!",
"!!!!!!!!.@:3951<346ttydggknxi5<:%%#+o.!!!!!!!!!!!!",
"!!!!!!!!.#>509459q89q9qtytyr8901=*$@o.!!!!!!!!!!!!",
"!!!!!!!! +:50055eiyyrqtggpw90sa5--*#+.!!!!!!!!!!!!",
"!!!!!!!!!O*<8989azkfieyxNvseavzt<-=$+.!!!!!!!!!!!!",
"!!!!!!!!!o%:114wdvMkfaaxGKlabZvs5>:*#X!!!!!!!!!!!!",
"!!!!!!  .X+=:->5waddjVbSREzdAHCh5>>-$o!!!!!!!!!!!!",
"!!!!!!.oOoO+%%*:<55wzUTEQEclDUHj5--*@o !!!!!!!!!!!",
"!!!!!!XO+OO++*:<1559cRWWQEchBUUz8-%#+X. !!!!!!!!!!",
"!!!!!!.XO++++:49w095dDIUTPbxFYLc9:&%#+X !!!!!!!!!!",
"!!!!!!! .o++%-3rirw0wdldhxVJLLGg5-&%$@o.!!!!!!!!!!",
"!!!!!!!! o++%-<0ur0ww0089pcSABcr<**=*#+o !!!!!!!!!",
"!!!!!!!! o+#%-<3085598890wwpddp8-%*=*$+O !!!!!!!!!",
"!!!!!!!!!.++&-::<<:<<125585wyr02=#$%%#+X !!!!!!!!!",
"!!!!!!!!!!XO@%*&$#$*=--;;;<8942>$@@##@o.!!!!!!!!!!",
"!!!!!!!!!!! X++++@%**&**%%=>>:;*@++@+oX !!!!!!!!!!",
"!!!!!!!!!!!!!  .o@#$#@@@++#%&&%@+oO++X !!!!!!!!!!!",
"!!!!!!!!!!!!!!!.X+++oXXoXX+@+@@+XXXoo !!!!!!!!!!!!",
"!!!!!!!!!!!!!!!    ! .X.XXo++o+X     !!!!!!!!!!!!!",
"!!!!!!!!!!!!!!!!!!!! .XXXXo+++o !!!!!!!!!!!!!!!!!!",
"!!!!!!!!!!!!!!!!!!!!  Xooo+++@+. !!!!!!!!!!!!!!!!!",
"!!!!!!!!!!!!!!!!!!!! XXoo+++@#+X !!!!!!!!!!!!!!!!!",
"!!!!!!!!!!!!!!!!!!!!Xo++++@##@+X !!!!!!!!!!!!!!!!!",
"!!!!!!!!!!!!!!!!!!!!o+@+@@@++oX !!!!!!!!!!!!!!!!!!",
"!!!!!!!!!!!!!!!!!!!!Xo+++oooX!!!!!!!!!!!!!!!!!!!!!",
"!!!!!!!!!!!!!!!!!!!!!!!!!!!!!!!!!!!!!!!!!!!!!!!!!!",
"!!!!!!!!!!!!!!!!!!!!!!!!!!!!!!!!!!!!!!!!!!!!!!!!!!",
"!!!!!!!!!!!!!!!!!!!!!!!!!!!!!!!!!!!!!!!!!!!!!!!!!!",
"!!!!!!!!!!!!!!!!!!!!!!!!!!!!!!!!!!!!!!!!!!!!!!!!!!",
"!!!!!!!!!!!!!!!!!!!!!!!!!!!!!!!!!!!!!!!!!!!!!!!!!!",
"!!!!!!!!!!!!!!!!!!!!!!!!!!!!!!!!!!!!!!!!!!!!!!!!!!",
"!!!!!!!!!!!!!!!!!!!!!!!!!!!!!!!!!!!!!!!!!!!!!!!!!!"
};
