/* XPM */
static char * finalfloor4_xpm[] = {
"50 50 128 2",
"  	c #727423",
". 	c #7C7D4B",
"+ 	c #828175",
"@ 	c #807F72",
"# 	c #807F68",
"$ 	c #7E7C71",
"% 	c #707038",
"& 	c #6E7121",
"* 	c #747632",
"= 	c #7A7769",
"- 	c #7C7B6D",
"; 	c #747357",
"> 	c #74725C",
", 	c #7F8044",
"' 	c #88877C",
") 	c #6C6C31",
"! 	c #6E6C58",
"~ 	c #797A35",
"{ 	c #868579",
"] 	c #8C8A80",
"^ 	c #72751B",
"/ 	c #7D7C65",
"( 	c #777931",
"_ 	c #7D8025",
": 	c #726F60",
"< 	c #747745",
"[ 	c #717416",
"} 	c #706E44",
"| 	c #6D7219",
"1 	c #7E7D5C",
"2 	c #797665",
"3 	c #67653B",
"4 	c #797B3B",
"5 	c #828261",
"6 	c #7B7A54",
"7 	c #6B7117",
"8 	c #777845",
"9 	c #6E6D41",
"0 	c #1A252B",
"a 	c #1E2A31",
"b 	c #1D282F",
"c 	c #767363",
"d 	c #212E36",
"e 	c #6C6951",
"f 	c #6E6E2B",
"g 	c #6D6E25",
"h 	c #273740",
"i 	c #24333C",
"j 	c #222F38",
"k 	c #797A45",
"l 	c #73724B",
"m 	c #716F4F",
"n 	c #293A44",
"o 	c #314551",
"p 	c #374D5A",
"q 	c #344956",
"r 	c #76782E",
"s 	c #888770",
"t 	c #8A897E",
"u 	c #808152",
"v 	c #2C3E49",
"w 	c #3F5968",
"x 	c #425D6D",
"y 	c #466273",
"z 	c #3C5563",
"A 	c #39505E",
"B 	c #384F5C",
"C 	c #2E414C",
"D 	c #4C6A7C",
"E 	c #577A8E",
"F 	c #5B8096",
"G 	c #597D92",
"H 	c #547589",
"I 	c #517285",
"J 	c #68663B",
"K 	c #6993AD",
"L 	c #6E9AB5",
"M 	c #73A2BE",
"N 	c #76A5C2",
"O 	c #78A9C5",
"P 	c #648CA4",
"Q 	c #30434F",
"R 	c #668FA8",
"S 	c #7FB2D1",
"T 	c #85BBD9",
"U 	c #8AC2E2",
"V 	c #8FC9EB",
"W 	c #8EC7E9",
"X 	c #81B4D3",
"Y 	c #60879E",
"Z 	c #86BAD6",
"` 	c #94D0F2",
" .	c #97D4F9",
"..	c #9CDBFC",
"+.	c #A2E3FB",
"@.	c #445F70",
"#.	c #486577",
"$.	c #7BADCA",
"%.	c #AEF2FF",
"&.	c #99D7F3",
"*.	c #709EB8",
"=.	c #496778",
"-.	c #4E6E81",
";.	c #5E849B",
">.	c #6B97B1",
",.	c #91CCEC",
"'.	c #ACECFC",
").	c #BCF3FD",
"!.	c #8FC8E5",
"~.	c #7EB1CE",
"{.	c #9DDBF3",
"].	c #A7E4F4",
"^.	c #DBFDFF",
"/.	c #E4FDFF",
"(.	c #A2DFF4",
"_.	c #6A693E",
":.	c #C3FCFF",
"<.	c #D7F9FE",
"[.	c #FFFFFF",
"}.	c #8DC3DC",
"|.	c #ACE4F6",
"1.	c #EBFFFF",
"2.	c #CAF7FE",
"3.	c #C4F1FB",
"4.	c #CCFCFF",
"5.	c #BBFBFF",
"6.	c #B2F3FF",
"7.	c #6791A9",
"  . + @ @ @ @ # $ $ + % & * = - - - - - - - $ ; &   > , ' + $ $ + $ + , , ) , $ $ $ $ $ $ $ - $ ! ) ",
"~ { $ @ @ @ + $ ' ] + - ^ / $ - - $ - - - - - $ ( ( { + + + $ + $ + $ + , _ , $ $ $ - $ $ $ - - , % ",
"~ { $ @ , + $ + $ , ] , ^ - $ $ - - - - $ - $ $ ( ( , + $ + + $ + $ $ + , & , $ - $ - - : $ $ $ + < ",
"~ + @ @ ' $ + $ $ $ $ / [ , $ $ - - - - - - $ $ ( & : $ + $ $ + $ + $ + $ % , + - - - - - - - $ + < ",
"} ' $ + + $ + $ $ + + / | 1 $ - - - - - - - $ $ * & ! + $ $ + + $ + $ + , & , $ - - $ - - - : $ , % ",
"% + + $ + $ $ $ + $ + - | 2 $ $ - - - - - - $ $ * < , + $ + , $ + $ + + , 3 $ $ $ - $ $ : $ $ - + , ",
"4 { $ + ' ] $ { $ + , 5 ^ 1 $ $ $ - - - - - - $ * _ ' $ + $ ' ' + $ $ + + , $ $ : $ $ $ $ $ - - + < ",
"6 , + $ $ , $ $ + + ] 5 ^ 1 $ $ - - - - - $ - $ ~ % + + $ + $ $ $ + $ + , 7 , $ $ $ $ : $ $ - - , , ",
"8 , ' ' $ $ + + + + + - | , + $ - - $ $ $ $ $ ' ( ( + + $ $ + $ $ + $ , , , , $ , , $ $ $ $ $ $ $ < ",
"4 { + $ $ $ , ] + $ , = | 1 $ $ $ $ $ $ $ $ $ , ( ( ' ] + + + $ + $ $ , _ _ , , ! $ $ , $ $ $ , + < ",
"& : ' ' { { { { { { ] ! | 9 ' , $ 0 a a b $ + c & & 2 , + + ' ' + 0 a d 0 _ 3 _ , $ $ $ $ + $ + , _ ",
"| 3 3 e 9 3 9 9 9 9 3 f & g e 0 a d h h i j a 0 0 b 0 0 0 3 3 e 0 i i i a & 7 7 3 e e 3 3 e 3 e 3 7 ",
"| ( , . , . k , l . , ^ ^ ^ m a i n o p q o n i h i i d a 0 0 a i h n h a g ) , , , , , , , , , _ 7 ",
"r s ' ' ' ' ' ' ' ' t u 0 . a i v p w x y y x z A B o n i d a i h C C h a _ , ' $ + ' ' { ' ' ' , , ",
"~ t ' { { { ' { { ' ' 0 b d i n B x D E F F F G H I y B C h i h n C C i b J ' ] + ' ' ' { ' { ' ' , ",
"~ ] ' { { ' ' { ' { a i i i i n z D G K L M N O M M P D z q Q n v v v i a 0 0 ' ' ' + ' { { { { ' , ",
"_ ] + ' ' ' ' ' ' b i n C C n n p D R O S T U V W V X Y D x p C v C n d a a a b ' ' ' ' { { { ' + , ",
", ' ' { + ' + + 0 d C q A A o Q B D K Z U W `  . ...+.T Y D x Q o C h i a a b 0 ' ' ' + { ' { { ' , ",
", + { ' ' { ' ' 0 i o z y @.x A w #.P S $.S U V `  .%.&.*.D z o o C n i a b , ] { { + ' + ' + ' ' , ",
", ' { { { { ' ' b h A #.H D @.x #.=.-.P P R M O O S W T K D x A C C n i d b , ] { { { { ' ' ' + $ , ",
"_ ' + ' ' ' ' + b n z D E H =.D H G I H G H G P R P R Y I H E @.q o v h d b $ ' ' { + ' ' ' ' ' ' , ",
", + { { ' ' + ' 0 i A D E E D D ;.K R R Y G P O O >.F H E *.L D p p o n i b , ' ] , , + ' + ' ' ' , ",
"< ' ] ] ] ] ' ' ] j o x I H I H L Z S N K ;.R T ` U *.;.L U Z P x p q v i b , ' ] , _ $ ' ] ] ] $ _ ",
"& ! $ , $ $ , - $ d C A @.@.=.F M U ,.S N L L T '.).X L !...U *.D z A o n a 3 , , , , , , $ $ $ ! 7 ",
"7 & 3 % ) 9 0 0 b a i q A p z D F L M M ~.{.!.].^./.Z M (.%. .$.D z z p v d 3 ) 3 , e , , 3 , _._ 7 ",
"& , $ $ , + b d j d j i C C o A x D D F Z :.<./.[./.}.X |.:.%.~.D p p o h d 0 $ , $ , , , $ , $ , _ ",
"_ ] + + + + a j i j j i i o A x @.D D H }.^.1.1.[./.}.$.&.:.:.Z I p C n i a b 0 $ $ $ $ $ $ + $ , , ",
", , $ + $ ' b a j i i i i A =.H F E H D M |.2.:.<.3.!.T +.4.5.}.H A Q C n i a 0 $ $ + $ $ $ $ + + ! ",
", + $ + $ $ + 0 b d i i C p #.Y K Y F E F M X M $.T {.6.5.5.'.O D p Q C v h d b $ $ $ + + $ $ $ , ) ",
", + + + $ + + + 0 d i i C p x E 7.Y E F F E E I H >.}.].(.&.}.Y x o o q o n i d 0 + + $ + $ $ + ' , ",
") , + $ $ $ + $ 0 d i n C p x #.E I D D H I I H E F F >.M M >.I p C o q o v i j 0 + $ + $ + $ $ ' , ",
", ] $ $ + $ $ + $ b i i Q p A A x x A x x @.y D D I D F R Y E y q n v C C n i a 0 $ + $ + $ + $ , , ",
"< ] + + $ + + $ + $ a j h C o Q v n v o q p p B B B x I H =.y z v h h n n h d b $ $ + $ $ ' $ $ , , ",
"% , + + + $ $ + $ + + 0 a i i i i h C o o Q o o C C q z z A B o h i i h i d a 0 $ $ $ $ $ $ $ ' ! 7 ",
"< + + + $ $ $ ' $ , , , 3 0 0 b d h n v n h h h i i n C Q Q C h i d j i i a 0 ' + $ $ $ $ $ ' ! 7 7 ",
") : ' + ' , , , , , ) ) _ ! $ b a i i i d a a d a a i h i h h i a a a d d 0 ! , ' ' ' ' ' $ , 3 7 _ ",
"& ) e 3 3 ) & _ J _ _ | ) 7 3 0 0 0 0 3 0 b a b a a d i i d i a 0 0 0 0 0 _ 3 3 3 3 e e e 3 g _ 7 ) ",
"| _ , ! , , ) _ _ 7 7 7 _ 7 7 _ , ! , e 0 b a a a a d i i i d 0 , , 3 , 7 7 _ , , , , , , 7 3 , _ _ ",
"_ ' + + , ' c e 7 7 7 7 7 g 7 , : $ $ $ 0 0 a d d d i i i h i b 0 $ $ , _ 7 , $ $ $ $ ' , , , + , e ",
"< , $ + $ $ $ , , , , _ & _ 9 , $ $ $ $ 0 a a d d i i i h n i a 0 $ $ + , ) , $ , $ $ $ : + $ $ $ , ",
", ' $ + $ + , + ] + + , _., $ $ : $ $ $ a d i i i i h n n h i a 0 + $ + , _ , _ $ $ , e , $ $ $ $ , ",
", + + $ $ + ' $ $ + + $ _ , $ $ $ $ $ $ d i h i h h h i i d a 0 + $ $ + , 7 _ 3 : ! 3 , , $ $ $ $ , ",
"J , $ + + $ $ + + + + $ _ _ : , $ $ $ $ a d i i i d d d a + + + $ + $ + $ _ _ 7 3 3 _ , $ $ $ $ $ , ",
", ' $ + $ + + $ $ $ $ , _ e $ $ $ : $ $ $ $ $ $ _ ) ' $ $ $ ' , + $ $ $ , ) 7 , _ , , $ + $ ' $ , , ",
", ] + + $ + $ + $ $ ' + 7 , $ $ $ $ $ $ $ $ $ $ ) ) , ' $ + $ + $ $ + + , 3 , , + $ + $ $ ' $ $ $ , ",
"_., $ $ $ $ + $ + $ ' , 7 , $ $ , $ $ $ $ $ $ ' , _ ' $ + $ + $ + $ $ + , _ , + $ + $ $ $ $ + $ $ , ",
", + $ + $ + $ $ $ + $ , _., $ $ $ $ $ $ $ $ , ' _ , + $ $ $ $ $ $ + $ { , ) , + + $ $ $ $ $ $ $ ' , ",
"3 $ ' ' + ' ' ' + ' + : _ : + + + $ $ $ $ $ ! 3 g 9 $ ' + ' ' + + $ , _ , , , + ' ' + ' ' ' ' ' , 3 ",
"_ e ! : , , : c , c : ) _ 7 ! : : : ! : : , 3 _ 7 | e : : : , - , e g 7 _ 7 3 , ! : : ! , : , : e 7 ",
"_ 7 ) 7 3 3 ) 3 g g 3 _ 7 7 g ) g ) g g g g 7 7 7 _ _ g g g g g 3 _ _ 7 7 _ _ 3 7 7 3 _ 3 3 3 _ 7 _ "};
