/* XPM */
static char * Enemyright_xpm[] = {
"50 50 148 2",
"  	c #727423",
". 	c #7C7D4B",
"+ 	c #828175",
"@ 	c #807F72",
"# 	c #807F68",
"$ 	c #7E7C71",
"% 	c #707038",
"& 	c #6E7121",
"* 	c #747632",
"= 	c #7A7769",
"- 	c #7C7B6D",
"; 	c #747357",
"> 	c #74725C",
", 	c #7F8044",
"' 	c #88877C",
") 	c #6C6C31",
"! 	c #6E6C58",
"~ 	c #797A35",
"{ 	c #868579",
"] 	c #8C8A80",
"^ 	c #72751B",
"/ 	c #7D7C65",
"( 	c #777931",
"_ 	c #7D8025",
": 	c #726F60",
"< 	c #747745",
"[ 	c #717416",
"} 	c #706E44",
"| 	c #6D7219",
"1 	c #7E7D5C",
"2 	c #4D2323",
"3 	c #797665",
"4 	c #713636",
"5 	c #8C4949",
"6 	c #8B4242",
"7 	c #7B3C3C",
"8 	c #67653B",
"9 	c #797B3B",
"0 	c #828261",
"a 	c #B7827F",
"b 	c #B27C7D",
"c 	c #954C4D",
"d 	c #9C4A4A",
"e 	c #C79691",
"f 	c #9E6467",
"g 	c #A45252",
"h 	c #7B3F40",
"i 	c #7B7A54",
"j 	c #CA9B92",
"k 	c #8F716B",
"l 	c #975252",
"m 	c #522626",
"n 	c #6B7117",
"o 	c #552929",
"p 	c #A34D4D",
"q 	c #C7A398",
"r 	c #775350",
"s 	c #944E50",
"t 	c #777845",
"u 	c #A8635D",
"v 	c #8F5146",
"w 	c #9D595A",
"x 	c #A55C5A",
"y 	c #9B5955",
"z 	c #94554A",
"A 	c #7E4242",
"B 	c #844444",
"C 	c #B66262",
"D 	c #BC6B6B",
"E 	c #A66061",
"F 	c #743A3A",
"G 	c #6E6D41",
"H 	c #767363",
"I 	c #863F3F",
"J 	c #B45C5C",
"K 	c #6D6E25",
"L 	c #5C2C2C",
"M 	c #6C6951",
"N 	c #6E6E2B",
"O 	c #994747",
"P 	c #6C3434",
"Q 	c #797A45",
"R 	c #73724B",
"S 	c #151619",
"T 	c #76782E",
"U 	c #888770",
"V 	c #8A897E",
"W 	c #808152",
"X 	c #26292E",
"Y 	c #2D2F34",
"Z 	c #282A2F",
"` 	c #35383F",
" .	c #42464D",
"..	c #3E4249",
"+.	c #393D43",
"@.	c #1B1D21",
"#.	c #232529",
"$.	c #2F3238",
"%.	c #32353B",
"&.	c #373A41",
"*.	c #464A52",
"=.	c #17191C",
"-.	c #B95E5E",
";.	c #68663B",
">.	c #545A64",
",.	c #494D56",
"'.	c #2E3036",
").	c #212226",
"!.	c #3A1B1B",
"~.	c #733738",
"{.	c #1A1B1E",
"].	c #5B616C",
"^.	c #663030",
"/.	c #B05454",
"(.	c #431F1F",
"_.	c #361A1A",
":.	c #111214",
"<.	c #4A4F58",
"[.	c #50555F",
"}.	c #1E2124",
"|.	c #BA6464",
"1.	c #4D525B",
"2.	c #171C20",
"3.	c #2E1A1B",
"4.	c #AE5B5B",
"5.	c #332326",
"6.	c #AC5252",
"7.	c #924545",
"8.	c #3C4047",
"9.	c #382629",
"0.	c #632F2F",
"a.	c #31282C",
"b.	c #0E1315",
"c.	c #575D68",
"d.	c #311E20",
"e.	c #2B2225",
"f.	c #6A693E",
"g.	c #5C3132",
"h.	c #0F0F11",
"i.	c #44484F",
"j.	c #452A2C",
"k.	c #585E69",
"l.	c #38282B",
"m.	c #2A2428",
"n.	c #883F3F",
"o.	c #221D20",
"p.	c #452121",
"q.	c #2E1718",
"  . + @ @ @ @ # $ $ + % & * = - - - - - - - $ ; &   > , ' + $ $ + $ + , , ) , $ $ $ $ $ $ $ - $ ! ) ",
"~ { $ @ @ @ + $ ' ] + - ^ / $ - - $ - - - - - $ ( ( { + + + $ + $ + $ + , _ , $ $ $ - $ $ $ - - , % ",
"~ { $ @ , + $ + $ , ] , ^ - $ $ - - - - $ - $ $ ( ( , + $ + + $ + $ $ + , & , $ - $ - - : $ $ $ + < ",
"~ + @ @ ' $ + $ $ $ $ / [ , $ $ - - - - - - $ $ ( & : $ + $ $ + $ + $ + $ % , + - - - - - - - $ + < ",
"} ' $ + + $ + $ $ + + / | 1 $ - - - - - - - $ $ * & ! + $ $ + 2 2 + $ + , & , $ - 2 2 - - - : $ , % ",
"% + + $ + $ $ $ + $ + - | 3 $ $ - - - - - - $ $ * < , + $ + 4 5 6 7 + + , 8 $ $ 7 5 6 4 : $ $ - + , ",
"9 { $ + ' ] $ { $ + , 0 ^ 1 $ $ $ - - - - - - $ * _ ' $ + 4 a b c d 2 + + , $ 7 e f g h 2 $ - - + < ",
"i , + $ $ , $ $ + + ] 0 ^ 1 $ $ - - - - - $ - $ ~ % + + 2 c j k h l m + , n o p q r s 5 2 $ - - , , ",
"t , ' ' $ $ + + + + + - | , + $ - - $ $ $ $ $ ' ( ( + + m l u v u w 2 , , , o x y z y A $ $ $ $ $ < ",
"9 { + $ $ $ , ] + $ , = | 1 $ $ $ $ $ $ $ $ $ , ( ( ' ] 2 B C D C s 2 , _ _ o z x E F , $ $ $ , + < ",
"& : ' ' { { { { { { ] ! | G ' , $ $ $ + + $ + H & & 3 , + 2 I J 6 2 $ $ K _ 8 m L o $ $ $ + $ + , _ ",
"| 8 8 M G 8 G G G G 8 N & K M 8 8 8 8 8 8 M 8 ) ^ ^ N G M 2 B J 6 2 M M n & n o O P M 8 8 M 8 M 8 n ",
"| ( , . , . Q , R . , ^ ^ ^ S S S S S S S S S S S   % ; < 3 m B c m , , n K ) m d 4 , , , , , , _ n ",
"T U ' ' ' ' ' ' ' ' V W ^ S X Y Y Z `  ... .+.@.#.S S + $ , 2 B J 6 2 $ , _ , m g F ' ' { ' ' ' , , ",
"~ V ' { { { ' { { ' ' 0 S +. . .` Y $.%.%.&.*.+.@.#.#.=.+ $ 2 7 -.c m + , ;.' m y F ' ' { ' { ' ' , ",
"~ ] ' { { ' ' { ' { ' =.+.>.>.,. .%.Y Y Y '.+.*.+.).X #.=.+ 2 7 -.c 2 !., _ , m d ~.+ ' { { { { ' , ",
"_ ] + ' ' ' ' ' ' ' {.+.>.].].>.,. .` Y Y Y Y +.*.+.).#.#.{.+ ^.6 /.B (._._._.2 d 4 ' ' { { { ' + , ",
", ' ' { + ' + + + :.@.'.` %.%.>.>.<. .` Y Y Y Y +.*.+.#.#.@.$ + ~.-.C 5 7 I I ~.^.L ' + { ' { { ' , ",
", + { ' ' { ' ' =.).#.#.#.#.#.%.>.[.*.+.Y Y Y Y Y *.*.).#.}.=.!.F /.|.|.-.J /.p P 2 2 !._.' + ' ' , ",
", ' { { { { ' =.#.+.&.+.&.Y '.#.` ,.1.+.Y Y Y %.Y +.*.` X X 2.3.7 /.4.g g J /./.p P P 7 L !.' + $ , ",
"_ ' + ' ' ' ' }. .1.[.1.*.&.Y Y @. .>...%.Y Y Y Y Y *.,.X }.}.5.7 J 6.6 4 6./././.7.I 6 F ' ' ' ' , ",
", + { { ' ' S '.1.,.,.<.1.,.&.'.).+.1.<.+.Y Y '.Y '.8.*.X #.X 9.h 4.7.5 0.6./././.d L _.' + ' ' ' , ",
"< ' ] ] ] :.#.*. .#.#.Y <.*.*.` Y ).+.>...Y Y Y Y '.Y ..X #.X a.h l 2 0.6././.6././.P $ ' ] ] ] $ _ ",
"& ! $ , $ b.%...'.c.>...). .*.%.Y ).+.>.+.Y '.Y Y Y Y *.X }.X d.4 |.C J /./././././.P , , $ $ $ ! n ",
"n & 8 % ) :.Y ` Y >...Y }. .*.%.'.}.+.>.+.Y Y Y '.Y Y ..X #.X e.~.|.C C /.6././.6.C P , , 8 , f._ n ",
"& , $ $ , :.Y ` Y  .'.Y }. .*.%.'.}.8.>.8.Y '.'.'.Y '. .X #.2.g.J C C C C /./././.C 7 , , $ , $ , _ ",
"_ ] + + + b.Y ` X  .Y )...*.*.%.'.}.%.<...Y Y Y Y '...>.Y ).2.g.-.C C C C /./././.C A $ $ $ + $ , , ",
", , $ + $ h.Y i.&.}.)...>.*.&.'.'.).$.,.8.Y '.Y Y '.*.c.Y S j.7.J |.C C C J /././.J 4.7 $ $ $ + + ! ",
", + $ + $ :.Y 1.<.&...>.1.*.%.Y '.).%.<...Y '.Y '.'...c.'.b.o d J C C C C C J 6././.C B 2 $ $ $ , ) ",
", + + + $ :.). .>.>.>.1.*.&.'.Y '.}.%...$.Y Y '.'.8.*.c.X j.F O J C C C C C |.J /./.J B 2 $ $ + ' , ",
") , + $ $ :.{.Z ..[.1.*.&.'.Y '.X Y ..8.Y Y Y Y '.*.*.].X L O 6.C C C C C C C /.6./.J g F + $ $ ' , ",
", ] $ $ + :.}.Y Y +.+.+.Y Y '.'.@.%. .&.Y '.Y Y '.*.1.8.j.4 d J C C C J J C |./././.J |.5 2 + $ , , ",
"< ] + + $ :.Y  .X #.Y Y Y '.'.Z Y ..+.Y Y Y Y '.+.*.k.@.^.O g J |.C /././.J |.4./.6.J |.5 2 $ $ , , ",
"% , + + + $ #. . .Z Z Z Z #.X Z .. .%.Y Y Y Y '.*.<.*.l.P p J |.C J 6./././.C |././.J C B (.$ ' ! n ",
"< + + + $ $ $ #.i. .#.#.#.#.#. .*.%.Y '.Y Y '.` *.c.@.4 7.6.J C J /././././.C |.J /./.J A _.' ! n n ",
") : ' + ' , , @.$.i.*.*.*.*.*.i.%.Y Y Y Y '.&.*.,.1.m.4 p J C J 6./././.6.6.C |.6.6.6.J A !., 8 n _ ",
"& ) M 8 8 ) & _ {.%.i.i.i.i.i.%.Y Y Y Y Y ` *.1.>.@.F n.6.J J /./././././.|.C 4.7.n.I g A _.K _ n ) ",
"| _ , ! , , ) _ _ {.'.Y $.$.'.'.'.Y '.Y &.*.,.c.[.o.7 p J /./././././.C C C 6 6 n.I I 6 0.!.8 , _ _ ",
"_ ' + + , ' H M n ). .Y Y '.Y '.'.Y Y &.*.<.c.[.o.F n.6./././.6././.C 4.6 6 I I I n.n.n.0.!., + , M ",
"< , $ + $ $ $ , L 7 ). .'.Y Y Y Y +. . .1.c.1.m.F n.p /./././.p n.7.6 7.I I I I n.I 6 0.(.+ $ $ $ , ",
", ' $ + $ + , 0.p /.7 #... . . . .1.c.c.i.).a.4 6 p /./.O 7.7.6 I 6 n.n.n.n.n.6 n.6 0.p., $ $ $ $ , ",
", + + $ $ + !.2 0.0.L 3.#.#.#.#.#.Z Z Y m.q._.o o L 0.0.o m m m m m m m m m m m m m 2 , , $ $ $ $ , ",
";., $ + + $ $ + + + + $ _ _ : , $ $ $ $ $ : $ $ _ , ' $ $ + + + $ + $ + $ _ _ n 8 8 _ , $ $ $ $ $ , ",
", ' $ + $ + + $ $ $ $ , _ M $ $ $ : $ $ $ $ $ $ _ ) ' $ $ $ ' , + $ $ $ , ) n , _ , , $ + $ ' $ , , ",
", ] + + $ + $ + $ $ ' + n , $ $ $ $ $ $ $ $ $ $ ) ) , ' $ + $ + $ $ + + , 8 , , + $ + $ $ ' $ $ $ , ",
"f., $ $ $ $ + $ + $ ' , n , $ $ , $ $ $ $ $ $ ' , _ ' $ + $ + $ + $ $ + , _ , + $ + $ $ $ $ + $ $ , ",
", + $ + $ + $ $ $ + $ , f., $ $ $ $ $ $ $ $ , ' _ , + $ $ $ $ $ $ + $ { , ) , + + $ $ $ $ $ $ $ ' , ",
"8 $ ' ' + ' ' ' + ' + : _ : + + + $ $ $ $ $ ! 8 K G $ ' + ' ' + + $ , _ , , , + ' ' + ' ' ' ' ' , 8 ",
"_ M ! : , , : H , H : ) _ n ! : : : ! : : , 8 _ n | M : : : , - , M K n _ n 8 , ! : : ! , : , : M n ",
"_ n ) n 8 8 ) 8 K K 8 _ n n K ) K ) m m m m m n n _ _ K m m m m m _ _ n n _ _ 8 n n 8 _ 8 8 8 _ n _ "};
