/* XPM */
static char * Enemydos_xpm[] = {
"50 50 169 2",
"  	c #727423",
". 	c #7C7D4B",
"+ 	c #828175",
"@ 	c #807F72",
"# 	c #807F68",
"$ 	c #7E7C71",
"% 	c #707038",
"& 	c #6E7121",
"* 	c #747632",
"= 	c #7A7769",
"- 	c #7C7B6D",
"; 	c #747357",
"> 	c #74725C",
", 	c #7F8044",
"' 	c #88877C",
") 	c #6C6C31",
"! 	c #6E6C58",
"~ 	c #797A35",
"{ 	c #868579",
"] 	c #8C8A80",
"^ 	c #72751B",
"/ 	c #7D7C65",
"( 	c #777931",
"_ 	c #7D8025",
": 	c #726F60",
"< 	c #747745",
"[ 	c #717416",
"} 	c #4D2323",
"| 	c #706E44",
"1 	c #6D7219",
"2 	c #7E7D5C",
"3 	c #653232",
"4 	c #884747",
"5 	c #8B4D4D",
"6 	c #663434",
"7 	c #797665",
"8 	c #6A3333",
"9 	c #B85F5F",
"0 	c #BA6565",
"a 	c #BD6B6B",
"b 	c #C07171",
"c 	c #6C3838",
"d 	c #6B3636",
"e 	c #BD6D6D",
"f 	c #67653B",
"g 	c #797B3B",
"h 	c #828261",
"i 	c #AD5353",
"j 	c #B45D5D",
"k 	c #B66262",
"l 	c #BA6969",
"m 	c #B45E5E",
"n 	c #BC6F6F",
"o 	c #7B7A54",
"p 	c #B15454",
"q 	c #6B7117",
"r 	c #777845",
"s 	c #A54D4D",
"t 	c #A95858",
"u 	c #632E2E",
"v 	c #602D2D",
"w 	c #6E6D41",
"x 	c #AB5252",
"y 	c #5C2C2C",
"z 	c #767363",
"A 	c #6D6E25",
"B 	c #6C6951",
"C 	c #6E6E2B",
"D 	c #2F1F20",
"E 	c #1F1819",
"F 	c #151517",
"G 	c #131416",
"H 	c #797A45",
"I 	c #73724B",
"J 	c #716F4F",
"K 	c #20181A",
"L 	c #1F2125",
"M 	c #1F2226",
"N 	c #1B1D20",
"O 	c #151A1D",
"P 	c #191A1D",
"Q 	c #1A1C1F",
"R 	c #212327",
"S 	c #76782E",
"T 	c #888770",
"U 	c #8A897E",
"V 	c #808152",
"W 	c #121315",
"X 	c #25272B",
"Y 	c #2A2D32",
"Z 	c #272A2F",
"` 	c #23262B",
" .	c #1D1F23",
"..	c #303339",
"+.	c #2D2F35",
"@.	c #1D2023",
"#.	c #68663B",
"$.	c #34373D",
"%.	c #494D55",
"&.	c #44474F",
"*.	c #282A30",
"=.	c #2D3136",
"-.	c #43474F",
";.	c #151618",
">.	c #464A52",
",.	c #2B2D33",
"'.	c #444850",
").	c #32353B",
"!.	c #282A2F",
"~.	c #2E3037",
"{.	c #3B3E45",
"].	c #25282C",
"^.	c #2F3137",
"/.	c #3B3E46",
"(.	c #25272C",
"_.	c #3C4047",
":.	c #3F4249",
"<.	c #222428",
"[.	c #41454C",
"}.	c #383B42",
"|.	c #484C54",
"1.	c #35383F",
"2.	c #373A41",
"3.	c #6F702C",
"4.	c #6A693E",
"5.	c #2B2E33",
"6.	c #27292E",
"7.	c #4F545E",
"8.	c #474B54",
"9.	c #202428",
"0.	c #50555E",
"a.	c #525862",
"b.	c #565B66",
"c.	c #515660",
"d.	c #565C66",
"e.	c #17181B",
"f.	c #595F6A",
"g.	c #101112",
"h.	c #5D636E",
"i.	c #575C67",
"j.	c #4E535C",
"k.	c #2B1D1E",
"l.	c #432627",
"m.	c #4B5059",
"n.	c #261B1D",
"o.	c #713738",
"p.	c #211B1D",
"q.	c #6F3636",
"r.	c #A14D4D",
"s.	c #773A3A",
"t.	c #8B4141",
"u.	c #9F4B4B",
"v.	c #B35B5B",
"w.	c #A04B4B",
"x.	c #883F3F",
"y.	c #9C5556",
"z.	c #AD5454",
"A.	c #914444",
"B.	c #873F3F",
"C.	c #412121",
"D.	c #AC5C5C",
"E.	c #9D4D4D",
"F.	c #843E3E",
"G.	c #5B2E2E",
"H.	c #613232",
"I.	c #A55656",
"J.	c #A25454",
"K.	c #934B4B",
"L.	c #703A3A",
"  . + @ @ @ @ # $ $ + % & * = - - - - - - - $ ; &   > , ' + $ $ + $ + , , ) , $ $ $ $ $ $ $ - $ ! ) ",
"~ { $ @ @ @ + $ ' ] + - ^ / $ - - $ - - - - - $ ( ( { + + + $ + $ + $ + , _ , $ $ $ - $ $ $ - - , % ",
"~ { $ @ , + $ + $ , ] , ^ - $ $ - - - - $ - $ $ ( ( , + $ + + $ + $ $ + , & , $ - $ - - : $ $ $ + < ",
"~ + @ @ ' $ + $ $ $ $ / [ , $ $ - - } } } } $ $ ( & : $ } } } } $ + $ + $ % , + - - - - - - - $ + < ",
"| ' $ + + $ + $ $ + + / 1 2 $ - - 3 4 4 5 5 6 $ * & ! 3 4 5 5 5 6 + $ + , & , $ - - $ - - - : $ , % ",
"% + + $ + $ $ $ + $ + - 1 7 $ $ - 8 9 0 a b c $ * < , d 0 e b b c $ + + , f $ $ $ - $ $ : $ $ - + , ",
"g { $ + ' ] $ { $ + , h ^ 2 $ $ $ 8 i j k l d $ * _ ' 8 m m l n c $ $ + + , $ $ : $ $ $ $ $ - - + < ",
"o , + $ $ , $ $ + + ] h ^ 2 $ $ - 8 p p j k d $ ~ % + 3 p p j e d + $ + , q , $ $ $ $ : $ $ - - , , ",
"r , ' ' $ $ + + + + + - 1 , + $ - 3 s i p t d ' ( ( + 3 s p i t d + $ , , , , $ , , $ $ $ $ $ $ $ < ",
"g { + $ $ $ , ] + $ , = 1 2 $ $ $ $ u i i v $ , ( ( ' ] u i i u + $ $ , _ _ , , ! $ $ , $ $ $ , + < ",
"& : ' ' { { { { { { ] ! 1 w ' , $ $ v x x y + z & & 7 , y x x v + + $ $ A _ f _ , $ $ $ $ + $ + , _ ",
"1 f f B w f w w w w f C & A B f f f f y D E F G G G G F E D y B f f B B q & q q f B B f f B f B f q ",
"1 ( , . , . H , I . , ^ ^ ^ J ; J : F K L M N O P P P Q R L K F , , , , q A ) , , , , , , , , , _ q ",
"S T ' ' ' ' ' ' ' ' U V ^ . + + , W P X Y Z ` L N N  .` Z Y ` P W + $ $ , _ , ' $ + ' ' { ' ' ' , , ",
"~ U ' { { { ' { { ' ' h ^ , ] $  .....X +.Y Z `  .@.` Z Y +.` .... .$ + , #.' ] + ' ' ' { ' { ' ' , ",
"~ ] ' { { ' ' { ' { ' h ^ , ' L $.%.&.+.X +.Y Z R L *.Y +.X =.-.%.$.R $ , _ , ' ' ' + ' { { { { ' , ",
"_ ] + ' ' ' ' ' ' ' ] ' w , ;.Y &.>.>.>.Y Z ,.Y R @.Y ,.Z ,.'.>.>.-.Y ;., , + ' ' ' ' ' { { { ' + , ",
", ' ' { + ' + + + ' ] , _ W  .*.).-.>.>.'.R !.*.R R *.!.R >.>.>.-.).Y  .W f + ] ' ' ' + { ' { { ' , ",
", + { ' ' { ' ' ' ' ] $ C W  .Y +.).-.>.>.Z !.!.Z Z !.Z !.'.>.&.).+.Y  .W ) , ] { { + ' + ' + ' ' , ",
", ' { { { { ' ' ' ' ] , , ;.L *.+.+...'.>.>.X X Y *.Z X '.>.'.).+.+.*.L ;._ , ] { { { { ' ' ' + $ , ",
"_ ' + ' ' ' ' + + ' ' , W ).=.R *.+...>.>.>.X Z !.Y X X >.>.'...+.*.R =.).W $ ' ' { + ' ' ' ' ' ' , ",
", + { { ' ' + ' ' + ' F X ~.{...R *.+.).'.>.X Z Y Y ].X >.'.).=.*.L ^./.=.X G ' ] , , + ' + ' ' ' , ",
"< ' ] ] ] ] ' ' ] ] ] G (.+._.$. .!.+.=.'.>.:.*.` <.!.[.>.'.~.+.*. .$.:.+.Z W ' ] , _ $ ' ] ] ] $ _ ",
"& ! $ , $ $ , - $ $ , W  .*.).}.=.R Y +.$.'.%.*.R R Y |.&.1.+.Y R =.2.).*.Q W , , , , , , $ $ $ ! q ",
"q & f % ) w % 3.f 4.;.=./.5.X }.}. .Z ,.+.-.>.Y L R Y >.-.+.,.Z  .}./.6.+.{.+.;.f , B , , f , 4._ q ",
"& , $ $ , + + , $ $ ;.2.7.=.` /.}. .!.+.=.-.8.*.R L Y 8.-.+.=.Z  .}.}.9.=.0.2.F , $ , , , $ , $ , _ ",
"_ ] + + + + + + + $ F *.-.Y <.}.}. .Z +.+.-.8.Y L L Y >.-.=.+.Z  .}./.9.Y -.!.F $ $ $ $ $ $ + $ , , ",
", , $ + $ ' , + $ $ G (./.Z ` }.2. .Z +.+.-.>.Y R R Y >.-.=.+.Z  .}.}.` !.{.X F $ $ + $ $ $ $ + + ! ",
", + $ + $ $ + $ + $ F P Z R Y :.2.@.Z =.+.-.%.Y R R Y %.-.+.+.Z  .2.:.*.R Z P G $ $ $ + + $ $ $ , ) ",
", + + + $ + + + $ + + G P (.>.a.1.@.!.,.+.-.b...L R ..b.[.+.+.Z  .2.c.>.(.N G ' $ + + $ + $ $ + ' , ",
") , + $ $ $ + $ + $ ' W (.+.>.a.1. .Z =.=.-.d...L L ..b.&.=.+.Z  .1.c.8.+.(.G ] $ + $ + $ + $ $ ' , ",
", ] $ $ + $ $ + $ $ + W Z >.0.2.<.Z ,.+.+.-.d...L R ..b.-.=.+.,.Z 9.}.0.8.(.G + + $ + $ + $ + $ , , ",
"< ] + + $ + + $ + $ + , e.&.a.). .Z +.=.:.>.b...M L ..b.'.:.^.+.*. .).c.>.;., ' $ $ + $ $ ' $ $ , , ",
"% , + + + $ $ + $ + + , W /._.` (.5.+.^.'.c.f...M 9...f.c.'.+.+.+.(.X :./.g., ' $ $ $ $ $ $ $ ' ! q ",
"< + + + $ $ $ ' $ , , , f X ` ` +.+.^./.>.b.h...` M ).h.i.>.{...+.+.` ` (., , ' + $ $ $ $ $ ' ! q q ",
") : ' + ' , , , , , ) ) _ g. .Y +.+...>.j.f.8.9.O O M 8.f.j.>...+.+.*. .g._ ! , ' ' ' ' ' $ , f q _ ",
"& ) B f f ) & _ #._ _ 1 ) W  .Y +.^.}.>.f.8.L k.l.l.k.L %.f.>.}.=.+.Y  .W _ f f f f B B B f A _ q ) ",
"1 _ , ! , , ) _ _ q q q _ q N Z ^.}.%.m.8.L n.o.x x o.n.L %.m.8.}.^.Z N q q _ , , , , , , q f , _ _ ",
"_ ' + + , ' z B q q q q q A q P =.:.>.m.L p.q.r.m m r.q.p. .m.>.[.+.P , _ q , $ $ $ $ ' , , , + , B ",
"< , $ + $ $ $ , , , , _ & _ w , G N *.@.p.s.t.u.v.v.w.x.s.p. .*.N W $ + , ) , $ , $ $ $ : + $ $ $ , ",
", ' $ + $ + , + ] + + , 4., $ $ : $ ;.p.y.z.A.B.r.u.t.A.z.y.p.;.$ + $ + , _ , _ $ $ , B , $ $ $ $ , ",
", + + $ $ + ' $ $ + + $ _ , $ $ $ $ $ C.D.v.A.B.u.E.F.A.p D.C.$ + $ $ + , q _ f : ! f , , $ $ $ $ , ",
"#., $ + + $ $ + + + + $ _ _ : , $ $ $ $ y t z.t.t.t.A.z.t G.+ + $ + $ + $ _ _ q f f _ , $ $ $ $ $ , ",
", ' $ + $ + + $ $ $ $ , _ B $ $ $ : $ $ $ H.I.z.A.A.z.I.H.$ ' , + $ $ $ , ) q , _ , , $ + $ ' $ , , ",
", ] + + $ + $ + $ $ ' + q , $ $ $ $ $ $ $ $ 6 J.u.E.J.6 $ + $ + $ $ + + , f , , + $ + $ $ ' $ $ $ , ",
"4., $ $ $ $ + $ + $ ' , q , $ $ , $ $ $ $ $ $ c K.K.c $ + $ + $ + $ $ + , _ , + $ + $ $ $ $ + $ $ , ",
", + $ + $ + $ $ $ + $ , 4., $ $ $ $ $ $ $ $ , ' L.L.+ $ $ $ $ $ $ + $ { , ) , + + $ $ $ $ $ $ $ ' , ",
"f $ ' ' + ' ' ' + ' + : _ : + + + $ $ $ $ $ ! f A w $ ' + ' ' + + $ , _ , , , + ' ' + ' ' ' ' ' , f ",
"_ B ! : , , : z , z : ) _ q ! : : : ! : : , f _ q 1 B : : : , - , B A q _ q f , ! : : ! , : , : B q ",
"_ q ) q f f ) f A A f _ q q A ) A ) A A A A q q q _ _ A A A A A f _ _ q q _ _ f q q f _ f f f _ q _ "};
