/* XPM */
static char * Enemyface_xpm[] = {
"50 50 171 2",
"  	c #727423",
". 	c #7C7D4B",
"+ 	c #828175",
"@ 	c #807F72",
"# 	c #807F68",
"$ 	c #7E7C71",
"% 	c #707038",
"& 	c #6E7121",
"* 	c #747632",
"= 	c #7A7769",
"- 	c #7C7B6D",
"; 	c #747357",
"> 	c #74725C",
", 	c #7F8044",
"' 	c #88877C",
") 	c #6C6C31",
"! 	c #6E6C58",
"~ 	c #797A35",
"{ 	c #868579",
"] 	c #8C8A80",
"^ 	c #72751B",
"/ 	c #7D7C65",
"( 	c #4B2323",
"_ 	c #542727",
": 	c #777931",
"< 	c #7D8025",
"[ 	c #743A3A",
"} 	c #7D3C3C",
"| 	c #723535",
"1 	c #643030",
"2 	c #6D3838",
"3 	c #726F60",
"4 	c #747745",
"5 	c #592B2B",
"6 	c #9B5252",
"7 	c #C17271",
"8 	c #BB7472",
"9 	c #A35B5B",
"0 	c #AB5454",
"a 	c #55292A",
"b 	c #924646",
"c 	c #AC615D",
"d 	c #BC6C6B",
"e 	c #844444",
"f 	c #706E44",
"g 	c #DBADA6",
"h 	c #C2AFAA",
"i 	c #5F2D36",
"j 	c #A34E4E",
"k 	c #863A40",
"l 	c #6F474E",
"m 	c #DECCC4",
"n 	c #CA8986",
"o 	c #9D5A5B",
"p 	c #B47B73",
"q 	c #926C5E",
"r 	c #723E37",
"s 	c #AB5B5B",
"t 	c #73453D",
"u 	c #A0796B",
"v 	c #874849",
"w 	c #67653B",
"x 	c #797B3B",
"y 	c #828261",
"z 	c #97554C",
"A 	c #A05E55",
"B 	c #7D4141",
"C 	c #B56C68",
"D 	c #9C5B51",
"E 	c #8C4949",
"F 	c #7B7A54",
"G 	c #934A4A",
"H 	c #B66262",
"I 	c #B46768",
"J 	c #482728",
"K 	c #935050",
"L 	c #AC6363",
"M 	c #6B7117",
"N 	c #777845",
"O 	c #6D7219",
"P 	c #6B3434",
"Q 	c #7E7D5C",
"R 	c #9B4B4B",
"S 	c #632E2E",
"T 	c #2F191A",
"U 	c #0F1113",
"V 	c #131416",
"W 	c #401F20",
"X 	c #6E6D41",
"Y 	c #432121",
"Z 	c #2C1F21",
"` 	c #1C1E21",
" .	c #17181B",
"..	c #151618",
"+.	c #371F20",
"@.	c #863F3F",
"#.	c #A35454",
"$.	c #6D6E25",
"%.	c #6C6951",
"&.	c #6E6E2B",
"*.	c #45292B",
"=.	c #2B292D",
"-.	c #26292D",
";.	c #1E2024",
">.	c #797A45",
",.	c #73724B",
"'.	c #B05454",
").	c #212226",
"!.	c #1A1B1E",
"~.	c #232529",
"{.	c #B35C5C",
"].	c #76782E",
"^.	c #888770",
"/.	c #8A897E",
"(.	c #808152",
"_.	c #302D31",
":.	c #513E43",
"<.	c #3A1B1B",
"[.	c #321B1C",
"}.	c #3A2122",
"|.	c #623638",
"1.	c #474046",
"2.	c #272B30",
"3.	c #3C4047",
"4.	c #BA6464",
"5.	c #4C2B2C",
"6.	c #434750",
"7.	c #35383F",
"8.	c #68663B",
"9.	c #373A41",
"0.	c #454A52",
"a.	c #A65759",
"b.	c #B95F5F",
"c.	c #42454D",
"d.	c #2B2D33",
"e.	c #3A3E45",
"f.	c #453E44",
"g.	c #33292C",
"h.	c #583132",
"i.	c #312123",
"j.	c #292124",
"k.	c #883F3F",
"l.	c #2B2528",
"m.	c #3D4149",
"n.	c #32343A",
"o.	c #2E3036",
"p.	c #261D1F",
"q.	c #2E3339",
"r.	c #3B2729",
"s.	c #8A4242",
"t.	c #6F702C",
"u.	c #47363A",
"v.	c #6A693E",
"w.	c #4C525B",
"x.	c #4B4F58",
"y.	c #493539",
"z.	c #585C67",
"A.	c #4E444A",
"B.	c #623A3C",
"C.	c #573A3D",
"D.	c #534F57",
"E.	c #525660",
"F.	c #513133",
"G.	c #4A3F45",
"H.	c #545964",
"I.	c #494C55",
"J.	c #39353A",
"K.	c #38393F",
"L.	c #1A1719",
"M.	c #767363",
"N.	c #1B1516",
"  . + @ @ @ @ # $ $ + % & * = - - - - - - - $ ; &   > , ' + $ $ + $ + , , ) , $ $ $ $ $ $ $ - $ ! ) ",
"~ { $ @ @ @ + $ ' ] + - ^ / ( ( ( _ - - - - - $ : : { + + + $ ( ( ( ( + , < , $ $ $ - $ $ $ - - , % ",
"~ { $ @ , + $ + $ , ] , ^ [ } [ } | 1 - $ - $ $ : : , + $ + | } } [ [ 2 , & , $ - $ - - 3 $ $ $ + 4 ",
"~ + @ @ ' $ + $ $ $ $ / 5 6 7 8 9 0 } _ - - $ $ : & 3 $ + a b 0 c 8 d e _ % , + - - - - - - - $ + 4 ",
"f ' $ + + $ + $ $ + + / 5 6 g h i j } ( - - $ $ * & ! + $ a b k l m n e ( & , $ - - $ - - - 3 $ , % ",
"% + + $ + $ $ $ + $ + - a o p q r s e ( - - $ $ * 4 , + $ a 6 6 t u 8 v _ w $ $ $ - $ $ 3 $ $ - + , ",
"x { $ + ' ] $ { $ + , y 5 9 c z A d B ( - - - $ * < ' $ + _ o C D z C E ( , $ $ 3 $ $ $ $ $ - - + 4 ",
"F , + $ $ , $ $ + + ] y a G H d I c B J - $ - $ ~ % + + $ _ K L I d s } _ M , $ $ $ $ 3 $ $ - - , , ",
"N , ' ' $ $ + + + + + - O a E s e 1 _ $ $ $ $ ' : : + + $ $ a P G s [ _ , , , $ , , $ $ $ $ $ $ $ 4 ",
"x { + $ $ $ , ] + $ , = O Q 1 } R S T U V V V V V V V V V V W [ R | $ , < < , , ! $ $ , $ $ $ , + 4 ",
"& 3 ' ' { { { { { { ] ! O X Y 2 0 S Z ` `  ... . . ...` ` ` +.@.#.5 $ $ $.< w < , $ $ $ $ + $ + , < ",
"O w w %.X w X X X X w &.& $.( 2 s } *.=.-.;.` ` ` ` ` ;.-.=.a G #.5 %.%.M & M M w %.%.w w %.w %.w M ",
"O : , . , . >., ,.. , ^ ^ ^ ( 2 s '.} J -.-.).!.` ` ~.-.=._ b {.#.5 , , M $.) , , , , , , , , , < M ",
"].^.' ' ' ' ' ' ' ' /.(.^ U _.:.2 9 s e J <.[.[.[.[.[.}.5 6 H G |.1.).$ , < , ' $ + ' ' { ' ' ' , , ",
"~ /.' { { { ' { { ' ' y ..2.3.1.5 #.7 G ( [ B B B B B 1 5 c 4.v 5.6.7.~., 8.' ] + ' ' ' { ' { ' ' , ",
"~ ] ' { { ' ' { ' { ' y !.9.0.1._ #.4.6 2 a.4.b.b.b.4.G 2 s 4.e 5.c.0.d. .< , ' ' ' + ' { { { { ' , ",
"< ] + ' ' ' ' ' ' ' ]  .-.d.e.f.5.6 4.H {.'.'.'.'.'.'.'.{.b.4.e *.c.7.d.;.V + ' ' ' ' ' { { { ' + , ",
", ' ' { + ' + + + ' ]  .-.d.g.h.6 H H H '.'.'.'.'.'.'.'.'.4.4.{.E *.g.d.~...+ ] ' ' ' + { ' { { ' , ",
", + { ' ' { ' ' ' ' ]  .-.d.i.S b.#.#.{.'.'.'.'.'.'.'.'.'.'.6 s a.Y =.d.~.V , ] { { + ' + ' + ' ' , ",
", ' { { { { ' ' ' ' ;.~.~.2.i.5 #.b j '.j j '.'.'.'.'.'.j '.R R G Y =.2.~.~., ] { { { { ' ' ' + $ , ",
"< ' + ' ' ' ' + + ..d.e.;.-.j._ } j 0 R k.j '.'.'.'.'.j b j 0 R | W l.~.2.m.~.V ' { + ' ' ' ' ' ' , ",
", + { { ' ' + ' ..~.d.7.3.-.i.( _ R } S '.'.'.'.'.0 '.'.R 5 b @.Y ( Z d.e.n.d.` V , , + ' + ' ' ' , ",
"4 ' ] ] ] ] ' ' V -.o.7.6.~.+.S e P | b '.'.'.'.'.'.'.'.0 @.P | B a p.q.c.n.o.;.V , < $ ' ] ] ] $ < ",
"& ! $ , $ $ , - V ).2.n.e.q.r.| s [ E {.'.'.'.'.'.'.'.'.0 {.} s.0 5 g.7.e.d.-.` V , , , , $ $ $ ! M ",
"M & w % ) X % t.` ;.2.d.q.m.u.S j {.H {.'.'.'.'.'.'.'.'.'.b.H s b 5.1.e.d.d.-.` !., %., , w , v.< M ",
"& , $ $ , + + ` 3.w.9.;.o.6.q.Z 1 R b.H b.'.'.'.'.'.'.{.b.4.{.b _ j.e.m.-.~.0.x.7..., , , $ , $ , < ",
"< ] + + + + + !.9.x.9.` d.c.q.p.a R b.H b.0 '.'.'.'.'.'.H H '.k.Y ;.e.3.2.;.6.0.d...$ $ $ $ + $ , , ",
", , $ + $ ' , !.o.m.q.;.q.c.q.Z a R b.H H '.'.'.'.'.0 '.H b.{.k.Y ;.e.3.=.;.e.e.~...+ $ $ $ $ + + ! ",
", + $ + $ $ +  .2.m.n.` d.c.n.i.S j b.H b.'.0 '.'.'.'.'.b.H b.s.a j.3.e.-.;.e.9.~...$ + + $ $ $ , ) ",
", + + + $ + + ..` d.-.Z o.c.y.S j b.H b.'.'.'.{.b.'.'.'.'.H H {.b a 1.3.d.` d.=.!.V + $ + $ $ + ' , ",
") , + $ $ $ + $ ..` ~.q.x.x.u.P {.4.{.0 '.'.0 {.H '.'.'.0 {.b.4.#.5 f.w.6.2.).!...+ $ + $ + $ $ ' , ",
", ] $ $ + $ $ + V ` -.9.z.A.B.E H H {.'.'.'.'.{.H {.'.'.'.0 b.H s B C.D.E.o.~.!.V $ + $ + $ + $ , , ",
"4 ] + + $ + + $ ..-.n.m.E.F.s.4.H b.s '.'.'.{.H H H {.0 '.'.b.H 4.H 2 G.w.9.n.;.V $ + $ $ ' $ $ , , ",
"% , + + + $ $ + ..~.c.H.0.5.e 4.H '.'.'.0 b.H b.H H H {.'.0 0 {.H {.P y.w.E.9.` V $ $ $ $ $ $ ' ! M ",
"4 + + + $ $ $ ' $ ..9.z.I.5.e {.{.{.H {.b.H #.b b b s H H {.b.{.'.0 P y.w.z.2...+ $ $ $ $ $ ' ! M M ",
") 3 ' + ' , , , , V n.w.u.[ R '.{.H H H H #.E @.@.@.G s H H H H {.0 b |.f.w.)., ' ' ' ' ' $ , w M < ",
"& ) %.w w ) & < 8.V 2.J.Y 6 H {.H H H {.0 s.@.k.k.k.@.b s H H H b.{.4.} i.K.;.w w w %.%.%.w $.< M ) ",
"O < , ! , , ) < < M ..L.Y 6 4.H H H H s s.@.@.@.k.@.@.@.b {.4.H H b.4.B [.L.< , , , , , , M w , < < ",
"< ' + + , ' M.%.M M M N.<.6 4.H H H 4.0 e @.k.@.@.@.k.@.E {.H H H H 4.B T V , $ $ $ $ ' , , , + , %.",
"4 , $ + $ $ $ , , , , N.Y 6 4.H H H s G k.k.@.@.k.@.@.@.s.R s 4.H H 4.B [.V , $ , $ $ $ 3 + $ $ $ , ",
", ' $ + $ + , + ] + + N.Y 6 4.H H H R @.@.@.@.k.@.k.k.@.k.k.#.4.H H H B [..., < $ $ , %., $ $ $ $ , ",
", + + $ $ + ' $ $ + + $ Y 6 4.H H H R e @.@.k.k.k.@.@.@.k.s.#.H H H H B <.M < w 3 ! w , , $ $ $ $ , ",
"8., $ + + $ $ + + + + $ W 6 4.H H R k.@.@.@.@.e @.@.@.k.@.k.s.#.H H 4.} <.< < M w w < , $ $ $ $ $ , ",
", ' $ + $ + + $ $ $ $ , Y 6 d {.R k.@.@.@.@.@.@.@.k.@.k.@.@.@.s.#.H d } <.) M , < , , $ + $ ' $ , , ",
", ] + + $ + $ + $ $ ' + W e 6 #.@.@.k.@.@.@.@.@.s.@.@.k.k.k.k.@.E #.R 2 <.w , , + $ + $ $ ' $ $ $ , ",
"v., $ $ $ $ + $ + $ ' , M <.S @.} @.@.} } @.} @.} @.@.} } } @.} @.} _ + , < , + $ + $ $ $ $ + $ $ , ",
", + $ + $ + $ $ $ + $ , v., W ( ( Y ( ( ( Y ( Y ( ( Y Y ( ( Y ( Y ( $ { , ) , + + $ $ $ $ $ $ $ ' , ",
"w $ ' ' + ' ' ' + ' + 3 < 3 + + + $ $ $ $ $ ! w $.X $ ' + ' ' + + $ , < , , , + ' ' + ' ' ' ' ' , w ",
"< %.! 3 , , 3 M., M.3 ) < M ! 3 3 3 ! 3 3 , w < M O %.3 3 3 , - , %.$.M < M w , ! 3 3 ! , 3 , 3 %.M ",
"< M ) M w w ) w $.$.w < M M $.) $.) $.$.$.$.M M M < < $.$.$.$.$.w < < M M < < w M M w < w w w < M < "};
