/* XPM */
static char * Enemyleft_xpm[] = {
"50 50 146 2",
"  	c #727423",
". 	c #7C7D4B",
"+ 	c #828175",
"@ 	c #807F72",
"# 	c #807F68",
"$ 	c #7E7C71",
"% 	c #707038",
"& 	c #6E7121",
"* 	c #747632",
"= 	c #7A7769",
"- 	c #7C7B6D",
"; 	c #747357",
"> 	c #74725C",
", 	c #7F8044",
"' 	c #88877C",
") 	c #6C6C31",
"! 	c #6E6C58",
"~ 	c #797A35",
"{ 	c #868579",
"] 	c #8C8A80",
"^ 	c #72751B",
"/ 	c #7D7C65",
"( 	c #777931",
"_ 	c #7D8025",
": 	c #726F60",
"< 	c #747745",
"[ 	c #717416",
"} 	c #706E44",
"| 	c #4D2323",
"1 	c #6D7219",
"2 	c #7E7D5C",
"3 	c #522626",
"4 	c #7B3737",
"5 	c #954C4C",
"6 	c #7E4141",
"7 	c #797665",
"8 	c #552A2A",
"9 	c #8B4141",
"0 	c #94474C",
"a 	c #653131",
"b 	c #67653B",
"c 	c #797B3B",
"d 	c #854545",
"e 	c #A27476",
"f 	c #C89993",
"g 	c #AB5758",
"h 	c #7B3B43",
"i 	c #D0ABA7",
"j 	c #A36765",
"k 	c #7B7A54",
"l 	c #805C53",
"m 	c #BA887E",
"n 	c #5B2B2B",
"o 	c #B66262",
"p 	c #6C3836",
"q 	c #A58679",
"r 	c #BE7875",
"s 	c #6F3838",
"t 	c #6B7117",
"u 	c #777845",
"v 	c #743C3C",
"w 	c #935452",
"x 	c #9A5850",
"y 	c #A46159",
"z 	c #9A5151",
"A 	c #B66B6B",
"B 	c #B76866",
"C 	c #8D4B4B",
"D 	c #BA6464",
"E 	c #6E6D41",
"F 	c #A34D4D",
"G 	c #B45B5B",
"H 	c #767363",
"I 	c #6D6E25",
"J 	c #6C6951",
"K 	c #7B3B3B",
"L 	c #934646",
"M 	c #A65151",
"N 	c #6E6E2B",
"O 	c #797A45",
"P 	c #73724B",
"Q 	c #716F4F",
"R 	c #6D3333",
"S 	c #AC5C5C",
"T 	c #622E2E",
"U 	c #767A20",
"V 	c #17181B",
"W 	c #1F2124",
"X 	c #191A1D",
"Y 	c #76782E",
"Z 	c #888770",
"` 	c #AC5353",
" .	c #B85F5F",
"..	c #23252A",
"+.	c #2E3036",
"@.	c #494D55",
"#.	c #42464D",
"$.	c #3E424A",
"%.	c #32343A",
"&.	c #212226",
"*.	c #8A897E",
"=.	c #B05555",
"-.	c #26282D",
";.	c #3D4047",
">.	c #2C2E34",
",.	c #464A52",
"'.	c #421F1F",
").	c #151719",
"!.	c #3A3D44",
"~.	c #555B65",
"{.	c #595F6A",
"].	c #4D525B",
"^.	c #442323",
"/.	c #111214",
"(.	c #292A2F",
"_.	c #2F343A",
":.	c #525761",
"<.	c #3A1B1B",
"[.	c #1D1718",
"}.	c #35383F",
"|.	c #272E33",
"1.	c #883F3F",
"2.	c #44484F",
"3.	c #984747",
"4.	c #9A4A4A",
"5.	c #2B2225",
"6.	c #1D1F22",
"7.	c #50555F",
"8.	c #331717",
"9.	c #363B42",
"0.	c #29262A",
"a.	c #6A693E",
"b.	c #271C1E",
"c.	c #444750",
"d.	c #2B1D1E",
"e.	c #462728",
"f.	c #3C2223",
"g.	c #863E3F",
"h.	c #35191A",
"i.	c #462A2C",
"j.	c #713535",
"k.	c #5B616C",
"l.	c #583436",
"m.	c #4B2E30",
"n.	c #271516",
"o.	c #68663B",
"  . + @ @ @ @ # $ $ + % & * = - - - - - - - $ ; &   > , ' + $ $ + $ + , , ) , $ $ $ $ $ $ $ - $ ! ) ",
"~ { $ @ @ @ + $ ' ] + - ^ / $ - - $ - - - - - $ ( ( { + + + $ + $ + $ + , _ , $ $ $ - $ $ $ - - , % ",
"~ { $ @ , + $ + $ , ] , ^ - $ $ - - - - $ - $ $ ( ( , + $ + + $ + $ $ + , & , $ - $ - - : $ $ $ + < ",
"~ + @ @ ' $ + $ $ $ $ / [ , $ $ - - - - - - $ $ ( & : $ + $ $ + $ + $ + $ % , + - - - - - - - $ + < ",
"} ' $ + + $ + $ | | + / 1 2 $ - - 3 | | - - $ $ * & ! + $ $ + + $ + $ + , & , $ - - $ - - - : $ , % ",
"% + + $ + $ $ 4 5 5 6 - 1 7 $ $ 8 9 5 0 a - $ $ * < , + $ + , $ + $ + + , b $ $ $ - $ $ : $ $ - + , ",
"c { $ + ' ] | d 0 e f 4 ^ 2 $ $ 8 g h i j a - $ * _ ' $ + $ ' ' + $ $ + + , $ $ : $ $ $ $ $ - - + < ",
"k , + $ $ , | 5 5 l m 5 3 2 $ $ n o p q r s - $ ~ % + + $ + $ $ $ + $ + , t , $ $ $ $ : $ $ - - , , ",
"u , ' ' $ $ + v w x y z | , + $ 8 A y x B v $ ' ( ( + + $ $ + $ $ + $ , , , , $ , , $ $ $ $ $ $ $ < ",
"c { + $ $ $ , ] 6 w C d 1 2 $ $ 8 w o D 5 a $ , ( ( ' ] + + + $ + $ $ , _ _ , , ! $ $ , $ $ $ , + < ",
"& : ' ' { { { { { n a | 1 E ' , $ 3 F G a $ + H & & 7 , + + ' ' + + $ $ I _ b _ , $ $ $ $ + $ + , _ ",
"1 b b J E b E E E K L | & I J b b 3 M z a J b ) ^ ^ N E J b b J b b J J t & t t b J J b b J b J b t ",
"1 ( , . , . O , P K 0 | ^ ^ Q ; Q R S T ; < < < U V V V W W W W X X X X t I ) , , , , , , , , , _ t ",
"Y Z ' ' ' ' ' ' ' d 5 3 ^ . + + 8 `  .T + + , V V W ..+.@.#.#.$.+.+.%.%.&._ , ' $ + ' ' { ' ' ' , , ",
"~ *.' { { { ' { { 6 5 | ^ , ] $ 8 S =.T + $ V W -.&.+.@.;.>.+.+.>.%.,.@.@...' ] + ' ' ' { ' { ' ' , ",
"~ ] ' { { ' ' { ' 4 9 | ^ , ' '.T S M T $ ).W -.&.%.@.!.>.+.>.+.%.#.@.~.{.].-.' ' ' + ' { { { { ' , ",
"_ ] + ' ' ' ' ' ' 4 9 3 '.'.^.T S ` T $ /.&.(.&.%.,.!._.>.>.>.%.,.@.~.~.~.:.@...' ' ' ' { { { ' + , ",
", ' ' { + ' + + 3 | n 9 M M M S o ` n + /.&.W %.,.;.+.>.>.>.%.,.,.{.~.>.&.&.&.X V ' ' + { ' { { ' , ",
", + { ' ' <.<.| ^.8 9 =.G  . .o o ` T [.&.-.W }.@.!.>.>.>.>.%.,.@.:.|.(.|.>.>.>.>.W + ' + ' + ' ' , ",
", ' { { { <.6 M 9 1.` =.=.` 9 L =.` n [...&.%.2.!._.>.>.>.>.%.@.:.(.(.+.+.;.#.#.#.}.W /.' ' ' + $ , ",
"_ ' + ' ' ' 8 8 R 3.=.=.=.4.8 S =. .n 5.-.6.!.@.!.>.+.>.>.%.#.@.:.&.>.>.;.,.7.~.~.].>./.' ' ' ' ' , ",
", + { { ' ' + 8.R ` =.=.` ` 9 n n S T (.|.6.9.;.+.>.>.+.>.%.@.7.>.(.>.;.2.:.!.|.|.#.#.6.' + ' ' ' , ",
"< ' ] ] ] ] ' 8.4 =.=.=.=.=.` C C S 3 (.-.6.9.9.>.>.+.>.>.%.@.:.6.>.+.2.,.}.}.#.,.!.#.9./.] ] ] $ _ ",
"& ! $ , $ $ , 8.4 G ` =.=.=.` D D o ^.0.-.6.9.9.>.+.>.+.>.%.@.:.&.>.+.#.@...+.@.{.9.+.9./.$ $ $ ! t ",
"t & b % ) E % '.h  .=.=.=.=. .o o o h 5.-.6.!.9.>.>.+.>.>.%.].:.W >.>.#.@...-.%.@.}.+.%./.b , a._ t ",
"& , $ $ , + + ^.6  .=.=.=.=.o o o  .G b.6.6.!.c.%.>.>.>.>.%.,.].W >.>.#.,.}...(.;._.+.%./.$ , $ , _ ",
"_ ] + + + + + s 5  .=.=.=.G o o o o =.8 ..6.,.:.!.>.>.>.+.%.,.$.W >.>.!.2.7.}.(.+.+.!.%./.$ + $ , , ",
", , $ + $ ' | d D G =.=.G o o o o o =.L d.).c.7.9.>.>.>.>.%.,.#.W >.>.>.#.7.7.}...;.].%./.$ $ + + ! ",
", + $ + $ $ | d  .=.=.=.D o o o o o =.9 e.[.,.7.;.%.>.+.>.%.#.#.W >.>.+.;.2.7.7.].7.].+./.$ $ $ , ) ",
", + + + $ + T 5 G =.=.=.o o o o o o G 3.9 d.c.7.,.!.>.>.+.>.+.#.-.(.>.>.>.;.2.7.~.].}.W /.$ $ + ' , ",
") , + $ $ | C D G ` =.g o o o  .o o o =.L '.;.].@.!.>.>.+.>.+.c.#.&.>.>.>.>.!.#.2.}...W /.+ $ $ ' , ",
", ] $ $ + | C D G =.=.G o o ` =. .o o G 3.1.f.!.:.!.+.+.>.+.+.+.#...(.>.>.+.>.+.+...%.%./.$ + $ , , ",
"< ] + + $ ^.0 D G ` =.o o =.=.=.=.o o o =.L f.!.7.,.!.+.>.>.+.%.c.#...>.>.>.>.>...%.,.%./.' $ $ , , ",
"% , + + + <.d  .=.=.G o o ` =.=.=.=. .o G L g.f.!.:.;.>.+.>.>.>._.#.#...6.6.6.6.%.@.>.V $ $ $ ' ! t ",
"< + + + $ h.d  .` =.=.D  .=.=.` =.` =.o o ` 3.f.9.:.,.!.>.>.>.>.>.%.#.#.c.#.#.#.,.!.&./.$ $ ' ! t t ",
") : ' + ' <.d M 9 9 4.D o G =.=.=.=.=.=. .G L g.i.9.:.,.;.>.+.+.>.>.%.,.,.,.,.,.!.&.V ' ' $ , b t _ ",
"& ) J b b <.j.9 g.g.1.C 4.o o G =.` =.=.=.G =.3.^.%.k.:.,.;.>.>.>.>.>.%.%.%.%.%...V J J J b I _ t ) ",
"1 _ , ! , <.a 1.1.1.g.1.9 L 5 o  .=.=.=.=.=.=.3.K i.9.k.7.,.;.>.>.>.>.>.>.>.>.!..., , , , t b , _ _ ",
"_ ' + + , ' | s 1.1.1.1.1.1.9 0 3.L L ` =.=.=.` L 4 i.9.k.:.,.;.!.>.>.>.>.>.!.|.l.a $ ' , , , + , J ",
"< , $ + $ $ $ | R 1.1.1.1.1.1.1.1.1.1.3.3.3.` G ` 4.K m.|.9.~.~.~.#.;.#.;.#.>.l.F F a $ : + $ $ $ , ",
", ' $ + $ + , + 3 n n n n n n n 8 n n n 8 n a R s a n | n.d.%.%.+.>.>.(.(.|.d.8 j.j.8 <., $ $ $ $ , ",
", + + $ $ + ' $ $ h.+ $ _ , $ $ $ $ $ $ $ $ $ $ ) E ' $ + + $ $ + $ $ + , t _ b : ! b <., $ $ $ $ , ",
"o., $ + + $ $ + + + + $ _ _ : , $ $ $ $ $ : $ $ _ , ' $ $ + + + $ + $ + $ _ _ t b b _ , $ $ $ $ $ , ",
", ' $ + $ + + $ $ $ $ , _ J $ $ $ : $ $ $ $ $ $ _ ) ' $ $ $ ' , + $ $ $ , ) t , _ , , $ + $ ' $ , , ",
", ] + + $ + $ + $ $ ' + t , $ $ $ $ $ $ $ $ $ $ ) ) , ' $ + $ + $ $ + + , b , , + $ + $ $ ' $ $ $ , ",
"a., $ $ $ $ + $ + $ ' , t , $ $ , $ $ $ $ $ $ ' , _ ' $ + $ + $ + $ $ + , _ , + $ + $ $ $ $ + $ $ , ",
", + $ + $ + $ $ $ + $ , a., $ $ $ $ $ $ $ $ , ' _ , + $ $ $ $ $ $ + $ { , ) , + + $ $ $ $ $ $ $ ' , ",
"b $ ' ' + ' ' ' + ' + : _ : + + + $ $ $ $ $ ! b I E $ ' + ' ' + + $ , _ , , , + ' ' + ' ' ' ' ' , b ",
"_ J ! : , , : H , H : ) _ t ! : : : ! : : , b _ t 1 J : : : , - , J I t _ t b , ! : : ! , : , : J t ",
"_ t ) t b b ) b I I b _ t t I ) I ) I I I I t t t _ _ I I I I I b _ _ t t _ _ b t t b _ b b b _ t _ "};
