/* XPM */
static char * 0_xpm[] = {
"50 50 222 2",
"  	c #72751B",
". 	c #BD9842",
"+ 	c #A2783C",
"@ 	c #F5E5C5",
"# 	c #F3E2AB",
"$ 	c #EFD993",
"% 	c #EDD48C",
"& 	c #EACD7C",
"* 	c #E7C86C",
"= 	c #E8CB6F",
"- 	c #E7C872",
"; 	c #F1D78C",
"> 	c #F1DB94",
", 	c #F1DD9A",
"' 	c #F3E2A5",
") 	c #F3DDB3",
"! 	c #ECD184",
"~ 	c #E9CC74",
"{ 	c #E6C56A",
"] 	c #7F8226",
"^ 	c #636917",
"/ 	c #F5E5C8",
"( 	c #F4E5BC",
"_ 	c #F2E19E",
": 	c #EBCE83",
"< 	c #EBD07D",
"[ 	c #EED88F",
"} 	c #E9C988",
"| 	c #DC9B69",
"1 	c #C8906B",
"2 	c #A7785B",
"3 	c #A08D59",
"4 	c #A77E65",
"5 	c #B5886B",
"6 	c #E3B39C",
"7 	c #F7E8CB",
"8 	c #F4E4B4",
"9 	c #F1DEA3",
"0 	c #E4C264",
"a 	c #E2B569",
"b 	c #787B21",
"c 	c #7F8124",
"d 	c #EED592",
"e 	c #DAA476",
"f 	c #B16B55",
"g 	c #AD6548",
"h 	c #89393A",
"i 	c #62262E",
"j 	c #5D242E",
"k 	c #56222F",
"l 	c #673241",
"m 	c #815D64",
"n 	c #CEAE92",
"o 	c #EEDAB7",
"p 	c #E3B96A",
"q 	c #D58769",
"r 	c #583836",
"s 	c #656C17",
"t 	c #C3754C",
"u 	c #B34C34",
"v 	c #3D211B",
"w 	c #0A0909",
"x 	c #080708",
"y 	c #1C1415",
"z 	c #F1D6B4",
"A 	c #DB9363",
"B 	c #B5554A",
"C 	c #782B27",
"D 	c #B3B0A9",
"E 	c #DFB56F",
"F 	c #A43A2E",
"G 	c #C46C4A",
"H 	c #433027",
"I 	c #050707",
"J 	c #070808",
"K 	c #C58776",
"L 	c #E2B374",
"M 	c #B85846",
"N 	c #9A3630",
"O 	c #7C2D29",
"P 	c #A2814F",
"Q 	c #97362F",
"R 	c #3D2625",
"S 	c #DFB957",
"T 	c #DA965A",
"U 	c #A64438",
"V 	c #EFD89C",
"W 	c #311512",
"X 	c #E3BE61",
"Y 	c #B9653A",
"Z 	c #9B3A32",
"` 	c #943431",
" .	c #9A362F",
"..	c #291315",
"+.	c #EFD598",
"@.	c #812F28",
"#.	c #DDAD51",
"$.	c #DDB353",
"%.	c #E0BA85",
"&.	c #9D382E",
"*.	c #873128",
"=.	c #170B0A",
"-.	c #DBA64B",
";.	c #AD412E",
">.	c #933D2A",
",.	c #E1BC5B",
"'.	c #AB4231",
").	c #B04631",
"!.	c #361B13",
"~.	c #B45032",
"{.	c #94432A",
"].	c #E0B558",
"^.	c #A64A43",
"/.	c #C77442",
"(.	c #B8533D",
"_.	c #CB7369",
":.	c #B85C56",
"<.	c #853134",
"[.	c #231216",
"}.	c #C88548",
"|.	c #DB8D8C",
"1.	c #B77B6B",
"2.	c #CF8157",
"3.	c #F8E9C3",
"4.	c #EBD6AC",
"5.	c #DDC18D",
"6.	c #D6B56A",
"7.	c #DAA85A",
"8.	c #D78E59",
"9.	c #DE9485",
"0.	c #E19784",
"a.	c #E3C05F",
"b.	c #C76A59",
"c.	c #C87656",
"d.	c #8F654A",
"e.	c #5D5536",
"f.	c #FAEBBC",
"g.	c #94574C",
"h.	c #73323C",
"i.	c #6E343B",
"j.	c #A0583C",
"k.	c #DCA552",
"l.	c #DC9473",
"m.	c #DC936D",
"n.	c #B57A58",
"o.	c #686F16",
"p.	c #DDA966",
"q.	c #6B2D3A",
"r.	c #642B3D",
"s.	c #5C283F",
"t.	c #DC9E5D",
"u.	c #B57952",
"v.	c #B34E3C",
"w.	c #AD4D45",
"x.	c #7B2F36",
"y.	c #602B40",
"z.	c #5D2A40",
"A.	c #864143",
"B.	c #D99A46",
"C.	c #F2DFA9",
"D.	c #BF8D73",
"E.	c #99493D",
"F.	c #361717",
"G.	c #2B1620",
"H.	c #4F2435",
"I.	c #D98F55",
"J.	c #D98E4E",
"K.	c #CFAD7D",
"L.	c #8B3133",
"M.	c #552533",
"N.	c #883B40",
"O.	c #D69D63",
"P.	c #C56C60",
"Q.	c #C5695C",
"R.	c #752F37",
"S.	c #1C0E0E",
"T.	c #6B2C36",
"U.	c #7C3236",
"V.	c #9B413E",
"W.	c #B14E44",
"X.	c #C36455",
"Y.	c #D17C6C",
"Z.	c #AA3E31",
"`.	c #A93E2E",
" +	c #B95441",
".+	c #A85852",
"++	c #A13C32",
"@+	c #D98984",
"#+	c #D6817C",
"$+	c #722E38",
"%+	c #B9543D",
"&+	c #CE6F63",
"*+	c #742A2B",
"=+	c #DE958D",
"-+	c #DD947D",
";+	c #E09895",
">+	c #D57F78",
",+	c #963B38",
"'+	c #5B2731",
")+	c #E09799",
"!+	c #6C2B2D",
"~+	c #200F10",
"{+	c #974644",
"]+	c #A64C49",
"^+	c #DE9394",
"/+	c #E09899",
"(+	c #4A2237",
"_+	c #DF9894",
":+	c #DF988F",
"<+	c #DA9155",
"[+	c #AA5247",
"}+	c #D99249",
"|+	c #532643",
"1+	c #812F33",
"2+	c #B26856",
"3+	c #79343A",
"4+	c #A4713D",
"5+	c #4E2545",
"6+	c #B26346",
"7+	c #B0886E",
"8+	c #AF8977",
"9+	c #9CA8AD",
"                                                                                                    ",
"                                                                                                    ",
"                                                                                                    ",
"                                                                                                    ",
"                                                                                                    ",
"                                                                                                    ",
"            . .                                                                                     ",
"          . + + .   @ # $ % % & * * * & = - ; ; > , ' ) # ' > % ! ~ { { # ]           ]             ",
"          ^ . . / / / ( _ $ : { < , [ } | 1 2 3 4 5 6 / 7 @ 8 9 % < 0 - # ; a b   b c               ",
"            ^ ^ / / / @ 8 _ ! : d e f g h h i j k j l m n o / @ 9 ! 0 % # p q r b b s               ",
"              / / / / / / 8 < % t u v w w w w w w w x x y 1 z / @ $ * d d A B C w b s     D D       ",
"              / / / / / / @ E t F G H I J w J w w w w J y K L o / ) ! - E M N O w s       P D       ",
"              ) 8 @ / / / / E M Q B R I                   A S 8 / / ( { T U N O w w D     ^ ^       ",
"              { & V @ / / / E U Q F W w                   X : 8 / / / } Y N N O w w D               ",
"              S S - # @ / / L Z `  ...J                   9 9 @ / / / +.g ` N @.w w ^               ",
"              #.$.0 [ 8 / / %.Z Q  .W J                   / / / / / / V g Q &.*.=.w                 ",
"              -.#.0 ! d 9 @ %.Z  .F W I                 ( / / / / / / +.M N F *.w w                 ",
"              -.#.0 & & < > %.Z ;.;.W J               @ / @ / / / / / d Y N u >.w w                 ",
"              -.#.,.& 0 * < p '.).u !.J             @ @ / / / @ 8 ' # % Y '.~.{.w w                 ",
"              -.].0 < ,.0 * p u u ~.!.I           @ / / / / / # > ; ; & Y ).M ^.w w                 ",
"              ,.,.{ ! 0 X { p M ;.'.W I         ( @ / / / / 9 ~ & ! & * /.(._.:.w w                 ",
"        c     ,.,.& % { ,.,.p G Q <.[.I       ( / / / / ( V - 0 ,.0 = * }._.|.1.w w                 ",
"          c   : ! [ > ~ ,.,.X 2.&.h ..I     / @ / 3.4.5.6.7.$.,.,.,.{ 0 8.9.0.1.=.w                 ",
"          b b > , _ ' ! ,.,.a.a b.c.d.e.3 f.@ 7 4.n g.h.i.h.j.k.X ,.X X | l.m.n.w w                 ",
"        o.b b ; [ > # , ~ { 0 ~ p.p.> ! ! ( 7 ) 4 h.q.r.r.s.h.g { ,.{ & t.m.A u.w w                 ",
"      c b o.o.X 0 * ! > & * { & +.! % * ! # 6 u.v.w.x.l y.z.r.A.t.,.* < t.A A u.w w                 ",
"      b b     B.B.B.k.#.k.-.#.{ ! # C.V } D.E.*.v.A.F.G.G.H.r.<.G k.].0 t.A A u.=.w                 ",
"      o.o.    I.I.J.A l.m.m.l.| p.p.K.4 A.h L.N O =.J I w M.q.N.B q A B.O.m.m.u.w w                 ",
"              c.G /.q P.P.Q.b.P.:.h R.x.<.` ` C S.J J w   T.U.V.W.X._.q c.Y.0.1.=.w .           b   ",
"              Z.Z.'.~.;.Z.Z.;.`.L.R.<.`  . .C S.J J J     L.` F F `.`. +W.W.b..+w w .             c ",
"              F `.'. +M ).).).++R.<.` N ` C S.J J J       F F '.u '. .N L.` &.@.w J ^             b ",
"              u v.b.@+#+b.X.(.<.$+<.` ` O S.J J w         v.%+b.&+(.F L.q.R.h *+w w                 ",
"              #+@+=+-+;+;+#+ +x.U.R.<.C S.J w w b b       >+#+;+-+_. +,+r.T.$+'+w w                 ",
"              ;+=+m.I.l.;+)+B q.q.$+!+~+J w w D D b       ;+;+m.I.@+&+{+r.r.y.M.w w                 ",
"              m.l.A I.l.0.)+]+$+r.r.[.I x w D P D o.      l.l.8.m.)+@+U r.z.y.H.w w     c c b       ",
"              m.m.l.m.A l.^+]+T.r.r.[.I x   D D ^         m.m.m.-+/+^+]+r.z.z.(+w w       c b b     ",
"    c c       _+:+=+l.8.l.;+]+r.y.z.y I     ^ ^           <+A m.9._+)+[+q.r.y.M.w J       o.b b     ",
"      c b b   ^+^+^+|.-+l.9.^.T.z.y.y I                   J.}+A -+^+|.^.T.r.r.M.w w         o.o.    ",
"b c c o.b o.b v.U {+N.^.^.]+N $+z.x.W I                   <+B.2.:.^.N.Z ` U.$+M.w w                 ",
"  c b D D o.b <.$+r.|+r.r.r.h B x.l ..=.                  t.u.h r.q.1+ +2+F L.i w J                 ",
"  o.D P P D b o.|+|+|+s.r.r.l :._.g.3+4+6.> 8 @ 3.3.) } }.E.l z.y.q.x.w.|.X.++F.J w                 ",
"    ^ D D ^     5+|+z.r.q.l q.x.^.P.6+ +t K 5 5 7+8+2 g.h.r.y.i.q.q.$+U >+=+{+=.J w                 ",
"      ^ ^         G.(+M.M.M.M.'+'+!+<.U.!+j M.M.M.k k H.M.M.M.M.M.'+'+@..+r y I w                   ",
"                  9+w w w w w w w w w w w w w w w w w w w w w w w w w w w J J w J                   ",
"                  ^ 9+9+w w w w J w w w w w J w w w w w w w w w w w w w w J J o.                    ",
"                    ^ ^     P 9+                                      o.o.                          ",
"                            ^ ^                                                                     ",
"                                                                                                    ",
"                                                                                                    ",
"                                                                                                    "};
