/* XPM */
static char * 1_xpm[] = {
"50 50 200 2",
"  	c #72751B",
". 	c #BD9842",
"+ 	c #A2783C",
"@ 	c #C6A740",
"# 	c #F5E5C8",
"$ 	c #F3E3AB",
"% 	c #EFD98E",
"& 	c #ECD282",
"* 	c #EAD073",
"= 	c #E7C86A",
"- 	c #E2BD5E",
"; 	c #F4E4B6",
"> 	c #7F8226",
", 	c #636917",
"' 	c #F0DB94",
") 	c #EBD17D",
"! 	c #E8CA6D",
"~ 	c #E3BD63",
"{ 	c #EED592",
"] 	c #E8C77B",
"^ 	c #DAA65B",
"/ 	c #7F8124",
"( 	c #787B21",
"_ 	c #F4E4BD",
": 	c #F2E1A4",
"< 	c #EDD48D",
"[ 	c #EACD7B",
"} 	c #E6C56A",
"| 	c #F1DCA2",
"1 	c #EFD699",
"2 	c #DFA464",
"3 	c #B8705B",
"4 	c #421E1B",
"5 	c #656C17",
"6 	c #F1DC9B",
"7 	c #EFD993",
"8 	c #E7C872",
"9 	c #E6BF7C",
"0 	c #CB7768",
"a 	c #A5433B",
"b 	c #57201E",
"c 	c #070808",
"d 	c #9CA8AD",
"e 	c #B3B0A9",
"f 	c #F2DEBB",
"g 	c #ECCCA3",
"h 	c #F1DAB3",
"i 	c #E6C472",
"j 	c #D79967",
"k 	c #99352F",
"l 	c #5A221E",
"m 	c #070807",
"n 	c #A2814F",
"o 	c #ECD2A8",
"p 	c #D7B672",
"q 	c #AC877A",
"r 	c #926A66",
"s 	c #884949",
"t 	c #B37C5E",
"u 	c #E4B989",
"v 	c #DFB556",
"w 	c #C36D4C",
"x 	c #9A3731",
"y 	c #080808",
"z 	c #DBA452",
"A 	c #D8A469",
"B 	c #C88068",
"C 	c #7C5050",
"D 	c #71343B",
"E 	c #652C3C",
"F 	c #5D293B",
"G 	c #562743",
"H 	c #693542",
"I 	c #BA7647",
"J 	c #F5E5C4",
"K 	c #E4B880",
"L 	c #AA5346",
"M 	c #97342E",
"N 	c #060708",
"O 	c #9E573E",
"P 	c #784248",
"Q 	c #56273A",
"R 	c #532643",
"S 	c #B06943",
"T 	c #E2AB5F",
"U 	c #E4BA95",
"V 	c #9D4C4A",
"W 	c #150D12",
"X 	c #190E11",
"Y 	c #241317",
"Z 	c #DCA34B",
"` 	c #EBC989",
" .	c #A1382E",
"..	c #944738",
"+.	c #D48A47",
"@.	c #DDAE52",
"#.	c #E3B57D",
"$.	c #AD4C3D",
"%.	c #A93D2F",
"&.	c #652B1F",
"*.	c #D08A3F",
"=.	c #E0B45B",
"-.	c #E9CC73",
";.	c #AE5136",
">.	c #B34C34",
",.	c #DDA94E",
"'.	c #B75537",
").	c #6A3224",
"!.	c #E3B86A",
"~.	c #B6523A",
"{.	c #C46354",
"].	c #763937",
"^.	c #060707",
"/.	c #C0683D",
"(.	c #C15F4B",
"_.	c #D2746B",
":.	c #E5C365",
"<.	c #C7754D",
"[.	c #D5837A",
"}.	c #DD928B",
"|.	c #835653",
"1.	c #DB9274",
"2.	c #E0978F",
"3.	c #DD9870",
"4.	c #7F5644",
"5.	c #DC946B",
"6.	c #7E553B",
"7.	c #686F16",
"8.	c #DC9263",
"9.	c #DA9C5E",
"0.	c #DA925E",
"a.	c #D99545",
"b.	c #DA9B4D",
"c.	c #D68957",
"d.	c #DB9B57",
"e.	c #DE9578",
"f.	c #8D5649",
"g.	c #B34D3A",
"h.	c #B84F3D",
"i.	c #C86E60",
"j.	c #DC9283",
"k.	c #D17C73",
"l.	c #7B4C49",
"m.	c #BA5642",
"n.	c #C56A5A",
"o.	c #C86E5C",
"p.	c #AA4737",
"q.	c #BB574C",
"r.	c #963A36",
"s.	c #7A4439",
"t.	c #D88785",
"u.	c #823134",
"v.	c #B75847",
"w.	c #D57E7A",
"x.	c #E8C486",
"y.	c #9C3B34",
"z.	c #8B3433",
"A.	c #F1DDAE",
"B.	c #E0AB61",
"C.	c #DF9490",
"D.	c #AB4F40",
"E.	c #D28A67",
"F.	c #2D271A",
"G.	c #48432F",
"H.	c #E09797",
"I.	c #C36B63",
"J.	c #E6D289",
"K.	c #CF7A75",
"L.	c #E1B563",
"M.	c #DBA876",
"N.	c #DA8E90",
"O.	c #D19C79",
"P.	c #D09970",
"Q.	c #CE9769",
"R.	c #AC534E",
"S.	c #AB5350",
"T.	c #B4554F",
"U.	c #D89B8B",
"V.	c #DA9F85",
"W.	c #D48B7B",
"X.	c #783943",
"Y.	c #B96A65",
"Z.	c #A65C57",
"`.	c #702F39",
" +	c #752E36",
".+	c #6B2B34",
"++	c #5A2841",
"@+	c #6A2D3A",
"#+	c #7C3035",
"$+	c #612525",
"%+	c #120C0D",
"&+	c #4F2544",
"*+	c #7A2F36",
"=+	c #351A2A",
"-+	c #4E2335",
";+	c #5D2833",
">+	c #83302C",
",+	c #8D5F56",
"'+	c #402D2E",
")+	c #1A100F",
"                                                                                                    ",
"                                                                                                    ",
"                                                                                                    ",
"                                                                                                    ",
"                                                                                                    ",
"                                                                                                    ",
"            . .                                                                                     ",
"          . + + .   @ @         # # $ % & * = - & ;                     > >           >             ",
"          , . . , @ + @       # # # ; ' & ) ! ~ { $ ] ^                   / ( (   ( /               ",
"            , ,   @ @ ,     # # # # _ : { < [ } | 1 2 3 4           ( / > 5 ( 5 ( ( 5               ",
"                  , ,     # # # # # # ; 6 7 & 8 6 9 0 a b c           / ( ( d d ( ( 5     e e       ",
"                        # # # # f g h # _ ; | & i j a k l m           5 ( d n n d 5       n e       ",
"                        _ o p q r s t u _ # # $ v w x x l m y           5 , d d , e e     , ,       ",
"                    z A B C D E F G H I u J # _ K L M x l N y               , , e n e               ",
"                    O P Q Q F E Q R R S T $ # _ U V M x l m y                   e e ,               ",
"                      W W X X X W Y F I Z ` # J K V M  .l m m                   , ,                 ",
"                        N N c c m X ..+.@.] _ J #.$. .%.&.m y                                       ",
"                                    *.*.=.-.: ; #.;.%.>.&.N y                                       ",
"                                    *.,.} ) & 7 p ;.>.'.).m y                                       ",
"                                    @.v ! ) ! ) !.'.~.{.].^.^.                                      ",
"                                    =.- [ [ = * - /.(._.s ^.y                                       ",
"        /                           :.! < [ = ! ~ <.[.}.|.^.y                                       ",
"          /                         ) % 6 ) ~ :.~ 1.2.3.4.^.y     ( (                               ",
"          ( (                       ' ' : < - } } 5.5.5.6.^.c     7./ /                             ",
"        7.( (                       -.] ' < :.} i j 8.8.6.^.y       / ( (       (                   ",
"      / ( 7.7.                      =.=.~ = :.-.[ 9.0.0.6.^.y       7.( (   / (                     ",
"      ( (                           a.a.b.b.Z - !.9.8.8.6.^.y       7.( ( ( @ @                     ",
"      7.7.                          c.+.c.5.0.d.T 8.1.e.f.^.^.        7.7.@ + + @                   ",
"                                    g.h.i.[.j.e.0.w k.[.l.^.c             , @ @ , . .           (   ",
"                                    %.%.g.m.n.o.[.L p.h.).m y               , ,   + .             / ",
"                                    <.m.~.q.m.>.q.r.%.q.s.m y                     , ,             ( ",
"                                    9 8.k.t.{.%.x u.v.w.C ^.N                                       ",
"                                    ; x.3.j.w.q.y.z.n.o.).^.N                                       ",
"                                    _ A.B.5.C.t.D...E.[.s.F.G.                                      ",
"                  # # ; 6 < 6 _ # J J ; 2 5.C.H.I.>.@.3.E.p J.} :.:.} { &               / / (       ",
"                J J # _ $ 6 $ J # # J o d.8.}.C.K.m.^ i L.& & :.} } 8 < M.n.              / ( (     ",
"    / /         A.J # # J J J J J ; A.2 c.1.j.j.N.K.E.x.6 { { { { < & !.c.n...            7.( (     ",
"      / ( (   d.2 A A O.O.P.P.j Q.Q.Q.0 v.R.S.S.R.T.T.n.U.V.W.0 U.M.d.S s X.D Y             7.7.    ",
"( / / 7.( 7.( Y.Z...D H D D D D D D D D D `.`. + +u.z.r.y...r.x y.y.g.S.u. +.+Y N                   ",
"  / ( e e 7.( ( ++G ++E E E @+@+E @+@+E @+@+@+@+E `. +#+#+#+#+#+#+z.D.[.I.a $+%+c                   ",
"  7.e n n e ( 7.&+G ++++@+E @+E E .+.+E @+@+@+@+@+.+@+.+`.`..+@+`.*+y.0 }.Y.4 m y                   ",
"    , e e ,       =+-+;+;+;+;+;+;+;+;+;+E ;+;+;+E ;+;+;+;+;+;+.+;+.+>+D.,+'+y y y                   ",
"      , ,           W y %+%+%+%+%+%+%+%+%+%+%+%+%+%+%+%+%+%+%+%+%+%+%+)+%+m y y                     ",
"                  d n n y y c y y c y y c y y c c y c y c y c y y y c c y y y (                     ",
"                  , d d ,   d d                                     7.( ( , , 7.                    ",
"                    , ,     n d                                       7.7.                          ",
"                            , ,                                                                     ",
"                                                                                                    ",
"                                                                                                    ",
"                                                                                                    "};
