/* XPM */
static char * 2_xpm[] = {
"50 50 217 2",
"  	c #72751B",
". 	c #BD9842",
"+ 	c #F4E3B4",
"@ 	c #F0DB95",
"# 	c #ECD17E",
"$ 	c #E9CC73",
"% 	c #E7C86C",
"& 	c #E4C265",
"* 	c #E7C972",
"= 	c #E9CD7A",
"- 	c #E6C66C",
"; 	c #EDD492",
"> 	c #EDD5A9",
", 	c #F0DC9B",
"' 	c #EFD99A",
") 	c #EDD48A",
"! 	c #E8C96D",
"~ 	c #F4E4BB",
"{ 	c #A2783C",
"] 	c #F5E5C8",
"^ 	c #ECD183",
"/ 	c #EDD49C",
"( 	c #E8C680",
"_ 	c #E4BC8B",
": 	c #D7A567",
"< 	c #BD965D",
"[ 	c #BD9B65",
"} 	c #CFAA69",
"| 	c #D7B899",
"1 	c #F5E5C4",
"2 	c #F2E0A5",
"3 	c #F2DFAB",
"4 	c #EBCE8B",
"5 	c #7F8226",
"6 	c #636917",
"7 	c #EFD994",
"8 	c #E8C49C",
"9 	c #D99772",
"0 	c #C38254",
"a 	c #B36846",
"b 	c #A75A59",
"c 	c #975352",
"d 	c #7D3336",
"e 	c #69313D",
"f 	c #642B3C",
"g 	c #622C40",
"h 	c #844951",
"i 	c #A28165",
"j 	c #EDDBB3",
"k 	c #F1DCA2",
"l 	c #F3E1AB",
"m 	c #E0AB6E",
"n 	c #D08453",
"o 	c #787B21",
"p 	c #7F8124",
"q 	c #DBA979",
"r 	c #C87955",
"s 	c #4E3529",
"t 	c #301C13",
"u 	c #2B1313",
"v 	c #231214",
"w 	c #1E1016",
"x 	c #261A1C",
"y 	c #3C2B21",
"z 	c #A77766",
"A 	c #F0D1AF",
"B 	c #E6C475",
"C 	c #AC5144",
"D 	c #5B2321",
"E 	c #656C17",
"F 	c #E4C3A1",
"G 	c #D79756",
"H 	c #BD7D4E",
"I 	c #050707",
"J 	c #0A0909",
"K 	c #070808",
"L 	c #885855",
"M 	c #E5B390",
"N 	c #EBCE83",
"O 	c #D99B61",
"P 	c #AB4C43",
"Q 	c #9A3630",
"R 	c #5D221F",
"S 	c #140D0E",
"T 	c #B3B0A9",
"U 	c #D68977",
"V 	c #B76759",
"W 	c #8A5149",
"X 	c #A5574B",
"Y 	c #9E573C",
"Z 	c #AD5844",
"` 	c #964839",
" .	c #A4695C",
"..	c #DB9165",
"+.	c #E5BC7C",
"@.	c #E3B867",
"#.	c #9B3C34",
"$.	c #99362F",
"%.	c #A2814F",
"&.	c #77445E",
"*.	c #5A2C4A",
"=.	c #532642",
"-.	c #6A2D3B",
";.	c #7A2F35",
">.	c #A33B2F",
",.	c #421D1C",
"'.	c #D68A59",
").	c #D9974C",
"!.	c #F2DEB4",
"~.	c #B34D3A",
"{.	c #953632",
"].	c #4C2445",
"^.	c #752E37",
"/.	c #B65336",
"(.	c #943A36",
"_.	c #662A29",
":.	c #DCA94E",
"<.	c #DBA68A",
"[.	c #944945",
"}.	c #63251F",
"|.	c #3E1D29",
"1.	c #582633",
"2.	c #83342D",
"3.	c #1F0F10",
"4.	c #DA9D46",
"5.	c #DBA54A",
"6.	c #E2BC5E",
"7.	c #A54A49",
"8.	c #1A0E0D",
"9.	c #1A100E",
"0.	c #A6443A",
"a.	c #E0B55A",
"b.	c #AE4432",
"c.	c #6E322A",
"d.	c #B54E32",
"e.	c #AE5B3C",
"f.	c #B95543",
"g.	c #C25F4B",
"h.	c #773A2F",
"i.	c #DFB457",
"j.	c #C26448",
"k.	c #CA6D62",
"l.	c #855838",
"m.	c #070708",
"n.	c #EFDA8E",
"o.	c #E7CC86",
"p.	c #DAAC58",
"q.	c #D78B4C",
"r.	c #D3AA7B",
"s.	c #864A46",
"t.	c #925244",
"u.	c #7E4B3A",
"v.	c #773B45",
"w.	c #833135",
"x.	c #A44236",
"y.	c #74323A",
"z.	c #4E221D",
"A.	c #686F16",
"B.	c #DEBD73",
"C.	c #DCBC84",
"D.	c #E1CBAA",
"E.	c #7A4649",
"F.	c #742F38",
"G.	c #A23E33",
"H.	c #572827",
"I.	c #DBA46A",
"J.	c #B97359",
"K.	c #6C2A32",
"L.	c #B65B55",
"M.	c #BB6967",
"N.	c #E1B17A",
"O.	c #693737",
"P.	c #50251E",
"Q.	c #39191D",
"R.	c #34191E",
"S.	c #391C21",
"T.	c #652A34",
"U.	c #B6594C",
"V.	c #C6A740",
"W.	c #DB946C",
"X.	c #B65943",
"Y.	c #782D2C",
"Z.	c #B7563B",
"`.	c #8E3434",
" +	c #822E2B",
".+	c #D2796E",
"++	c #D88B87",
"@+	c #DA8C81",
"#+	c #DF9492",
"$+	c #DE9484",
"%+	c #DD957C",
"&+	c #53263A",
"*+	c #C77469",
"=+	c #803943",
"-+	c #5C2941",
";+	c #C77876",
">+	c #DE968A",
",+	c #783B43",
"'+	c #C56757",
")+	c #C46C66",
"!+	c #7C333A",
"~+	c #F2DCB9",
"{+	c #BB8774",
"]+	c #CC8F6B",
"^+	c #99635B",
"/+	c #973C38",
"(+	c #A56446",
"_+	c #BF6155",
":+	c #B67767",
"<+	c #966665",
"[+	c #5D3331",
"}+	c #2D1722",
"|+	c #451F29",
"1+	c #462029",
"2+	c #482028",
"3+	c #4B1F26",
"4+	c #602421",
"                                                                                                    ",
"                                                                                                    ",
"                                                                                                    ",
"                                                                                                    ",
"                                                                                                    ",
"                                                                                                    ",
"            . .     + @ # $ % & % * = = * - = # = ; ; > , ' ; ) = ! & - @ ~                         ",
"          . { { ] ] + , ^ $ % * ) ' / ( _ : < [ [ } | ] 1 + 2 , ^ $ & $ 3 + 4         5             ",
"          6 . . ] ] 1 2 7 ^ = 7 8 9 0 a b c d e f g h i | j ] ~ k = % = l ' m n   o p               ",
"            6 ] ] ] ] ~ ' ^ 4 q r a s t u u u v v v w x y z A ] ~ , $ ^ 2 B n C D o E               ",
"              8 F 8 F F _ q G n n H y I J K K J J J J I J L M > ] + N * ) O P Q R S E     T T       ",
"              U V W h c X C Y Y Z ` t K K                  ...+.~ 1 l = @.r #.$.R J       %.T       ",
"              &.*.=.*.-.;.>.#.d d ,.J J                   '.).@.!.] 1 k : ~.{.$.R J K     6 6       ",
"                ].=.f -.^.` /.(._.v K J                   ).:.- k 1 1 3 <.[.{.$.}.J J               ",
"                  |.1.1.1.2.` R 3.J K K                   4.5.6.) 3 ~ l <.7.$.$.}.S K               ",
"                    S S S 8.9.J K K K                     4.:.6.B ; 1 !.<.0.$.>.}.J K               ",
"                      J K J K J J J                       4.4.a.* = 2 k q P >.b.c.J K               ",
"                                                          5.5.a.- = ) ^ : /.d.d.c.J J               ",
"                                                          5.:.a.$ $ $ % ).e.f.g.h.J J               ",
"                                                          :.i.@.= % % & 5.j.k.k.l.J K               ",
"                                                          - & $ ^ & 6.@.:.'.U ..W J m.              ",
"        p                                                 @ ) n.o.p.p.@.O n q.q.l.S m.              ",
"          p                                               , ) r. .l.s.t.s.` C r u.J K               ",
"          o o                                             r.z v.-.-.w.>.x.{.^.y.z.J J               ",
"        A.o o     ] 1 2 ) = ! - = ^ ) ^ B.C.F F D.D.D.| z E.e f f F.w.G.f.~.{.H.J K K               ",
"      p o A.A.  ] ] ] + , ^ $ N +.I.U J.X t.t.h h E.E.E.g f f f -.K.d Q L.M.c.u J K K               ",
"      o o     ~ 1 ] 1 ] ~ , = N.r Z O.z.P.P.Q.Q.Q.Q.R.R.R.R.R.S.R.R.Q.,.T.s S K J J                 ",
"      A.A.    + ~ 1 ~ ~ ~ l ( ..V h.w K K J J I K K K J K K K I J J J K J J J J I                   ",
"              ; / / 4 N._ B 9 U.#.^.w K K K J J K J K J K J K K J I J J I J J V.6 . .           o   ",
"              9 O G W.U k.r X.#.$.Y.u K                                     6 6   { .             p ",
"              ~.~.Z.g.Z./.~.(.`.$. +u K                                           6 6             o ",
"              b.f.j.j.g.b.>.w.w.`.Y.u K         o                                                   ",
"              k..+++@+k.~.>.w.F.^.K.3.I         o o                                                 ",
"              #+$+W.W.@+k.x.;.g -.1.w I       T T o                                                 ",
"              %+W.G ).%+@+U.w.g g &+w K     T %.T A.                                    p p o       ",
"              W...'.q.W.#+*+=+-+-+&+w K     T T 6               ] + ) $ ) @               p o o     ",
"    p p       $+%+....%+$+;+=+f -+&+w K     6 6             ~ ] ] ~ 7 $ n.B '.f.          A.o o     ",
"      p o o   ++@+$+%+%+>+;+,+-+-+&+w I                     ~ ~ ] ] k ) 4 q '+C H.          A.A.    ",
"o p p A.o A.o f.U.M.*+)+;+M.,+f g T.u I                   ] 1 ~ 1 1 + ; G J.X [.H.S                 ",
"  p o T T A.o (.w.F.,+;.w.`.(.!+g K.u I                   ~+> C.q {+z J.Z !+-.f |.J                 ",
"  A.T %.%.T o f =.=.-+f f !+7.L.[.f Q.y                   I.]+^+!+y.d 0.)+U.(.d R.J K               ",
"    6 T T 6     =.=.g g f F./+L.;+b [.(+} ) / 3 3 j > C.]+^+v.*.f f ^.#.*+++_+Y.3.K J               ",
"      6 6       =.=.*.f -.-.^.(.C )+)+M.*+:+^+<+<+^+L W ,+g g g -.-.^.{.V U :+[+J K J               ",
"                  }+|+1+|+1+1+2+D _.c.K._.H.2+1+1+2+2+|+|+|+1+|+|+|+3+4+h.E.x J K K                 ",
"                  6 J J J J J S J J J J J J J J J J J J J J J J J S J S K J J K K J                 ",
"                    6 6 J K K K J J J J J J J J J J J J J J J J K K K K K K J J                     ",
"                            6 6                                                                     ",
"                                                                                                    ",
"                                                                                                    ",
"                                                                                                    "};
