/* XPM */
static char * 3_xpm[] = {
"50 50 765 2",
"  	c #72751B",
". 	c #BD9842",
"+ 	c #A2783C",
"@ 	c #BD9843",
"# 	c #868549",
"$ 	c #EAD79E",
"% 	c #EDD790",
"& 	c #E6CB7D",
"* 	c #E4C870",
"= 	c #E2C56A",
"- 	c #E0BF64",
"; 	c #E2C56F",
"> 	c #E4C878",
", 	c #E4C879",
"' 	c #E5C978",
") 	c #E2C36F",
"! 	c #E1C168",
"~ 	c #E2C66F",
"{ 	c #E5CC81",
"] 	c #E8CF8D",
"^ 	c #EAD395",
"/ 	c #EBD799",
"( 	c #EBD797",
"_ 	c #EAD38E",
": 	c #E8D088",
"< 	c #E5CA74",
"[ 	c #E3C66C",
"} 	c #E1C065",
"| 	c #E2C46E",
"1 	c #ECDAA3",
"2 	c #EFE0BE",
"3 	c #918F3E",
"4 	c #787925",
"5 	c #7F8226",
"6 	c #636917",
"7 	c #B9B08D",
"8 	c #F5E5C8",
"9 	c #F4E4BE",
"0 	c #F2E0A1",
"a 	c #EDD48A",
"b 	c #EACD77",
"c 	c #E7C86C",
"d 	c #EACD80",
"e 	c #F0DAA6",
"f 	c #F0DCA8",
"g 	c #EBCC97",
"h 	c #DDAF88",
"i 	c #D7A274",
"j 	c #BA854F",
"k 	c #AD8B59",
"l 	c #AE8F66",
"m 	c #BA9976",
"n 	c #DEBEA9",
"o 	c #F2DEC2",
"p 	c #F4E2C3",
"q 	c #F3E2B8",
"r 	c #F2DFA5",
"s 	c #EDD58E",
"t 	c #E9CC74",
"u 	c #E7C76B",
"v 	c #E9CB73",
"w 	c #F2E0AC",
"x 	c #F3E2B4",
"y 	c #EACD84",
"z 	c #BF9350",
"A 	c #787B21",
"B 	c #7F8124",
"C 	c #656B1E",
"D 	c #EADBBD",
"E 	c #F5E5C7",
"F 	c #F3E1AB",
"G 	c #EED68E",
"H 	c #EACC78",
"I 	c #EBD081",
"J 	c #F0DC9D",
"K 	c #E1B783",
"L 	c #C67B57",
"M 	c #AE6A3E",
"N 	c #9D5738",
"O 	c #843734",
"P 	c #873332",
"Q 	c #6F2B2D",
"R 	c #622A35",
"S 	c #5C2A38",
"T 	c #632D3C",
"U 	c #71424D",
"V 	c #AD7E7A",
"W 	c #E0C8A4",
"X 	c #EFDDC0",
"Y 	c #F5E5C5",
"Z 	c #F3E3AF",
"` 	c #EDD58D",
" .	c #E8C970",
"..	c #F3E3AD",
"+.	c #EED799",
"@.	c #DCA65F",
"#.	c #BA7962",
"$.	c #4B4022",
"%.	c #656C17",
"&.	c #BDB38B",
"*.	c #F4E3C4",
"=.	c #F4E2B8",
"-.	c #EED899",
";.	c #E8C879",
">.	c #E8C986",
",.	c #D49A65",
"'.	c #C46C50",
").	c #B76E42",
"!.	c #3F2C21",
"~.	c #020809",
"{.	c #060909",
"].	c #070A09",
"^.	c #0C0B0A",
"/.	c #080C09",
"(.	c #090909",
"_.	c #080908",
":.	c #000201",
"<.	c #4E342F",
"[.	c #D2A888",
"}.	c #F1DDBC",
"|.	c #F5E5C6",
"1.	c #F2E0AE",
"2.	c #EBD07E",
"3.	c #E9CB78",
"4.	c #F3E2AC",
"5.	c #E6BA7C",
"6.	c #CA7757",
"7.	c #AA463B",
"8.	c #642623",
"9.	c #494C14",
"0.	c #777A21",
"a.	c #B3B0A9",
"b.	c #AF8C5A",
"c.	c #DFA27E",
"d.	c #D49C78",
"e.	c #D69E7A",
"f.	c #D5A28B",
"g.	c #D59F75",
"h.	c #D7945B",
"i.	c #D3904E",
"j.	c #CB8249",
"k.	c #D4884C",
"l.	c #B46743",
"m.	c #331B16",
"n.	c #080808",
"o.	c #141509",
"p.	c #131508",
"q.	c #131408",
"r.	c #553733",
"s.	c #CE857A",
"t.	c #E4B883",
"u.	c #F4E0BD",
"v.	c #F5E4C5",
"w.	c #EED395",
"x.	c #E7C76F",
"y.	c #ECD28A",
"z.	c #DA9A61",
"A.	c #A84439",
"B.	c #9B362F",
"C.	c #652521",
"D.	c #060808",
"E.	c #626916",
"F.	c #A2814F",
"G.	c #9B7D57",
"H.	c #A26364",
"I.	c #6B2E41",
"J.	c #5A2C46",
"K.	c #6A313F",
"L.	c #803438",
"M.	c #9A3D38",
"N.	c #873A39",
"O.	c #79333A",
"P.	c #903D38",
"Q.	c #7C2C28",
"R.	c #1E0F0E",
"S.	c #20200A",
"T.	c #85782E",
"U.	c #D58B60",
"V.	c #DDB165",
"W.	c #F2DDAB",
"X.	c #F5E5BF",
"Y.	c #EFDA99",
"Z.	c #E0B565",
"`.	c #C27053",
" +	c #9D3931",
".+	c #9A3630",
"++	c #020708",
"@+	c #454340",
"#+	c #533943",
"$+	c #512543",
"%+	c #5F2A3F",
"&+	c #662C3C",
"*+	c #7E3136",
"=+	c #A63F30",
"-+	c #AB4737",
";+	c #873334",
">+	c #732E35",
",+	c #301818",
"'+	c #040706",
")+	c #887C26",
"!+	c #DA9E4B",
"~+	c #E0BA61",
"{+	c #EFD997",
"]+	c #F5E5C3",
"^+	c #F4E3B8",
"/+	c #E0B575",
"(+	c #AA533C",
"_+	c #973531",
":+	c #9B3630",
"<+	c #070909",
"[+	c #40321E",
"}+	c #71731D",
"|+	c #58393A",
"1+	c #602A3C",
"2+	c #642C3B",
"3+	c #732E37",
"4+	c #9D3D33",
"5+	c #B4523A",
"6+	c #8C3930",
"7+	c #501D1B",
"8+	c #0F0909",
"9+	c #3D3F0F",
"0+	c #877B24",
"a+	c #D89D46",
"b+	c #E0B459",
"c+	c #ECD283",
"d+	c #F4E4BD",
"e+	c #E3B993",
"f+	c #9A5252",
"g+	c #96342E",
"h+	c #9F3931",
"i+	c #6B2722",
"j+	c #050808",
"k+	c #484643",
"l+	c #6D701B",
"m+	c #423122",
"n+	c #381920",
"o+	c #3A1920",
"p+	c #541F1C",
"q+	c #662F22",
"r+	c #301717",
"s+	c #010707",
"t+	c #6D701A",
"u+	c #867A24",
"v+	c #D79B45",
"w+	c #DEAD52",
"x+	c #F1DD9F",
"y+	c #A25352",
"z+	c #A23A2F",
"A+	c #26280B",
"B+	c #70731B",
"C+	c #30320C",
"D+	c #181809",
"E+	c #090808",
"F+	c #2F300C",
"G+	c #585B15",
"H+	c #887C25",
"I+	c #DA9E46",
"J+	c #DDAB4F",
"K+	c #E8C870",
"L+	c #EBCD87",
"M+	c #F4E4BB",
"N+	c #F4E3BD",
"O+	c #E3B98F",
"P+	c #A9544D",
"Q+	c #A43B2E",
"R+	c #AA3F2F",
"S+	c #702923",
"T+	c #2C2D0C",
"U+	c #616317",
"V+	c #595C15",
"W+	c #595B15",
"X+	c #897D26",
"Y+	c #DBA349",
"Z+	c #E5C369",
"`+	c #EACD78",
" @	c #F1DDA2",
".@	c #F3E3AE",
"+@	c #E4B87F",
"@@	c #B3594B",
"#@	c #AB412F",
"$@	c #B44E35",
"%@	c #7B3127",
"&@	c #020707",
"*@	c #887D25",
"=@	c #DAA047",
"-@	c #E7C56C",
";@	c #E8C973",
">@	c #EDD38A",
",@	c #EDD48C",
"'@	c #DFB26F",
")@	c #BA5D44",
"!@	c #B6523F",
"~@	c #C16449",
"{@	c #88423D",
"]@	c #000808",
"^@	c #897E26",
"/@	c #DBA64B",
"(@	c #DFB256",
"_@	c #E8C873",
":@	c #E7C774",
"<@	c #E8C971",
"[@	c #E8C96F",
"}@	c #DEAD5A",
"|@	c #CD7259",
"1@	c #D4817C",
"2@	c #D7867D",
"3@	c #905853",
"4@	c #000606",
"5@	c #8B842F",
"6@	c #E4BE63",
"7@	c #E5C266",
"8@	c #EACD76",
"9@	c #E8CA6F",
"0@	c #E5C064",
"a@	c #E5C265",
"b@	c #E0AE5F",
"c@	c #DB9064",
"d@	c #DB9168",
"e@	c #DC966A",
"f@	c #9B6346",
"g@	c #000306",
"h@	c #8E8A3F",
"i@	c #EDD588",
"j@	c #EACE7F",
"k@	c #E9CB76",
"l@	c #E4BF62",
"m@	c #E4BF63",
"n@	c #D79A58",
"o@	c #D38861",
"p@	c #D68C52",
"q@	c #D79046",
"r@	c #905F33",
"s@	c #000508",
"t@	c #8F8D47",
"u@	c #F2E19F",
"v@	c #F0DB95",
"w@	c #F0DB93",
"x@	c #E6C66C",
"y@	c #E6C56C",
"z@	c #E6C274",
"A@	c #BA735A",
"B@	c #A24D47",
"C@	c #B4553E",
"D@	c #C86E56",
"E@	c #8A5A4F",
"F@	c #000506",
"G@	c #8E8C53",
"H@	c #ABA578",
"I@	c #ACA57B",
"J@	c #ACA578",
"K@	c #ABA472",
"L@	c #ABA57A",
"M@	c #B9B082",
"N@	c #F3E3A8",
"O@	c #F3E3A3",
"P@	c #F1DF9F",
"Q@	c #E7C873",
"R@	c #E9CB77",
"S@	c #D39F61",
"T@	c #A34538",
"U@	c #973630",
"V@	c #9B3932",
"W@	c #863230",
"X@	c #201110",
"Y@	c #686F16",
"Z@	c #B5A973",
"`@	c #EDD7A6",
" #	c #EAD5AA",
".#	c #E9D2AA",
"+#	c #ECDABA",
"@#	c #EBD7B7",
"##	c #ECD7B0",
"$#	c #E9D7AB",
"%#	c #EED8A6",
"&#	c #F1DCA8",
"*#	c #F3E2A9",
"=#	c #EFD993",
"-#	c #E9CA7C",
";#	c #DE9C6A",
">#	c #CD7E6E",
",#	c #CA7C6C",
"'#	c #BB7572",
")#	c #653733",
"!#	c #0E0A09",
"~#	c #2D2E0C",
"{#	c #82632E",
"]#	c #823F41",
"^#	c #6E3B47",
"/#	c #6F3C47",
"(#	c #6F3C48",
"_#	c #733D45",
":#	c #6E3B44",
"<#	c #853D40",
"[#	c #A5554C",
"}#	c #C47B6B",
"|#	c #CE835D",
"1#	c #D18E53",
"2#	c #DFB05E",
"3#	c #DC985B",
"4#	c #DC9465",
"5#	c #B77751",
"6#	c #30231E",
"7#	c #0B0A0B",
"8#	c #070808",
"9#	c #6F721A",
"0#	c #716F22",
"a#	c #3E2C25",
"b#	c #311622",
"c#	c #361823",
"d#	c #381822",
"e#	c #381820",
"f#	c #321723",
"g#	c #401D26",
"h#	c #652F3E",
"i#	c #733039",
"j#	c #8D3735",
"k#	c #AE4F41",
"l#	c #D38C5B",
"m#	c #DA9356",
"n#	c #DC9371",
"o#	c #CD8570",
"p#	c #965047",
"q#	c #45221E",
"r#	c #4C4E12",
"s#	c #71741B",
"t#	c #25260B",
"u#	c #060707",
"v#	c #241217",
"w#	c #612A35",
"x#	c #752E35",
"y#	c #943431",
"z#	c #9D3B33",
"A#	c #C16B4C",
"B#	c #DCA85C",
"C#	c #D4875E",
"D#	c #B75645",
"E#	c #A44034",
"F#	c #8C352B",
"G#	c #966E37",
"H#	c #C5A640",
"I#	c #6B6E19",
"J#	c #5C571D",
"K#	c #712E35",
"L#	c #833134",
"M#	c #943430",
"N#	c #96352F",
"O#	c #B1584B",
"P#	c #DFB468",
"Q#	c #DDA865",
"R#	c #B95E47",
"S#	c #9A3831",
"T#	c #99392E",
"U#	c #663820",
"V#	c #595F15",
"W#	c #766E20",
"X#	c #903432",
"Y#	c #8F3432",
"Z#	c #A0392F",
"`#	c #A33B2F",
" $	c #9B3C31",
".$	c #CB8961",
"+$	c #E4C07B",
"@$	c #D59374",
"#$	c #BA6255",
"$$	c #C36758",
"%$	c #894541",
"&$	c #0D1309",
"*$	c #9F763B",
"=$	c #717427",
"-$	c #6F6F3F",
";$	c #7A6F1F",
">$	c #9F3830",
",$	c #B14A37",
"'$	c #B14C35",
")$	c #9F3A30",
"!$	c #A14334",
"~$	c #BA6D44",
"{$	c #C57860",
"]$	c #D4837D",
"^$	c #E09690",
"/$	c #93615F",
"($	c #000404",
"_$	c #4A4F11",
":$	c #72751E",
"<$	c #717425",
"[$	c #6D6B4A",
"}$	c #6D6B4B",
"|$	c #6D6C48",
"1$	c #7E7020",
"2$	c #B14933",
"3$	c #B95741",
"4$	c #CE7973",
"5$	c #C96E65",
"6$	c #AC4535",
"7$	c #973631",
"8$	c #873335",
"9$	c #7E3338",
"0$	c #934343",
"a$	c #A24C4A",
"b$	c #6D3236",
"c$	c #030708",
"d$	c #827328",
"e$	c #C46553",
"f$	c #D37F77",
"g$	c #E0968F",
"h$	c #D78985",
"i$	c #BB5847",
"j$	c #A63E31",
"k$	c #833135",
"l$	c #682D3C",
"m$	c #6C2D39",
"n$	c #6E2E39",
"o$	c #4B2126",
"p$	c #0A0909",
"q$	c #89793E",
"r$	c #DC8F8C",
"s$	c #DC9288",
"t$	c #DC9468",
"u$	c #D98D64",
"v$	c #C56757",
"w$	c #B14833",
"x$	c #8C3635",
"y$	c #632B3F",
"z$	c #642C3D",
"A$	c #632C3F",
"B$	c #451F29",
"C$	c #080909",
"D$	c #A29C6F",
"E$	c #AAA167",
"F$	c #A6994E",
"G$	c #A49646",
"H$	c #A9A05B",
"I$	c #897A35",
"J$	c #DC9472",
"K$	c #DC9471",
"L$	c #DB9560",
"M$	c #DB9264",
"N$	c #CF7D71",
"O$	c #B85442",
"P$	c #8E3633",
"Q$	c #622B3E",
"R$	c #5F2B40",
"S$	c #612B40",
"T$	c #431F2F",
"U$	c #060807",
"V$	c #7A7B31",
"W$	c #DFD2B2",
"X$	c #F2E2C5",
"Y$	c #F3E0AB",
"Z$	c #ECD281",
"`$	c #F1DE97",
" %	c #D3B76B",
".%	c #9B8036",
"+%	c #897A33",
"@%	c #DC936E",
"#%	c #DC936D",
"$%	c #DC936F",
"%%	c #DF9588",
"&%	c #DB8E8D",
"*%	c #C4685A",
"=%	c #8F3936",
"-%	c #5E2A3E",
";%	c #5E2A41",
">%	c #401E2C",
",%	c #050807",
"'%	c #E7D8AA",
")%	c #F5E5C4",
"!%	c #F4E3B9",
"~%	c #EDD48B",
"{%	c #ECD383",
"]%	c #EED690",
"^%	c #D79960",
"/%	c #B7533C",
"(%	c #76691E",
"_%	c #88792A",
":%	c #DA905F",
"<%	c #DB9269",
"[%	c #DE958B",
"}%	c #E1979B",
"|%	c #D07F7D",
"1%	c #8E3F3E",
"2%	c #672C3B",
"3%	c #622C3F",
"4%	c #401D2B",
"5%	c #A49841",
"6%	c #EDD69C",
"7%	c #F3E1B8",
"8%	c #F3E1BA",
"9%	c #F3E0C1",
"0%	c #F3E1B3",
"a%	c #EED795",
"b%	c #E2B66F",
"c%	c #D98F6E",
"d%	c #CC7773",
"e%	c #A3574C",
"f%	c #6A6622",
"g%	c #887A2A",
"h%	c #D78F4B",
"i%	c #D78E4D",
"j%	c #DB9365",
"k%	c #DC9380",
"l%	c #DA9095",
"m%	c #903A3B",
"n%	c #6A2D3A",
"o%	c #682C3C",
"p%	c #441F2A",
"q%	c #080809",
"r%	c #AD8643",
"s%	c #D69353",
"t%	c #D19052",
"u%	c #D18D55",
"v%	c #C89456",
"w%	c #CFAB6B",
"x%	c #DBC295",
"y%	c #D4B173",
"z%	c #C0894E",
"A%	c #CE8676",
"B%	c #C4817C",
"C%	c #3A221B",
"D%	c #877827",
"E%	c #D68C49",
"F%	c #D68C47",
"G%	c #CC825F",
"H%	c #B15F51",
"I%	c #9D3E3A",
"J%	c #9F413D",
"K%	c #9E3B34",
"L%	c #722E39",
"M%	c #6D2D3A",
"N%	c #472028",
"O%	c #91714A",
"P%	c #9B5856",
"Q%	c #80343C",
"R%	c #752D3C",
"S%	c #6D2C3C",
"T%	c #6A2D3E",
"U%	c #803136",
"V%	c #9F4138",
"W%	c #8C3D3A",
"X%	c #8D474B",
"Y%	c #9F5D4E",
"Z%	c #351B16",
"`%	c #4A4D14",
" &	c #867B2A",
".&	c #D69257",
"+&	c #B36847",
"@&	c #82393F",
"#&	c #6C2E3C",
"$&	c #7E3035",
"%&	c #A5463E",
"&&	c #C9726B",
"*&	c #B5564B",
"=&	c #9C3832",
"-&	c #863235",
";&	c #512225",
">&	c #070809",
",&	c #696F17",
"'&	c #59383F",
")&	c #542642",
"!&	c #5B2941",
"~&	c #692D3B",
"{&	c #712E39",
"]&	c #9D4238",
"^&	c #C2675E",
"/&	c #AC554F",
"(&	c #8B3C3C",
"_&	c #835043",
":&	c #BE8A4A",
"<&	c #DDB869",
"[&	c #E8D089",
"}&	c #EBD794",
"|&	c #ECDCA0",
"1&	c #ECDCAC",
"2&	c #EDDDBA",
"3&	c #EAD3AD",
"4&	c #D9BA7D",
"5&	c #BF7E45",
"6&	c #90473E",
"7&	c #632D40",
"8&	c #612B3D",
"9&	c #752F36",
"0&	c #993B35",
"a&	c #CB756B",
"b&	c #D58782",
"c&	c #B95847",
"d&	c #89322B",
"e&	c #22100F",
"f&	c #635B34",
"g&	c #532641",
"h&	c #5D2A40",
"i&	c #622B3D",
"j&	c #6C2D3A",
"k&	c #772F36",
"l&	c #9A3F3B",
"m&	c #BE6761",
"n&	c #C76F63",
"o&	c #BE6F6C",
"p&	c #B47068",
"q&	c #CD9771",
"r&	c #C4A283",
"s&	c #BC9F88",
"t&	c #BB9F8C",
"u&	c #B89B82",
"v&	c #AC7C5A",
"w&	c #955D43",
"x&	c #6A2E3D",
"y&	c #5D2A3F",
"z&	c #6B2D3A",
"A&	c #742E36",
"B&	c #BE6257",
"C&	c #D98D82",
"D&	c #CA7F7D",
"E&	c #793B36",
"F&	c #130A0A",
"G&	c #292A0B",
"H&	c #605D23",
"I&	c #512839",
"J&	c #562637",
"K&	c #5D2836",
"L&	c #5E2835",
"M&	c #622934",
"N&	c #6C2B32",
"O&	c #782F34",
"P&	c #964542",
"Q&	c #954540",
"R&	c #843736",
"S&	c #692D35",
"T&	c #612B36",
"U&	c #622B36",
"V&	c #612B38",
"W&	c #5E2A38",
"X&	c #5C2937",
"Y&	c #5C2837",
"Z&	c #5B283A",
"`&	c #5B2838",
" *	c #5C2835",
".*	c #612934",
"+*	c #652A33",
"@*	c #7E2D2D",
"#*	c #A14838",
"$*	c #A3655F",
"%*	c #523735",
"&*	c #201515",
"**	c #9CA8AD",
"=*	c #79603A",
"-*	c #090A09",
";*	c #070908",
">*	c #060A09",
",*	c #050909",
"'*	c #090C09",
")*	c #0C0A09",
"!*	c #090A0A",
"~*	c #010A0A",
"{*	c #000708",
"]*	c #3A3B0E",
"^*	c #909BA0",
"/*	c #32350D",
"(*	c #1C1E1F",
"_*	c #131509",
":*	c #121309",
"<*	c #151609",
"[*	c #111209",
"}*	c #101108",
"|*	c #5F6514",
"                                                                                                    ",
"                                                                                                    ",
"                                                                                                    ",
"                                                                                                    ",
"                                                                                                    ",
"                                                                                                    ",
"            . .                                                                                     ",
"          . + + @ # $ % & * = - ; > , ' ) ! ~ ~ { ] ^ / ( _ : < [ } | 1 2 3 4         5             ",
"          6 . . 7 8 9 0 a b c d e f g h i j k k l m n o p q r s t u v w x y z A   A B               ",
"            6 C D 8 E F G H I J K L M N O P Q R S T U V W X Y Z `  .t ..+.@.#.$.A A %.              ",
"              &.*.*.*.=.-.;.>.,.'.).!.~.{.].^./.(.(._.:.<.[.}.|.1.2.3.4.5.6.7.8.9.0.%.    a.a.      ",
"              b.c.d.e.f.g.h.i.j.k.l.m.n.o.o.p.o.o.o.o.q.r.s.t.u.v.w.x.y.z.A.B.C.D.E.      F.a.      ",
"              G.H.I.J.K.L.M.N.O.P.Q.R.S.                T.U.V.W.E X.Y.Z.`. +.+C.++@+a.    6 6       ",
"                #+$+%+&+*+=+-+;+>+,+'+S.                )+!+~+{+]+8 ^+/+(+_+:+C.<+[+a.              ",
"                }+|+1+2+3+4+5+6+7+8+n.9+                0+a+b+c+d+8 d+e+f+g+h+i+j+k+6               ",
"                  l+m+n+o+p+q+r+s+n.n.t+                u+v+w+x.x+]+^+e+y+g+z+i+j+A+                ",
"                    B+C+D+E+E+n.n.F+G+                  H+I+J+K+L+M+N+O+P+Q+R+S+{.T+                ",
"                        U+V+V+V+W+                      X+Y+J+Z+`+ @.@+@@@#@$@%@&@T+                ",
"                                                        *@=@J+-@;@>@,@'@)@!@~@{@]@T+                ",
"                                                        ^@/@(@_@:@<@[@}@|@1@2@3@4@T+                ",
"                                                        5@6@7@8@9@0@a@b@c@d@e@f@g@T+                ",
"        B                                               h@i@j@G k@l@m@n@o@p@q@r@s@T+                ",
"          B                                             t@u@v@w@x@y@z@A@B@C@D@E@F@T+                ",
"          A A                           G@H@I@J@K@K@L@J@M@N@O@P@Q@R@S@T@U@V@W@X@D.T+                ",
"        Y@A A                           Z@`@ #.#+#@###$#%#&#*#=#z@-#;#>#,#'#)#!#n.~#                ",
"      B A Y@Y@                          {#]#^#/#(#_#^#:#<#[#}#|#1#2#3#4#5#6#7#8#n.9#                ",
"      A A                               0#a#b#c#d#e#b#f#g#h#i#j#k#l#m#n#o#p#q#n.r#s#                ",
"      Y@Y@                                9#t#n.n.n.n.u#v#w#x#y#z#A#B#C#D#E#F#G#H#                  ",
"                                            I#W+V+V+V+V+J#K#L#M#N#O#P#Q#R#S#T#U#V#. .           A   ",
"                                                        W#X#Y#Z#`# $.$+$@$#$$$%$&$*$.             B ",
"=$-$                                                    ;$>$`#,$'$)$!$~${$]$^$/$($_$6             A ",
":$<$[$}$}$}$|$                                  A       1$2$3$4$5$6$7$8$9$0$a$b$c$T+                ",
"                                                A A     d$e$f$g$h$i$j$k$l$m$n$o$p$T+                ",
"                                              a.a.A     q$r$s$t$u$v$w$x$y$z$A$B$C$T+                ",
"                    D$E$F$G$H$              a.F.a.Y@    I$J$K$L$M$N$O$P$Q$R$S$T$U$T+    B B A       ",
"                V$W$X$Y$Z$b `$ %.%          a.a.6       +%@%#%$%%%&%*%=%&+-%;%>%,%T+      B A A     ",
"    B B         '%)%E !%~%{%]%^%/%(%        6 6         _%:%<%$%[%}%|%1%2%z$3%4%U$T+      Y@A A     ",
"      B A A   5%6%7%8%9%0%a%b%c%d%e%f%                  g%h%i%j%k%l%|%m%n%o%l$p%q%T+        Y@Y@    ",
"A B B Y@A Y@A r%s%t%u%v%w%x%y%z%A%B%C%t+                D%E%F%G%H%I%J%K%8$L%M%N%q%T+                ",
"  B A a.a.Y@A O%P%Q%R%S%T%U%V%W%X%Y%Z%`%                 &.&+&@&#&$&%&&&*&=&-&;&>&T+                ",
"  Y@a.F.F.a.A ,&'&)&!&z$~&{&]&^&/&(&_&:&<&[&}&|&1&2&3&4&5&6&7&8&n%9&0&a&b&c&d&e&8#T+                ",
"    6 a.a.6     f&g&h&i&~&j&k&l&m&n&o&p&q&r&s&t&t&u&v&w&x&y&8&&+z&A&X#B&C&D&E&F&8#G&                ",
"      6 6         H&I&J&K&L&M&N&O&(&P&Q&R&S&T&U&V&W&X&Y&Z&`& * *.*+*@*#*$*%*&*8#n.I#                ",
"                  **=*p$(.(.C$<+-*;*>*,*{.(.(.(.(.(.'*)*(.(.(.(.(.)*!*~*{*u#n.n.]*s#                ",
"                  6 **^*/*o.(*(*o._*o.o.o.o.o.o.o.o.o.o.o.o.o.o.o.o.:*<*<*[*}*|*9#                  ",
"                    6 6     F.**                                      Y@Y@                          ",
"                            6 6                                                                     ",
"                                                                                                    ",
"                                                                                                    ",
"                                                                                                    "};
