/* XPM */
static char * 4_xpm[] = {
"50 50 194 2",
"  	c #72751B",
". 	c #BD9842",
"+ 	c #F3E2AD",
"@ 	c #EFD88F",
"# 	c #E8CB73",
"$ 	c #EBCE83",
"% 	c #F2DEB1",
"& 	c #F2E1A4",
"* 	c #EDD58B",
"= 	c #F4E4BB",
"- 	c #A2783C",
"; 	c #F5E5C8",
"> 	c #F0DA96",
", 	c #F4E2B4",
"' 	c #F5E5C4",
") 	c #E7C370",
"! 	c #7F8226",
"~ 	c #636917",
"{ 	c #EBD07D",
"] 	c #ECD284",
"^ 	c #EFD895",
"/ 	c #E2AE67",
"( 	c #B97853",
"_ 	c #D59967",
": 	c #AB7055",
"< 	c #787B21",
"[ 	c #7F8124",
"} 	c #E6C478",
"| 	c #D28A6B",
"1 	c #AC524A",
"2 	c #482029",
"3 	c #F1DBA3",
"4 	c #F1DC9C",
"5 	c #CB775A",
"6 	c #9D433B",
"7 	c #3B191A",
"8 	c #656C17",
"9 	c #EED690",
"0 	c #9A3630",
"a 	c #56201D",
"b 	c #060808",
"c 	c #A54339",
"d 	c #953531",
"e 	c #431B17",
"f 	c #050707",
"g 	c #B3B0A9",
"h 	c #E5BE6E",
"i 	c #9D382F",
"j 	c #E4B975",
"k 	c #B66554",
"l 	c #9A362F",
"m 	c #96342F",
"n 	c #A2814F",
"o 	c #EFD99F",
"p 	c #D7A050",
"q 	c #AE503C",
"r 	c #080808",
"s 	c #EAC785",
"t 	c #D6934F",
"u 	c #DEB353",
"v 	c #E1BA5D",
"w 	c #9C3A33",
"x 	c #E0B558",
"y 	c #E5C365",
"z 	c #EED499",
"A 	c #CB8254",
"B 	c #DBA349",
"C 	c #E6C56A",
"D 	c #DE9686",
"E 	c #933B3A",
"F 	c #070807",
"G 	c #F2DCAB",
"H 	c #C88778",
"I 	c #DCA94D",
"J 	c #E3BE64",
"K 	c #D39D78",
"L 	c #92463E",
"M 	c #A43A2E",
"N 	c #62271E",
"O 	c #DCAC53",
"P 	c #DA9E47",
"Q 	c #AA3E2F",
"R 	c #CA846C",
"S 	c #4B1E1B",
"T 	c #EACE7C",
"U 	c #D59A59",
"V 	c #AC4331",
"W 	c #B55133",
"X 	c #652E1F",
"Y 	c #A14236",
"Z 	c #AF4833",
"` 	c #B24C33",
" .	c #4D2319",
"..	c #E7C86C",
"+.	c #D18955",
"@.	c #B04633",
"#.	c #DDBB65",
"$.	c #E8C96D",
"%.	c #CF8547",
"&.	c #B34D3D",
"*.	c #C25F4C",
"=.	c #552C23",
"-.	c #B95C38",
";.	c #672923",
">.	c #D08D48",
",.	c #C4664C",
"'.	c #CE6F65",
").	c #D27C75",
"!.	c #593A37",
"~.	c #DBA47B",
"{.	c #C5885C",
"].	c #DCAC61",
"^.	c #BE6247",
"/.	c #CD7366",
"(.	c #D68677",
"_.	c #E0979B",
":.	c #7C424C",
"<.	c #713748",
"[.	c #6C2D3A",
"}.	c #642B3D",
"|.	c #7B4444",
"1.	c #814744",
"2.	c #CC7768",
"3.	c #F3E29F",
"4.	c #DD947C",
"5.	c #DC9477",
"6.	c #5C3F35",
"7.	c #572843",
"8.	c #532643",
"9.	c #622A36",
"0.	c #752E37",
"a.	c #A85B57",
"b.	c #884739",
"c.	c #5B231D",
"d.	c #7C5C37",
"e.	c #DDA45C",
"f.	c #DA9264",
"g.	c #5B3E2C",
"h.	c #686F16",
"i.	c #4E2545",
"j.	c #5E2A3E",
"k.	c #8B3233",
"l.	c #AB4A3A",
"m.	c #BA5E58",
"n.	c #9D5042",
"o.	c #AA4B42",
"p.	c #E5C892",
"q.	c #E2C99C",
"r.	c #E4CDA6",
"s.	c #E4CFB0",
"t.	c #E6D1A2",
"u.	c #DA925C",
"v.	c #4B2237",
"w.	c #B55344",
"x.	c #984541",
"y.	c #834549",
"z.	c #734149",
"A.	c #B56F64",
"B.	c #D98F59",
"C.	c #2C1521",
"D.	c #381B25",
"E.	c #32171B",
"F.	c #35191D",
"G.	c #722E39",
"H.	c #843134",
"I.	c #B8564A",
"J.	c #D7886B",
"K.	c #5D403F",
"L.	c #160E11",
"M.	c #55263A",
"N.	c #DD946E",
"O.	c #291316",
"P.	c #B85B52",
"Q.	c #7C3036",
"R.	c #BE5C4C",
"S.	c #C26351",
"T.	c #C8695B",
"U.	c #DA8A83",
"V.	c #D98B8C",
"W.	c #DF978B",
"X.	c #5C2940",
"Y.	c #2B161E",
"Z.	c #DE969A",
"`.	c #D68684",
" +	c #D68A8A",
".+	c #A24C43",
"++	c #792F37",
"@+	c #A33E34",
"#+	c #AE5141",
"$+	c #D78884",
"%+	c #9CA8AD",
"&+	c #983C38",
"*+	c #A36662",
"=+	c #181313",
"                                                                                                    ",
"                                                                                                    ",
"                                                                                                    ",
"                                                                                                    ",
"                                                                                                    ",
"                                                                                                    ",
"            . .   + @ # $ %                                     & * # * =                           ",
"          . - ; ; = > # $ , , $                             ; ' + @ # * = + )         !             ",
"          ~ . ; ; ' & { ] , ^ / (                           ; ; = > # ^ = $ _ :   < [               ",
"            ; ; ; ' , * ] + } | 1 2                       ; ; ; ' 3 $ 4 , / 5 6 7 < 8               ",
"            ; ; ; ; = 9 { @ _ 1 0 a b                     ; ; ; ; , $ @ ] 5 c d e f 8     g g       ",
"            = ' ; ; ' + { h 5 i 0 a b                     = ' ; ' ' > } j k l m e f       n g       ",
"            $ @ % ' ; ' o p q l 0 a b r                   $ > , ; ' , s t c m d 7 f r     ~ ~       ",
"            u v $ = ; ; + _ 6 m w a b r                   x y @ ' ; ; z A 0 i m e f r               ",
"            B u C 4 ' ; , D E m i a F F                   B u # , ' ; G H E i m e f r               ",
"            B I J ] G ; + K L m M N F F                   B O C ^ = ; G H 0 i M e F r               ",
"            P B v # ^ ' + _ 6 M Q N F F                   P I J ] % ; G R w M Q S f r               ",
"            P B u # T 4 4 U V V W X F r                   B I J T 4 ' 3 | Y Z `  .f r               ",
"            P B u T ..{ T U ` ` W X r r                   B I J { * 4 * +.@.W W  .f F               ",
"            P B #.# y ....B W ` W X F r                   u u C { { ] $.%.&.*.*.=.F r               ",
"            x x ..T #.y y O -.` V ;.F r                   y y # { $.# y >.,.'.).!.f r               ",
"        [   ~._ ( ( {.].#.p ^.Z w S F r                   @ ] * { y $.y t /.(._.!.f r               ",
"          [ :.<.[.}.<.|.1.L q 2.1 S f f                   & 3.3.{ y $.$._ 4.5.5.6.f r               ",
"          < 7.8.8.7.}.9.0.d c a.k b.c.d.                ' , 3.3.{ ..{ { e.f.f.f.g.f r               ",
"        h.< < i.7.j.}.[.[.k.l.m.1 n.o.+.} p.q.q.r.s.t.t.t.z 4 4 ..v { { e.u.u.f.g.f F               ",
"      [ < h.h.  v.j.}.[.[.0.k.Y w.m.o.@.c x.y.y.:.:.z.<.1.n.A.R 5 u./ e.u.u.B.B.g.f F               ",
"      < <         C.D.E.F.F.7 7 S  .S S S 7 7 F.D.E.C.C.D.9.G.H.w I.k ,.J.J.u.f.K.f r               ",
"      h.h.          f f F F F F b b r b b b b b f f r f L.M.G.k.d d m M &.5 N.f.g.f r               ",
"                        r r r r r r r r r b r r f r r f O.9.G.k.0 d k.H.k.P.(.(.K.f r           <   ",
"                                                          H.H.0 M 0 d 0.0.w &.*.=.f r             [ ",
"                                                          i i M @.Q 0 Q.[.H.i i 7 f r             < ",
"                                                <         V @.R.S.` M k.[.0.Q.k.7 f r               ",
"                                                < <       *.T.U.U.S.Q d [.9.[.G.F.F r               ",
"                                              g g <       (.V.W.N./.@.i [.}.}.}.E.F r               ",
"                                            g n g h.      D D 5.4.(.&.M G.X.}.j.Y.f r   [ [ <       ",
"                                            g g ~         4.4.D _.V.'.o.0.j.7.j.Y.F r     [ < <     ",
"    [ [           [                         ~ ~           _.Z._.Z.Z.`.1 0.}.}.}.Y.f r     h.< <     ",
"      [ < <   < [                                         V. + + + +`.1 0.}.}.}.Y.f r       h.h.    ",
"< [ [ h.< h.< < h.                                        w.&.c 6 .+.+w H.G.9.9.Y.F r               ",
"  [ < g g h.< < h.  [ [       [                           k.Q.[.}.}.++@+l.d ++[.E.f r               ",
"  h.g n n g < h.      [ [   [                             }.7.8.7.}.Q.#+2.I.i H.O.r r               ",
"    ~ g g ~           < < h.<                               8.8.X.}.0..+U.$+I.X r r r               ",
"      ~ ~           %+%+< h.h.                              i.M.X.}.[.&+2. +*+F.r r                 ",
"                  %+n n %+                                    C.2 2 2 ;.b.K.=+r r r                 ",
"                  ~ %+%+~   %+%+                                r r r r r r r r r                   ",
"                    ~ ~     n %+                                    r r r r r r                     ",
"                            ~ ~                                                                     ",
"                                                                                                    ",
"                                                                                                    ",
"                                                                                                    "};
