/* XPM */
static char * 5_xpm[] = {
"50 50 210 2",
"  	c #72751B",
". 	c #BD9842",
"+ 	c #A2783C",
"@ 	c #F4E2B3",
"# 	c #F0DB96",
"$ 	c #EBD17E",
"% 	c #E8CA6D",
"& 	c #E6C66B",
"* 	c #EFD99B",
"= 	c #F3E1AB",
"- 	c #F1DDA3",
"; 	c #ECD384",
"> 	c #E8C76A",
", 	c #E5C465",
"' 	c #E5BB8B",
") 	c #CC824B",
"! 	c #7F8226",
"~ 	c #636917",
"{ 	c #F5E5C8",
"] 	c #F4E4BB",
"^ 	c #F2E2A3",
"/ 	c #E8CB72",
"( 	c #EDD48C",
"_ 	c #EDD19B",
": 	c #E3B098",
"< 	c #D7A486",
"[ 	c #AD7D54",
"} 	c #A1744E",
"| 	c #A27550",
"1 	c #A47855",
"2 	c #BC8B64",
"3 	c #DAA668",
"4 	c #DB9372",
"5 	c #BB594A",
"6 	c #4A241D",
"7 	c #787B21",
"8 	c #7F8124",
"9 	c #EED3A4",
"0 	c #D18D63",
"a 	c #AB5D3D",
"b 	c #854036",
"c 	c #863B34",
"d 	c #742D2B",
"e 	c #6B282C",
"f 	c #67262D",
"g 	c #7C312B",
"h 	c #944D37",
"i 	c #070808",
"j 	c #656C17",
"k 	c #EFD992",
"l 	c #E9CA99",
"m 	c #CC7867",
"n 	c #B75443",
"o 	c #5A2F27",
"p 	c #0A0909",
"q 	c #110B0A",
"r 	c #B3B0A9",
"s 	c #F5E5C4",
"t 	c #E7C872",
"u 	c #C98568",
"v 	c #A6412F",
"w 	c #C46553",
"x 	c #674537",
"y 	c #A2814F",
"z 	c #D9A456",
"A 	c #A94835",
"B 	c #9E392E",
"C 	c #563732",
"D 	c #9CA8AD",
"E 	c #D89866",
"F 	c #9C3B34",
"G 	c #99362F",
"H 	c #A93D2F",
"I 	c #52231A",
"J 	c #DBA64B",
"K 	c #DEB154",
"L 	c #DD9584",
"M 	c #934543",
"N 	c #97352D",
"O 	c #4C1E19",
"P 	c #DA9E46",
"Q 	c #DFB65E",
"R 	c #9B4442",
"S 	c #EACD7C",
"T 	c #DC987A",
"U 	c #A3443A",
"V 	c #A33A2E",
"W 	c #B14B33",
"X 	c #DEAE52",
"Y 	c #E7C86C",
"Z 	c #F1DC9C",
"` 	c #B65133",
" .	c #55281B",
"..	c #EED98B",
"+.	c #D6994F",
"@.	c #E3BD60",
"#.	c #EBD172",
"$.	c #AB4333",
"%.	c #E1AD7A",
"&.	c #D5A679",
"*.	c #CC9159",
"=.	c #D39351",
"-.	c #B95A38",
";.	c #963934",
">.	c #431B17",
",.	c #984B47",
"'.	c #8C5451",
").	c #7B434C",
"!.	c #722E39",
"~.	c #773737",
"{.	c #884843",
"].	c #895A49",
"^.	c #A36648",
"/.	c #BB6858",
"(.	c #3D1A1A",
"_.	c #060707",
":.	c #532543",
"<.	c #5C2940",
"[.	c #6A2D3A",
"}.	c #7B2E36",
"|.	c #9D423A",
"1.	c #AB5643",
"2.	c #B2624B",
"3.	c #846943",
"4.	c #686F16",
"5.	c #572843",
"6.	c #8D3332",
"7.	c #B45A4F",
"8.	c #AD4E49",
"9.	c #A24E46",
"0.	c #DA935B",
"a.	c #E2BD7C",
"b.	c #E6C589",
"c.	c #E2C89B",
"d.	c #E0AC6A",
"e.	c #562739",
"f.	c #752F36",
"g.	c #B24B3D",
"h.	c #94453F",
"i.	c #9F6E58",
"j.	c #CDA683",
"k.	c #ECD2AE",
"l.	c #CA7D5F",
"m.	c #2B151B",
"n.	c #33171A",
"o.	c #371718",
"p.	c #461C19",
"q.	c #332525",
"r.	c #F3DFB3",
"s.	c #EED593",
"t.	c #CB855A",
"u.	c #411E29",
"v.	c #863C39",
"w.	c #BD8659",
"x.	c #BC5E52",
"y.	c #5D262D",
"z.	c #AC4A3B",
"A.	c #C5764D",
"B.	c #E3AB8B",
"C.	c #DA8D7A",
"D.	c #DA8D84",
"E.	c #933331",
"F.	c #A33D33",
"G.	c #A83F31",
"H.	c #C5695C",
"I.	c #D47F78",
"J.	c #D07A6F",
"K.	c #853135",
"L.	c #DF978E",
"M.	c #B24E41",
"N.	c #632B3D",
"O.	c #DC8D8C",
"P.	c #DC936E",
"Q.	c #D3827A",
"R.	c #5F2A3F",
"S.	c #26141C",
"T.	c #D89857",
"U.	c #E0AD73",
"V.	c #C26248",
"W.	c #D78D56",
"X.	c #DD9591",
"Y.	c #DE9599",
"Z.	c #C26963",
"`.	c #F2DEAE",
" +	c #E8C57B",
".+	c #58312F",
"++	c #D89249",
"@+	c #D88D92",
"#+	c #B86763",
"$+	c #D28A53",
"%+	c #BB795C",
"&+	c #68363A",
"*+	c #BC7164",
"=+	c #7D393D",
"-+	c #945737",
";+	c #BB9252",
">+	c #763A44",
",+	c #CE7A72",
"'+	c #12100B",
")+	c #7B3036",
"!+	c #C48D74",
"~+	c #B38C80",
"{+	c #B78A7E",
"]+	c #AA7C67",
"^+	c #542531",
"/+	c #7A2C2A",
"(+	c #582630",
"_+	c #6C2828",
":+	c #82312C",
"<+	c #A9625E",
"                                                                                                    ",
"                                                                                                    ",
"                                                                                                    ",
"                                                                                                    ",
"                                                                                                    ",
"                                                                                                    ",
"            . .                                                                                     ",
"          . + + . @ # $ % & & $ * = = - ; > , , % % % % % % % % % > , # = ' )         !             ",
"          ~ . . { ] ^ ; / & ( = = _ ' : < [ } | } 1 1 1 1 1 1 1 1 | } 2 3 4 5 6   7 8               ",
"            ~ { { { @ ( / $ = 9 0 a a b c d e e e e f f f f f e e e e g b b h 6 i 7 j               ",
"              { { { ] k / k l m n o p p q q q q q q q q q q q q q q q q q p q q p 7 j     r r       ",
"            s { { { s - t t u v w x i i i i i i p p i i i i i i i i i i i i p i i j       y r       ",
"            - @ ] { s ] k z A B n C i i                                 j ~ D D ~ r r     ~ ~       ",
"            , t ( s { { = E F G H I i                                       ~ ~ r y r               ",
"            J K , - { { ] L M N B O i                                           r r ~               ",
"            P J Q ( @ { ] < R N B O i                                           ~ ~                 ",
"            P J Q S - { @ T U V H O i                                                               ",
"            P J K t ( ] @ 3 A v W I i                                                               ",
"            P P X Y ; - Z E A W `  .i                                                               ",
"            P P K t S ..$ +.` W `  .i                                                               ",
"            X X @.S & / #.z ` W $.I i                                                               ",
"        8   3 %.&.*.=.Q & z -.v ;.>.i                                                               ",
"          8 ,.'.).!.~.{.].^./.w U (._.                            7 7                               ",
"          7 7 :.:.:.<.[.}.F |.1.2.x I 3.                          4.8 8                             ",
"        4.7 7 :.5.5.<.[.!.6.A 7.8.9.1.0.a.b.c.c.c.c.9 @ = # ( / & Y ..] - d.    7                   ",
"      8 7 4.4.  e.e.[.[.[.f.6.$.g.n g.$.U h.,.M ).).i.j.k.] @ k / / - @ b.l.c 7                     ",
"      7 7         m.m.m.n.m.o.(.>.>.p.>.>.(.>.o.m.m.m.q.].&.r.] Z ; - s.t.U d n.                    ",
"      4.4.          i i i i i i i i i i i i i i i i i i u.v.w.' 9 @ @ %.x.8.7.u.i                   ",
"                                                        y.}.6.z.A.T B.d.C.C.D.C _.. .           7   ",
"                                                        6.6.E.V F.G.x.H.H.I.I.C _.+ .             8 ",
"                                                        B V F.W H G F ;.6.F F >.i ~ ~             7 ",
"                                                7       W W w J.5 V E.}.[.K.K.n.i                   ",
"                                                7 7     w H.D.L.I.M.G !.N.[.!.m.i                   ",
"                                              r r 7     O.O.D.P.Q.-.v f.N.N.N.m.i                   ",
"                                            r y r 4.    L T P.P.L w $.f.R.R.<.S.i       8 8 7       ",
"                { { @ $ S ^ # T.            r r ~       P.P.4 P.L I.n }.R.R.e.S._.        8 7 7     ",
"    8 8       @ s s s s.; # U.V.v           ~ ~         W.0.P.T X.Y.Z.}.N.R.N.S._.        4.7 7     ",
"      8 7 7   s.@ @ ] `.Z  +W.w 7..+                    W.++0.T D.@+#+}.[.[.N.m._.          4.4.    ",
"7 8 8 4.7 4.0.W.$+*.w.2 j.&.w.%+Q.&+_.                  0.++$+*+9.R U F.K.!.[.m._.                  ",
"  8 7 r r 4.7 ,.v.!.[.[.K.U h.=+,.o p                   T.$+,.[.!.6.M.H.g.6.}.m._.                  ",
"  4.r y y r 7 :.:.5.<.[.[.;.5 /.,.f.-+;+..# - - ] r._ 3 ^.>+N.N.!.6.M.I.,+g.e '+i                   ",
"    ~ r r ~     :.5.<.[.[.)+F x.m Z.#+u P.!+~+~+{+]+} =+N.e.N.[.!.6.F.J.@+#+6 _.i                   ",
"      ~ ~         u.^+^+y.y.e /+c M M b d f f (+y.^+^+^+^+^+(+(+y._+:+<+'.q.p p i                   ",
"                  D q q p p q q q q q q q p q p p q p q p q p q p q q '+q i i i                     ",
"                  ~ D p p p p p p p i i i p p p p p p p p p p p p p p i i i i 4.                    ",
"                    ~ ~     y D                                       4.4.                          ",
"                            ~ ~                                                                     ",
"                                                                                                    ",
"                                                                                                    ",
"                                                                                                    "};
