/* XPM */
static char * 6_xpm[] = {
"50 50 211 2",
"  	c #72751B",
". 	c #BD9842",
"+ 	c #A2783C",
"@ 	c #F3E3AD",
"# 	c #F0DB95",
"$ 	c #EACE7A",
"% 	c #E7C96D",
"& 	c #E6C56B",
"* 	c #E9CB6E",
"= 	c #F2E1A4",
"- 	c #E8CB72",
"; 	c #EBD27B",
"> 	c #EFD994",
", 	c #EFDA9C",
"' 	c #ECD284",
") 	c #F5E5C4",
"! 	c #F4E4BB",
"~ 	c #7F8226",
"{ 	c #636917",
"] 	c #F5E5C8",
"^ 	c #F1DE98",
"/ 	c #F3DFB6",
"( 	c #EDD396",
"_ 	c #E4B687",
": 	c #D9A587",
"< 	c #A57858",
"[ 	c #A1744F",
"} 	c #BC866C",
"| 	c #E5C69A",
"1 	c #EED98E",
"2 	c #F4E2B4",
"3 	c #E3B962",
"4 	c #787B21",
"5 	c #7F8124",
"6 	c #EDD58C",
"7 	c #CA835D",
"8 	c #A45B3E",
"9 	c #83332C",
"0 	c #833931",
"a 	c #742A2A",
"b 	c #68272C",
"c 	c #552532",
"d 	c #53312E",
"e 	c #775052",
"f 	c #AA7B66",
"g 	c #E5B891",
"h 	c #E5BB74",
"i 	c #D28553",
"j 	c #8B473C",
"k 	c #656C17",
"l 	c #E7C873",
"m 	c #F1DDA5",
"n 	c #C16A4F",
"o 	c #B45244",
"p 	c #542A28",
"q 	c #110B0B",
"r 	c #0A0909",
"s 	c #13100E",
"t 	c #794547",
"u 	c #DA9779",
"v 	c #EED6B0",
"w 	c #D48A63",
"x 	c #AA463A",
"y 	c #8D3232",
"z 	c #351715",
"A 	c #B3B0A9",
"B 	c #E8C889",
"C 	c #C87A57",
"D 	c #A83E32",
"E 	c #C46B54",
"F 	c #5A3D31",
"G 	c #070808",
"H 	c #351A2D",
"I 	c #713B51",
"J 	c #824548",
"K 	c #935D5D",
"L 	c #D39462",
"M 	c #CE8E67",
"N 	c #D17D72",
"O 	c #C36555",
"P 	c #B24C32",
"Q 	c #AB4333",
"R 	c #060707",
"S 	c #A2814F",
"T 	c #F2DEAA",
"U 	c #D39454",
"V 	c #A44236",
"W 	c #9B3B35",
"X 	c #B75848",
"Y 	c #452148",
"Z 	c #5C2941",
"` 	c #753944",
" .	c #943A36",
"..	c #9E3E39",
"+.	c #A64839",
"@.	c #BE713F",
"#.	c #AA6B3D",
"$.	c #2D1C15",
"%.	c #E3C063",
"&.	c #993732",
"*.	c #A13C33",
"=.	c #441C17",
"-.	c #522644",
";.	c #6C2D3A",
">.	c #833135",
",.	c #AD493A",
"'.	c #8D352F",
").	c #DBA44A",
"!.	c #DCAB4E",
"~.	c #D39A84",
"{.	c #943C3C",
"].	c #97352E",
"^.	c #9B362F",
"/.	c #482931",
"(.	c #7A3238",
"_.	c #4E1E1E",
":.	c #D99A46",
"<.	c #A43A2E",
"[.	c #2C161D",
"}.	c #35181C",
"|.	c #451E1B",
"1.	c #DFB354",
"2.	c #EBCF80",
"3.	c #070807",
"4.	c #D89865",
"5.	c #4B2418",
"6.	c #E1B95C",
"7.	c #B55034",
"8.	c #D79855",
"9.	c #E0B55A",
"0.	c #9E382F",
"a.	c #3C1A16",
"b.	c #E6C27A",
"c.	c #C96C5E",
"d.	c #933432",
"e.	c #7C3036",
"f.	c #5C272E",
"g.	c #8D714A",
"h.	c #686F16",
"i.	c #DB9165",
"j.	c #C56C63",
"k.	c #B84E3F",
"l.	c #B34C3C",
"m.	c #C48561",
"n.	c #DCB078",
"o.	c #F0D7A9",
"p.	c #DEA75D",
"q.	c #AF6651",
"r.	c #95423A",
"s.	c #88393A",
"t.	c #AA5447",
"u.	c #A64A45",
"v.	c #954943",
"w.	c #9A4844",
"x.	c #D9954D",
"y.	c #DEA667",
"z.	c #482628",
"A.	c #3C1919",
"B.	c #3C201D",
"C.	c #8D624E",
"D.	c #DAB180",
"E.	c #2C1415",
"F.	c #D78675",
"G.	c #D88A59",
"H.	c #BD5C51",
"I.	c #AD5652",
"J.	c #C3665A",
"K.	c #B34C41",
"L.	c #BD5C4C",
"M.	c #592530",
"N.	c #7A2F36",
"O.	c #AD422F",
"P.	c #A83E2F",
"Q.	c #742F39",
"R.	c #742E37",
"S.	c #CE7166",
"T.	c #DA8A85",
"U.	c #DF978C",
"V.	c #632B3D",
"W.	c #32171A",
"X.	c #DA8D8B",
"Y.	c #E09795",
"Z.	c #BE6259",
"`.	c #251317",
" +	c #DD9582",
".+	c #DC936D",
"++	c #5E2A3E",
"@+	c #DD947C",
"#+	c #221218",
"$+	c #DD9492",
"%+	c #CB746C",
"&+	c #DD9499",
"*+	c #D68785",
"=+	c #DA8F90",
"-+	c #D98F52",
";+	c #5A2739",
">+	c #B56762",
",+	c #6E303F",
"'+	c #4D2445",
")+	c #CA7572",
"!+	c #90554A",
"~+	c #BC8A4F",
"{+	c #642729",
"]+	c #C78977",
"^+	c #B88C7E",
"/+	c #A06A4F",
"(+	c #421F2F",
"_+	c #AF6E6C",
":+	c #362122",
"<+	c #9CA8AD",
"[+	c #070708",
"                                                                                                    ",
"                                                                                                    ",
"                                                                                                    ",
"                                                                                                    ",
"                                                                                                    ",
"                                                                                                    ",
"            . .                                                                                     ",
"          . + + . @ # $ % & * # = @ @ @ # * & * - ; > , ' ; - * & ; @ ) ! ~           ~             ",
"          { . ] ] ! ^ $ % * > ! / ( _ : : < [ < < } | / @ @ 1 - & ; 2 ) = 3 4 4   4 5               ",
"            { ] ] ) @ ; * 6 2 | 7 8 8 9 0 a a b c d e f g ! ! > - 6 2 / h i j k 4 4 k               ",
"            ] ] ] ] 2 6 l m g n o p q r q q q q q r r s t u | v 6 ' @ 6 w x y z 4 4 k     A A       ",
"            ) ) ] ] ) , % B C D E F G r r r r r r r r r H I J K f L M N O P Q z R k       S A       ",
"            ^ T ! ] ] ! 1 U V W X d R                     Y Y Z `  ... .+.@.#.$.R A A     { {       ",
"            %.& 6 ! ] ] T M W &.*.=.G                     Y -.Z ;.>.P ,.'.0 p r G S A               ",
"            ).!.%.m ] ] 2 ~.{.].^.=.G                       /.Z ;.(.x O j _.q R r A {               ",
"            :.).3 6 / ] 2 ~.{.].<.=.G                         [.[.}.|.p $.r r R R {                 ",
"            :.).1.2.m ] ! ~...<.<.=.G                           R R 3.R R r R r                     ",
"            ).).3 $ , ) 2 4.V Q P 5.G                                                               ",
"            ).).1.$ > ! 2 L P P P 5.G                                                               ",
"            ).!.6.' 1 = = U P 7.P 5.3.                                                              ",
"            ).!.%.' 6 , 1 8.P P Q =.3.                                                              ",
"        5   1.6.- 6 ' 6 6 9.X 0.y a.3.                                                              ",
"          5 % - ' > 6 6 ' b.c.d.e.[.3.                            4 4                               ",
"          4 6 6 ^ = ; $ ; & i x d.f.5.g.                          h.5 5                             ",
"        h.4 6 6 # = $ ' 1 l i.N j.k.l.m.n.b.B | | | o./ m > ; % & $ @ ) , p.    4                   ",
"      5 4 h.6.3 %.l l 6 ^ ' 4.w q.q.r.s.t.u.v.w.J t < ~.v ! @ ' * 6 ! 2 b.C >.4                     ",
"      4 4   x.x.:.x.y.& h p.E u.0 z.}.5.d |.a.A.}.[.[.B.C.D.2 ! 1 ^ @ B C ..a E.                    ",
"      h.h.  i.i.i.F.N G.G.C *.y ;.[.R R R R r r R R R R z.j m.g o.! m y.H.I.t.5.R                   ",
"            J.O O H.Q K.c.L.d.d.e.[.R r                 M.N. .X w g _ 8.F.F.~./.R . .           4   ",
"            <.<.<.D <.^.*.&.d.d.d.A.R                   y y 0.Q x o E t.J.F.N /.R + .             5 ",
"            <.<.D P O.<.d.N.N.d.d.A.R                   0.0.Q 7.V y ..>.y *.*.}.R { {             4 ",
"            l.l.L.N O P.&.Q.;.Q.>.A.R           4       P 7.J.N o y  .Q.R.>.>.E.R                   ",
"            c.S.T.U.F.k.<.Q.V.;.;.W.R           4 4     O S.X.Y.Z.0.d.;.V.;.;.`.R                   ",
"            T.X. +.+F.L.<.Q.++V.V.[.R         A A 4     X.U. +@+c.O.&.;.V.V.V.#+3.                  ",
"            @+ +u  +$+%+l.R.V.Z Z [.R       A S A h.    U. +.+.+S.D d.;.++++++#+3.      5 5 4       ",
"            U.U.Y.Y.&+X.X (.Z Z Z [.R       A A {       .+@+@+ +*+l.d.Q.V.++++#+3.        5 4 4     ",
"    5 5     &+&+&+&+&+=+H.(.;.Z Z [.R       { {         -+i. +$+X.o ^.R.V.;+++#+3.        h.4 4     ",
"      5 4 4 j.J.Z.Z.Z.J.l.>.;.Z Z }.r                   -+x.4. +*+K.&.R.;.;.V.`.3.          h.h.    ",
"4 5 5 h.4 h.*.&.y Q.;.(. . .(.Z Q.A.G                   -+x.G.>+u.&.x ..>.;.;.`.3.                  ",
"  5 4 A A h.Q.;.Z -.Z ;.N.K.I.>.;.}.s                   8.7 v.,+N.<.j.j.x y e.`.3.                  ",
"  h.A S S A 4 -.'+Z V.;.R.w.)+Z.w.` !+~+6 # 1 ^ 2 / , 8.8 ,+V.V.>.&.H.T.)+,.{+q R                   ",
"    { A A {   -.-.Z V.;.,+>.V Z.*+)+>+C .+]+]+^+^+f /+` V.V.,+,+N.d.K.T.$+>+B.R r                   ",
"      { {       [.(+c c f.f.a 9 j v.v.r.9 a b b f.f.c c c M.c f.{+a '._+e :+r R r                   ",
"                  s q q r r q q r q q q r q r q r q r q q r q q r q q s r R 3.r                     ",
"                  { <+r r r r r r r r r r r R r r r r r r [+[+r r R r r r 3.r h.                    ",
"                    { {     S <+                                      h.h.                          ",
"                            { {                                                                     ",
"                                                                                                    ",
"                                                                                                    ",
"                                                                                                    "};
