/* XPM */
static char * 7_xpm[] = {
"50 50 198 2",
"  	c #72751B",
". 	c #BD9842",
"+ 	c #EFD98F",
"@ 	c #EBD173",
"# 	c #E8CC6F",
"$ 	c #E6C56A",
"% 	c #E7C874",
"& 	c #EDD48C",
"* 	c #F2DDA4",
"= 	c #F4E4A6",
"- 	c #F3E2AA",
"; 	c #F0DC94",
"> 	c #ECD382",
", 	c #EFD992",
"' 	c #ECD37C",
") 	c #F4E4B5",
"! 	c #F5E6C9",
"~ 	c #A2783C",
"{ 	c #F4E4BB",
"] 	c #F2E19F",
"^ 	c #E9CC74",
"/ 	c #E7C96E",
"( 	c #EDD39A",
"_ 	c #E7CC9B",
": 	c #E6BD91",
"< 	c #C9A064",
"[ 	c #BD985D",
"} 	c #BF9B63",
"| 	c #C9A37A",
"1 	c #F2DDAB",
"2 	c #7F8226",
"3 	c #636917",
"4 	c #F2DEB9",
"5 	c #CB8667",
"6 	c #CB8449",
"7 	c #9E553C",
"8 	c #9C433C",
"9 	c #8B3B3A",
"0 	c #763137",
"a 	c #7E3035",
"b 	c #6A303C",
"c 	c #885260",
"d 	c #B4918D",
"e 	c #E3CEAC",
"f 	c #EED690",
"g 	c #EACE81",
"h 	c #D99A5B",
"i 	c #A46453",
"j 	c #787B21",
"k 	c #7F8124",
"l 	c #EFDA9D",
"m 	c #E4CFA4",
"n 	c #D29768",
"o 	c #C16947",
"p 	c #995937",
"q 	c #3E2617",
"r 	c #251313",
"s 	c #2A1313",
"t 	c #1A1313",
"u 	c #4F3F33",
"v 	c #DE968A",
"w 	c #F4DEC0",
"x 	c #E0AD66",
"y 	c #CA7555",
"z 	c #973836",
"A 	c #351615",
"B 	c #656C17",
"C 	c #EAC4A2",
"D 	c #EBC4B1",
"E 	c #DEAB5E",
"F 	c #E3B868",
"G 	c #D98F5B",
"H 	c #C9784E",
"I 	c #D78751",
"J 	c #130C0C",
"K 	c #060707",
"L 	c #070807",
"M 	c #060708",
"N 	c #B87665",
"O 	c #E5B68E",
"P 	c #F5E5C5",
"Q 	c #F0DA9A",
"R 	c #EBCB89",
"S 	c #A53E34",
"T 	c #943431",
"U 	c #B3B0A9",
"V 	c #D3847B",
"W 	c #A75B53",
"X 	c #834D52",
"Y 	c #965350",
"Z 	c #A85438",
"` 	c #B55439",
" .	c #722F27",
"..	c #070808",
"+.	c #D2836B",
"@.	c #DA9262",
"#.	c #E1B36B",
"$.	c #BA5943",
"%.	c #9A362F",
"&.	c #94342F",
"*.	c #A2814F",
"=.	c #643654",
"-.	c #522543",
";.	c #5E2A3F",
">.	c #6E2C37",
",.	c #AB4333",
"'.	c #8B3333",
").	c #792F36",
"!.	c #732D35",
"~.	c #DA935C",
"{.	c #DCA656",
"].	c #642B3D",
"^.	c #9C3A31",
"/.	c #C36453",
"(.	c #AD4C43",
"_.	c #542226",
":.	c #D99B45",
"<.	c #DCAB4E",
"[.	c #903838",
"}.	c #46202B",
"|.	c #592733",
"1.	c #81302A",
"2.	c #954F46",
"3.	c #3C1B15",
"4.	c #090808",
"5.	c #C6837B",
"6.	c #18100F",
"7.	c #DBA349",
"8.	c #E3BD64",
"9.	c #A43B2F",
"0.	c #EACD7C",
"a.	c #A93F2F",
"b.	c #E2B85E",
"c.	c #CC865B",
"d.	c #B24C33",
"e.	c #DEB153",
"f.	c #B54E3E",
"g.	c #472A27",
"h.	c #E5C365",
"i.	c #D18D45",
"j.	c #C2624D",
"k.	c #D0786C",
"l.	c #D27C74",
"m.	c #DF9592",
"n.	c #4C352C",
"o.	c #DFA869",
"p.	c #DD947C",
"q.	c #D88973",
"r.	c #DB9369",
"s.	c #4B3425",
"t.	c #686F16",
"u.	c #E7D09D",
"v.	c #E5CEB0",
"w.	c #7F4247",
"x.	c #75414B",
"y.	c #95403D",
"z.	c #371A27",
"A.	c #2B1621",
"B.	c #30171F",
"C.	c #33181E",
"D.	c #622933",
"E.	c #6C2D3A",
"F.	c #BD6756",
"G.	c #712E38",
"H.	c #993630",
"I.	c #B75547",
"J.	c #C66A5A",
"K.	c #1A0E13",
"L.	c #AE4936",
"M.	c #843134",
"N.	c #A44339",
"O.	c #C76D62",
"P.	c #B04632",
"Q.	c #C05F50",
"R.	c #DA8B86",
"S.	c #2B1617",
"T.	c #DA8C8C",
"U.	c #CB7066",
"V.	c #25141A",
"W.	c #E09897",
"X.	c #DC9474",
"Y.	c #D68783",
"Z.	c #E09795",
"`.	c #5B2941",
" +	c #DE969A",
".+	c #AF5143",
"++	c #D58B8B",
"@+	c #D68788",
"#+	c #CC756A",
"$+	c #AB453B",
"%+	c #7D2D2E",
"&+	c #4F2545",
"*+	c #60241F",
"=+	c #9CA8AD",
"-+	c #52253D",
";+	c #9F625E",
">+	c #8C504B",
",+	c #563B39",
"                                                                                                    ",
"                                                                                                    ",
"                                                                                                    ",
"                                                                                                    ",
"                                                                                                    ",
"                                                                                                    ",
"            . .     + @ # $ % & * = - - ; @ # @ @ @ > , + ' @ # $ $ > ) !                           ",
"          . ~ ~ ! { ] ' ^ / > - { ) ( _ : < [ [ } | _ { ) = , ' # % + ) ! 1 $         2             ",
"          3 . ! ! ! - > @ ' - 4 : 5 6 7 8 9 0 a b b c d e { { - > ^ f { { g h i   j k               ",
"            3 ! ! ! { l @ + m n o p q r s s s s s t t t u v w ! - ' > { 1 x y z A j B               ",
"              C C C D : E F G H I p J K L M M M L L L L t N O 4 P f % Q R y S T A M B     U U       ",
"              V W X c Y Z Z p 7 `  .J ..                  +.@._ ! ) & % #.$.%.&.A K       *.U       ",
"              =.-.-.;.>.T ,.'.).!.r ....                  ~.{.& P P ) g I 8 %.&.A M U     3 3       ",
"                -.;.].!.^./.(.&._.J ....                  :.<.% 4 ! ! ( 5 [.%.%.A M U               ",
"                  }.|.|.1.W 2.3.J L 4.                    :.<.$ 1 P ! 1 5.[.&.%.A ..3               ",
"                    J J J 6.6.4.4.4.4.                    :.7.8.& 4 ! 1 5.z %.9.3.K                 ",
"                      ..4.....4.4.                        :.7.8.0.1 ! 1 5 S a.a.3.M                 ",
"                                                          :.7.b.$ l P 1 c.a.d.d.3.K                 ",
"                                                          7.7.b.% & ) , H d.d.d.q L                 ",
"                                                          <.e.$ 0.> ; 0.6 d.f./.g.L                 ",
"                                                          $ h.' > % ' % i.j.k.l.g.K                 ",
"        k                                                 , > & > ' ^ # :.k.m.v n.K                 ",
"          k                                               ) ] ] ^ % 0.g o.p.p.q.n...                ",
"          j j                                           ) { = ] % $ & & x r.r.r.s.K                 ",
"        t.j j                             u.m e e v.m m ( Q Q * % / + , F @.@.@.s.K                 ",
"      k j t.t.                            w.x.x.x.x.x.x.y.i N c.h 8.> > E ~.G G s.K                 ",
"      j j                                 z.A.B.A.C.B.A.A.D.E.9 F.~.F E ~.G G G s...                ",
"      t.t.                                  K 4.....4.4.J |.G.a H.I.+.y J.q.@.@.s.4.                ",
"                                              ..4...4.4.K.D.0 [.H.H.S a.L.J.q.p.n....           j   ",
"                                                          M.'.H.9.H.T T T N.I.O.g....             k ",
"                                                          %.%.a.P.a.%.).>.M.%.S 3.K 3             j ",
"                                                j         ,.,.Q./.d.9.'.E.!.M.'.C.K                 ",
"                                                j j       j./.R.V /.,.H.E.].E.G.S...                ",
"                                              U U j       l.T.v v U.L.H.E.].].].V...                ",
"                                            U *.U t.      W.W.p.X.Y.f.^.E.].;.].V.K     k k j       ",
"                                            U U 3         v Z.Z.Z.T.U.(.E.].`.`.V.K       k j j     ",
"    k k           k                         3 3            + +W. + +Y..+!.].;.;.V.K       t.j j     ",
"      k j j   j k                                         ++++@+@+@+#+$+!.].].].V.K         t.t.    ",
"j k k t.j t.j j t.                                        .+$+N.8 8 8 ^.'.0 E.].V.M                 ",
"  k j U U t.j j t.  k k       k                           T M.E.].].0 N.L.z ).>.S.M                 ",
"  t.U *.*.U j t.      k k   k                             E.`.-.`.].M.I.l.I.H.%+r L                 ",
"    3 U U 3           j j t.j                               &+-.`.].).(.R.V I.*+4...                ",
"      3 3           =+=+j t.t.                              -.-+`.].a $+R.++;+A ....                ",
"                  =+*.*.=+                                    V.z.}._. .>+,+t 4.....                ",
"                  3 =+=+3   =+=+                                4.4.4.4.4.4...4.4.                  ",
"                    3 3     *.=+                                    ..4.M M ..4.                    ",
"                            3 3                                                                     ",
"                                                                                                    ",
"                                                                                                    ",
"                                                                                                    "};
