/* XPM */
static char * 8_xpm[] = {
"50 50 232 2",
"  	c #72751B",
". 	c #BD9842",
"+ 	c #F3E3A4",
"@ 	c #EDD384",
"# 	c #EAD073",
"$ 	c #E8CB6D",
"% 	c #E9CB75",
"& 	c #EFD995",
"* 	c #F0DBA1",
"= 	c #F4E4BB",
"- 	c #F5E5C9",
"; 	c #F4E4B4",
"> 	c #F0DC96",
", 	c #ECD37C",
"' 	c #E9CC7B",
") 	c #F0DC9B",
"! 	c #A2783C",
"~ 	c #EDD491",
"{ 	c #EDD48A",
"] 	c #F5E5C4",
"^ 	c #F0D6A9",
"/ 	c #EAC895",
"( 	c #E3B799",
"_ 	c #B48C75",
": 	c #B18A5D",
"< 	c #C69B6A",
"[ 	c #EBCC9C",
"} 	c #F4E4AC",
"| 	c #DCA454",
"1 	c #7F8226",
"2 	c #636917",
"3 	c #EBD5A6",
"4 	c #D69B6B",
"5 	c #B97444",
"6 	c #BA6846",
"7 	c #9B4B3C",
"8 	c #823235",
"9 	c #7A2C29",
"0 	c #762E35",
"a 	c #682A33",
"b 	c #632B3D",
"c 	c #8E625F",
"d 	c #B69384",
"e 	c #EED98C",
"f 	c #EFD89B",
"g 	c #E0A65D",
"h 	c #CC7B5C",
"i 	c #787B21",
"j 	c #7F8124",
"k 	c #D48965",
"l 	c #BA5444",
"m 	c #65332C",
"n 	c #201410",
"o 	c #120C0C",
"p 	c #1C0E0D",
"q 	c #090909",
"r 	c #191312",
"s 	c #7D504E",
"t 	c #EBC8A1",
"u 	c #E5BB78",
"v 	c #CA7B58",
"w 	c #AB4B45",
"x 	c #59281C",
"y 	c #656C17",
"z 	c #E6C56B",
"A 	c #D49274",
"B 	c #AB463A",
"C 	c #C2645C",
"D 	c #684538",
"E 	c #070808",
"F 	c #060707",
"G 	c #693A3A",
"H 	c #DD957D",
"I 	c #DB905B",
"J 	c #AB493C",
"K 	c #9A3631",
"L 	c #592325",
"M 	c #B3B0A9",
"N 	c #DDAA5A",
"O 	c #A8523B",
"P 	c #A43A2F",
"Q 	c #BC5B4D",
"R 	c #AF655B",
"S 	c #E7C574",
"T 	c #F1DDB3",
"U 	c #E7C86F",
"V 	c #C26C49",
"W 	c #9A362F",
"X 	c #632422",
"Y 	c #A2814F",
"Z 	c #DA9B53",
"` 	c #9D3A33",
" .	c #A83C2F",
"..	c #E2B868",
"+.	c #DBA44A",
"@.	c #95352E",
"#.	c #DDAA56",
"$.	c #DFB254",
"%.	c #E7C870",
"&.	c #F2DEAB",
"*.	c #9C4334",
"=.	c #4B1D1B",
"-.	c #DCAA4D",
";.	c #E4C263",
">.	c #DAA567",
",.	c #A44B46",
"'.	c #DA9E47",
").	c #E2BB5D",
"!.	c #D9A18A",
"~.	c #933E3C",
"{.	c #9D382F",
"].	c #D9A178",
"^.	c #974746",
"/.	c #9B3F3B",
"(.	c #55231B",
"_.	c #F6E8AC",
":.	c #A64639",
"<.	c #6D2823",
"[.	c #DFB65D",
"}.	c #B04431",
"|.	c #EED4A3",
"1.	c #F1E09A",
"2.	c #AA4333",
"3.	c #712A23",
"4.	c #F6E8CA",
"5.	c #B24D33",
"6.	c #E4B492",
"7.	c #B55344",
"8.	c #C35D4A",
"9.	c #8C4237",
"0.	c #DC9B63",
"a.	c #B55133",
"b.	c #E0B557",
"c.	c #C56B5E",
"d.	c #C86C5A",
"e.	c #D2756A",
"f.	c #874744",
"g.	c #E0B55A",
"h.	c #E1AA73",
"i.	c #DC9372",
"j.	c #8C5D3A",
"k.	c #D58B4D",
"l.	c #D3864F",
"m.	c #D9964C",
"n.	c #5C2941",
"o.	c #893A36",
"p.	c #CD904A",
"q.	c #441B1C",
"r.	c #B24C3B",
"s.	c #C36454",
"t.	c #6A2D3B",
"u.	c #8B3233",
"v.	c #A43C30",
"w.	c #241B15",
"x.	c #D89556",
"y.	c #C3644E",
"z.	c #1B100E",
"A.	c #B3543D",
"B.	c #913D29",
"C.	c #CA865A",
"D.	c #D78B5A",
"E.	c #A36648",
"F.	c #482D21",
"G.	c #686F16",
"H.	c #DA9A5B",
"I.	c #C6746F",
"J.	c #995449",
"K.	c #B67554",
"L.	c #C58967",
"M.	c #C38C75",
"N.	c #EBCF84",
"O.	c #DC9269",
"P.	c #722E39",
"Q.	c #4B2135",
"R.	c #7E343A",
"S.	c #B24F41",
"T.	c #3C1B16",
"U.	c #C67748",
"V.	c #3D1B24",
"W.	c #B9584A",
"X.	c #85342D",
"Y.	c #C6A740",
"Z.	c #B5544A",
"`.	c #933331",
" +	c #331921",
".+	c #7A2F37",
"++	c #9A453E",
"@+	c #3D1A1E",
"#+	c #B75C55",
"$+	c #7F4339",
"%+	c #C87667",
"&+	c #D88A85",
"*+	c #DE958C",
"=+	c #B95B37",
"-+	c #AB402F",
";+	c #7B2F38",
">+	c #D68683",
",+	c #753038",
"'+	c #D27D76",
")+	c #DD9484",
"!+	c #E09798",
"~+	c #4E222D",
"{+	c #DE9494",
"]+	c #7D3036",
"^+	c #D27E7A",
"/+	c #5E2A3F",
"(+	c #3D1D2C",
"_+	c #DF9699",
":+	c #DA8D8B",
"<+	c #070708",
"[+	c #DA8F93",
"}+	c #421E29",
"|+	c #AC5049",
"1+	c #AB5A57",
"2+	c #491F25",
"3+	c #582742",
"4+	c #532642",
"5+	c #392D18",
"6+	c #4E2445",
"7+	c #B58555",
"8+	c #532433",
"9+	c #B7726C",
"0+	c #BA7A6D",
"a+	c #9F6E65",
"b+	c #96614B",
"c+	c #733742",
"d+	c #54242B",
"e+	c #682528",
"f+	c #7A3229",
"g+	c #935C56",
"h+	c #342625",
"i+	c #9CA8AD",
"                                                                                                    ",
"                                                                                                    ",
"                                                                                                    ",
"                                                                                                    ",
"                                                                                                    ",
"                                                                                                    ",
"            . .   + @ # $ % & * = - - - ; > @ @ , , , @ , ' # $ , ) ; - -                           ",
"          . ! ! - ; ~ , # { ; ] = ^ / ( / _ : : : < [ ; } ) { # , > = - = ' |         1             ",
"          2 . - - ] ) , # > ] 3 4 5 6 7 7 8 9 0 a b c d 3 ] ; e @ ) ] ] f g h i   i j               ",
"            - - - - ; , % } [ k l m n o p p p p p o q r s t - ; e ) = ; u v w x i i y               ",
"            - - - - = , z ~ A B C D E E E E E E F F E F G H [ ] * ' ) ) I J K L q i y     M M       ",
"            ; = ] - - * ' N O P Q D F E                 R k S = T S U S V K W X q E       Y M       ",
"            % ' f ] - = & Z ` W  .L E E                   Z ..T - e z +.J @.K X o q M     2 2       ",
"            #.$.%.; - - &.4 *.W P =.E E                   -.;.&.- } % >.,.@.P X q F M               ",
"            '.+.).f ] ] ; !.~.K {.=.F F                   -.).& - ; e ].^.@.{.X q q 2               ",
"            '.+.).{ ; - ; !./.{.P (.q F                   +.$.' ; _.> 4 :.W  .<.q q                 ",
"            '.+.[.' f - ; ].:. .}.x F q                   +.$.z |.; 1.!.,.P 2.3.q E                 ",
"            '.+.$.U & 4.; !.B 2.5.x q F                   +.$.).{ _.1.6.7.5.8.9.q E                 ",
"            '.'.$.z ' } ; 0.5.5.a.x q F                   -.b.;.@ * e 6.c.d.e.f.o q                 ",
"            '.+.#.[.[.' @ Z 5.5.a.(.F q                   g.;.z % , U h.i.I I j.q F                 ",
"            O 7 f.j.5 $.$ #.5.2.P =.q q                   $ % % z %.g.k.l.k.m.j.q q                 ",
"        j     n.n.n.o.p.$ ..6 K 8 q.q F                   > > , z z | V r.s.e.D q E                 ",
"          j   n.n.t.u.l.z z h v.u.=.q w.                  ; + @ % S x.k s.y.*.z.q E                 ",
"          i i   a *.V N S % k.A.w ~.B.C.|.} ) e > = ] T _._._.> @ S x.I D.E.F.q E q                 ",
"        G.i i     < u @ ' { H.D.A I.J J.K.L.L.M._ d _ _ _ ].( u N.S x.O.K.w.E E E                   ",
"      j i G.G.  + _.; ~ ....h A.7 f.P.9 J.o.9 9 a Q.Q.Q.a R.^.S.x.g.0.H c.9.T.F                     ",
"      i i     _.+ _.] / Z U.` u.P.V.q o r p o o o o q q V.b 0 u.W.>.[.v }.v.X.Y.                    ",
"      G.G.    ; _.= ; N.H Z.`.u.P. +E E F E F E F F E F  +t..+`.2.C...>.7.K W x Y.                  ",
"            &.; ; = |.k C ++u.`.u.@+E E                 a .+u.v.{.#+H.| h s.d.$+q . .           i   ",
"            N ....>.v :.`..+.+@.`.q.E E                   @.{.2.v.K A.6 %+&+*+c o ! .             j ",
"            5.a.=+y.r.P u.t.P.u.`.=.F F                   P -+Q r.`.o.;+o.^.w m q E 2             i ",
"            W.l d.>+y.}.P ,+t.P.;+q.E F         i         8.s.'+c.v.`.;+t.0 8 L q E                 ",
"            e.'+*+)+%+}.P 0 b t.t. +E E         i i       e.*+!+'+2.@.;+b t.t.~+q E                 ",
"            !+{+*+O.&+s.v.]+b n.n. +E E       M M i       !+)+O.'+2.K ;+b n.n.~+q E                 ",
"            *+*+!+)+*+^+S..+b n.n. +F E     M Y M G.      )+H O.&+Z.{.]+b /+n.(+E q     j j i       ",
"            {+!+!+!+_+:+W.u.b b n. +<+<+    M M 2         i.)+)+!+s.P 8 b b n.(+q q       j i i     ",
"    j j     {+[+{+{+[+>+7.8 b b n. +F q     2 2           I i.)+!+C v.8 t.b b }+E q       G.i i     ",
"      j i i Q Z.7.|+w 1+B 8 b n.b  +q q                   m.x.i.>+#+K 8 t.b t.}+q q         G.G.    ",
"i j j G.i G.K u..+t.t.P.u.` 8 n.t.q.F q                   m.l.R ~.K v.|+u.;+t.2+E E                 ",
"  j i M M G.P.b 3+4+b P.8 J #+++P.}+n 5+                Z C.^.t.P.P 8.>+#+K u.2+q E                 ",
"  G.M Y Y M i 6+4+3+b t.;+/.c.%+1+f.,.7+{ + |.* &.T 3 >.O s 8+b .+@.7.>+&+Z.u.n E E                 ",
"    2 M M 2     4+n.b t.P.u. .s.'+'+9+9+k %+0+0+9+a+b+c+b n.b P..+K r.^+_+^+m E E E                 ",
"      2 2         (+~+d+d+e+3.f+X.9.9.o.f+3.<.e+e+d+d+d+~+8+d+d+X 3.X.g+c h+o E q                   ",
"                  i+q q q q q q o q q q q o q o q q q q q q o q E q q o o E E E E                   ",
"                  2 i+E E q q q E E E E F q F q q q E E E E E E E E E E E E q G.                    ",
"                    2 2     Y i+                                      G.G.                          ",
"                            2 2                                                                     ",
"                                                                                                    ",
"                                                                                                    ",
"                                                                                                    "};
