/* XPM */
static char * 9_xpm[] = {
"50 50 220 2",
"  	c #72751B",
". 	c #BD9842",
"+ 	c #F2E19B",
"@ 	c #ECD283",
"# 	c #EAD074",
"$ 	c #EBD17C",
"% 	c #F1DD94",
"& 	c #F3E2A4",
"* 	c #F4E3B4",
"= 	c #F5E5C9",
"- 	c #F6E8C9",
"; 	c #F3E3AB",
"> 	c #F1DB8F",
", 	c #EED88B",
"' 	c #F5E5C4",
") 	c #A2783C",
"! 	c #EFDA94",
"~ 	c #F1DD9C",
"{ 	c #F1DDAC",
"] 	c #EED597",
"^ 	c #E3B29A",
"/ 	c #E4B989",
"( 	c #D8A479",
"_ 	c #BB9367",
": 	c #BA905F",
"< 	c #C98859",
"[ 	c #F1DEA4",
"} 	c #E6C56B",
"| 	c #7F8226",
"1 	c #636917",
"2 	c #F4E4BC",
"3 	c #EED68C",
"4 	c #F2DDB5",
"5 	c #BD764C",
"6 	c #A7513F",
"7 	c #953F2F",
"8 	c #943531",
"9 	c #7B2E2C",
"0 	c #7E3036",
"a 	c #6C3026",
"b 	c #722E38",
"c 	c #7C4A4E",
"d 	c #A57470",
"e 	c #DCC2A2",
"f 	c #E7C475",
"g 	c #D89853",
"h 	c #8E523B",
"i 	c #787B21",
"j 	c #7F8124",
"k 	c #F0D6A9",
"l 	c #C16249",
"m 	c #843937",
"n 	c #251211",
"o 	c #1B100E",
"p 	c #1B0E0D",
"q 	c #170E10",
"r 	c #130C0B",
"s 	c #0A0909",
"t 	c #4E3133",
"u 	c #DEAA84",
"v 	c #DFAD5A",
"w 	c #C46B5A",
"x 	c #8C3233",
"y 	c #656C17",
"z 	c #E9CB74",
"A 	c #B24B3C",
"B 	c #8B5C55",
"C 	c #070808",
"D 	c #060708",
"E 	c #321E1B",
"F 	c #CD8175",
"G 	c #E4BA77",
"H 	c #C77457",
"I 	c #A43D32",
"J 	c #93342E",
"K 	c #B3B0A9",
"L 	c #E4C264",
"M 	c #DFB35A",
"N 	c #B7563C",
"O 	c #9D3A32",
"P 	c #DC9374",
"Q 	c #DFB660",
"R 	c #DEA566",
"S 	c #B55243",
"T 	c #060707",
"U 	c #A2814F",
"V 	c #DBA44B",
"W 	c #A54233",
"X 	c #9A362F",
"Y 	c #A43B2F",
"Z 	c #6B2724",
"` 	c #D9954B",
" .	c #E3B868",
"..	c #EACB82",
"+.	c #E2BC5D",
"@.	c #DDAB52",
"#.	c #C87A49",
"$.	c #8B322B",
"%.	c #DCAB4E",
"&.	c #E0B557",
"*.	c #E8C77B",
"=.	c #A3453A",
"-.	c #642620",
";.	c #B76A59",
">.	c #2A1411",
",.	c #984745",
"'.	c #9A3631",
").	c #EACD7B",
"!.	c #BC7968",
"~.	c #DA9D46",
"{.	c #E3BC63",
"].	c #E0AD87",
"^.	c #E7C96E",
"/.	c #B56B67",
"(.	c #9E382F",
"_.	c #B04331",
":.	c #EFD69C",
"<.	c #E8C983",
"[.	c #C56C65",
"}.	c #A83D2F",
"|.	c #E1AD78",
"1.	c #AB4A3C",
"2.	c #B24C32",
"3.	c #B65133",
"4.	c #763323",
"5.	c #C87768",
"6.	c #2A1A16",
"7.	c #070807",
"8.	c #DFB154",
"9.	c #CC756B",
"0.	c #732B23",
"a.	c #BF5F52",
"b.	c #C46454",
"c.	c #A8462F",
"d.	c #D37A73",
"e.	c #D58885",
"f.	c #352523",
"g.	c #97493B",
"h.	c #995546",
"i.	c #B69274",
"j.	c #BA8A5B",
"k.	c #BF624A",
"l.	c #541F1C",
"m.	c #DA915B",
"n.	c #DB9384",
"o.	c #703442",
"p.	c #572842",
"q.	c #642B3D",
"r.	c #6A2D3B",
"s.	c #843235",
"t.	c #9B5452",
"u.	c #1F1718",
"v.	c #DC936C",
"w.	c #D18C66",
"x.	c #35261C",
"y.	c #4F2543",
"z.	c #5B2941",
"A.	c #A24743",
"B.	c #AA6454",
"C.	c #B7814A",
"D.	c #DB9364",
"E.	c #D18B5D",
"F.	c #686F16",
"G.	c #5D293D",
"H.	c #76323C",
"I.	c #BA5947",
"J.	c #A95554",
"K.	c #B3876A",
"L.	c #B48A7D",
"M.	c #AF8981",
"N.	c #C8906F",
"O.	c #CF9674",
"P.	c #4B222E",
"Q.	c #572532",
"R.	c #5B2632",
"S.	c #6C2A28",
"T.	c #842F28",
"U.	c #A75145",
"V.	c #9A412F",
"W.	c #752B27",
"X.	c #5C2429",
"Y.	c #E0B659",
"Z.	c #E0AD62",
"`.	c #1C0F13",
" +	c #742E34",
".+	c #D7877C",
"++	c #D68C56",
"@+	c #D07D78",
"#+	c #D17C6D",
"$+	c #A83F34",
"%+	c #AB4333",
"&+	c #7A2E35",
"*+	c #E09794",
"=+	c #DC927D",
"-+	c #AC4940",
";+	c #1C1113",
">+	c #DB9E62",
",+	c #DA8F55",
"'+	c #F0D7A4",
")+	c #DD9F77",
"!+	c #662B37",
"~+	c #D69063",
"{+	c #B87449",
"]+	c #AC674B",
"^+	c #AD754E",
"/+	c #A8473E",
"(+	c #8B4751",
"_+	c #87474A",
":+	c #693534",
"<+	c #3B3119",
"[+	c #C56B65",
"}+	c #542643",
"|+	c #ECCB9D",
"1+	c #DE9394",
"2+	c #C88669",
"3+	c #371B27",
"4+	c #53232C",
"5+	c #8C3A31",
"6+	c #813229",
"7+	c #9CA8AD",
"                                                                                                    ",
"                                                                                                    ",
"                                                                                                    ",
"                                                                                                    ",
"                                                                                                    ",
"                                                                                                    ",
"            . .   + @ # $ % & * = = = = - ; + > % > $ @ $ $ # , % & ' = =                           ",
"          . ) ) = ; ! # @ ~ * = ' { ] ^ / ( _ : : < / * ; ~ , @ ! ; = = ' [ }         |             ",
"          1 . = = 2 ~ $ 3 ; = 4 ( 5 5 6 7 8 9 0 a b c d e 4 * ~ 3 ; = = * f g h   i j               ",
"            = = = = { @ , * k ( l m n o p p p p o q r s t u 4 ' ! { = ' 3 v w x n i y               ",
"            - = = = * z z ! ( A A B s C C C C C D D C D E F / 2 { @ [ { G H I J n C y     K K       ",
"            * 2 ' = 2 @ L M N O A B s C                   P Q ; ' z L } R S J J n T       U K       ",
"            f @ [ ' ' ~ z V W X Y Z s C                   `  .[ = ..+.@.#.O X $.n s K     1 1       ",
"            %.&.*.; = ; , R =.X Y -.C C                   %.L ! 2 ! L M ;.X X X >.T K               ",
"            V %.L 3 ' 2 + u ,.'.Y -.s s                   @.M $ * [ ). .!.J X J >.T 1               ",
"            ~.%.{.} * 2 ; ].,.X Y -.s s                   %.M ^.[ * 3 G /.X (.X >.T                 ",
"            ~.%.M +.~ * & ].,.Y _.Z s s                   %.+.L :.* ! <.[.O Y }.>.C                 ",
"            ~.V M L ! ; + |.1.2.3.4.s s                   V +.L 3 & ! <.5.I 2.2.6.T                 ",
"            ~.V &.+.$ % 3 R 3.2.3.4.7.7.                  8.+.} ).% ! ..9.2.3.A 6.s                 ",
"            V @.+.} L $ ..v 3.3.3.0.7.7.                  L L ).^.@ 3 *.H N a.b.E s                 ",
"             . . .G +.# $ Q N 2.c.-.s 7.                  @ @ @ L ).).^.#.b.d.e.f.T                 ",
"        j   !./.,.g.h._ i.j.H k.=.l.s 7.                  ; ~ , z z ^.{.m.e.n.n.f.T                 ",
"          j o.p.p.p.q.r.s.x t.;.;.a o u.                  ; & @ $ > 3 {.g P v.w.x.T                 ",
"          i i y.y.z.q.b 8 }.1.A.g.B.,.C.] * ; [ [ * ' 2 & & ; @ @ + & z g D.D.E.x.T                 ",
"        F.i i y.G.G.r.H.x '.A I.I.J.1.l 5 K.i.L.L.M.L.K.N.O.^ |.G , % ).g m.m.E.x.T                 ",
"      j i F.F.  E P.Q.R.S.9 T.$.g.U.V.V.$.9 W.W.S.X.P.P.R.H.,.1.#.v Y.Z.D.m.m.< x.T                 ",
"      i i         r s r r r r r r r o r r r r r r r s r `.G. +x =..+D.++@+P D.E.x.T                 ",
"      F.F.            C C C C C s s D C s s s s s s C C `.q. +x I w #+H ,.#+P w.x.s                 ",
"                                                          s.x '.Y A N U.m S w @+f.T .           i   ",
"                                                          X X $+%+'.%+O &+8 $+1.>.s .             j ",
"                                                          Y %+l l X Y 8 r.s.8 $.n T 1             i ",
"                                                i         b.9.e.9.W %+8 r.r.&+&+n T                 ",
"                                                i i       *+*+=+.+-+Y 8 r.q.r.q.;+C                 ",
"                                              K K i       n.P D.n.S X X q.q.q.G.`.C                 ",
"                    ~ $ [ = 2               K U K F.      P v.D.=+I.Y 8 r.G.G.G.`.T     j j i       ",
"                = = ; @ & = :.>+            K K 1         D.v.D.v.w Y x r.q.z.G.`.T       j i i     ",
"    j j       2 ' - 2 ! ; { |.5.I.          1 1           ` ,+,+D.@+I x r.q.q.G.`.T       F.i i     ",
"      j i i   <.k '+k '+[ *.)+=+e.c                       ` ` ,+P 9.I x b !+q.q.`.T         F.F.    ",
"i j j F.i F.~+~+#.{+]+^+< N.^+B.e.B s                     ~.` w././+$+I 8 &+b q.;+C                 ",
"  j i K K F.J.(+H.q.q.b '.-+J.m _+:+6.<+                  g ]+_+ +'.a.d.[+$+x  +`.C                 ",
"  F.K U U K i }+}+}+q.b x I [.[.J.s.h {+@ ; ~ [ ; 2 |+/ {+_+r.q.s.O N e.1+[./+l.C C                 ",
"    1 K K 1     y.G.q.r.0 8 1.b.@+5.!.;.w.2+5.!.!.d h.B o.z.r.b s.X A 9.1+e.t.>.C C                 ",
"      1 1         3+P.4+-.S.S.9 m g.h 5+6+W.0.0.S.X.4+4+P.4+X.X.S.W.4.h d z.6.s s C                 ",
"                  7+r s s r r s s r s s s r s s s s s s s s s s s s r s r C T C C                   ",
"                  1 7+C C C s T C C C C s s T C s s s C s C C C C C s s D D s C                     ",
"                    1 1     U 7+                                      F.F.                          ",
"                            1 1                                                                     ",
"                                                                                                    ",
"                                                                                                    ",
"                                                                                                    "};
