/* XPM */
static char *wallfinal2[] = {
/* columns rows colors chars-per-pixel */
"50 50 137 2 ",
"   c #776656",
".  c #6D6464",
"X  c #7E6E64",
"o  c #7F7467",
"O  c #7C726F",
"+  c #7F7570",
"@  c #82766D",
"#  c #85786F",
"$  c #8C7D6F",
"%  c #817675",
"&  c #847A74",
"*  c #8A7D75",
"=  c #857D7A",
"-  c #897F79",
";  c #93826E",
":  c #8A8077",
">  c #87807B",
",  c #8B827C",
"<  c #9C8A74",
"1  c #91857C",
"2  c #96897D",
"3  c #9C8C7D",
"4  c #A9957E",
"5  c #868384",
"6  c #8D8683",
"7  c #8F8883",
"8  c #8F898A",
"9  c #908781",
"0  c #928A84",
"q  c #9A8E83",
"w  c #908788",
"e  c #938C8B",
"r  c #998B8B",
"t  c #9D9186",
"y  c #97908B",
"u  c #9C938A",
"i  c #948F91",
"p  c #969192",
"a  c #9A9495",
"s  c #9F9996",
"d  c #9C9798",
"f  c #A78B83",
"g  c #A89680",
"h  c #AB9A86",
"j  c #A2968A",
"k  c #AC968D",
"l  c #A5998D",
"z  c #AA9C8D",
"x  c #A09596",
"c  c #AA9793",
"v  c #A59B92",
"b  c #A99D93",
"n  c #A39B9C",
"m  c #AD9D99",
"M  c #B29994",
"N  c #B29D9A",
"B  c #B2A28F",
"V  c #ACA196",
"C  c #AEA39B",
"Z  c #B5A593",
"A  c #BAAA96",
"S  c #B2A39C",
"D  c #B9A39E",
"F  c #B2A89D",
"G  c #B9AC9F",
"H  c #A49EA1",
"J  c #A89EA2",
"K  c #A7A0A1",
"L  c #ABA3A5",
"P  c #ACA6A9",
"I  c #AEA9AC",
"U  c #B3A5A4",
"Y  c #B9A7A4",
"T  c #B6AAA5",
"R  c #BCAAA5",
"E  c #B4A6A9",
"W  c #B5ACAC",
"Q  c #BAADAD",
"!  c #BBB0AE",
"~  c #B4AEB1",
"^  c #BAAEB1",
"/  c #B6B0B2",
"(  c #BCB3B4",
")  c #BEB8B7",
"_  c #BDB6B9",
"`  c #BEB9BA",
"'  c #C3AC9D",
"]  c #C0A7A2",
"[  c #C1ADA1",
"{  c #C5B0A4",
"}  c #CAB0A4",
"|  c #C5B4AD",
" . c #C8B4AA",
".. c #C6B9AD",
"X. c #C2B5B5",
"o. c #C8B6B4",
"O. c #C3BAB5",
"+. c #CABCB3",
"@. c #C1B6B9",
"#. c #C2BCBD",
"$. c #C8BDBD",
"%. c #C7C0B6",
"&. c #CBC1B5",
"*. c #C5C0BF",
"=. c #CDC3BB",
"-. c #CFC8BD",
";. c #D2C3BD",
":. c #D1C8BF",
">. c #C5BEC1",
",. c #C9BFC2",
"<. c #C6C1C2",
"1. c #CAC3C4",
"2. c #CCC6C9",
"3. c #CEC9CB",
"4. c #D1C7C0",
"5. c #D4CAC3",
"6. c #D2C6C8",
"7. c #D3CCCC",
"8. c #D9CFCC",
"9. c #D7D0C7",
"0. c #DAD0C5",
"q. c #D6D0CB",
"w. c #DAD3CD",
"e. c #D3CED1",
"r. c #D5D1D3",
"t. c #DBD5D3",
"y. c #DED8D6",
"u. c #D7D2D8",
"i. c #D9D5D9",
"p. c #DEDADA",
"a. c #E1DDDC",
"s. c #E4E1DE",
"d. c #DFDEE1",
"f. c #E2DEE1",
"g. c #E6E2E2",
"h. c #E8E5E4",
"j. c #E9E8E5",
/* pixels */
"w.3.#.,.>.>.>._ ( _ 2.I * 0.8.:.:...=.5.9.9.9.q.G Z y.9.q.w.y.;.>.u.i.f.o.N f.1.2.$.#.,.( ,.$.o.o.r ",
"8.e.@.>.^ _ >.@._ @.,.J 2 h.#.2.e.#.2.7.r.3.3.r.v %.d.<.e.3.3.<.>.,.,.e.J k g.,.2.$.#.$.$.#.@.#.2.a ",
"4.#.( @._ >._ >.@.>.@.p 2 a.#.Q *.~ / #.*.*./ *.y %.i.` ,.>.` ( ` >.>.,.J j g.1.,.#.Q 1.<.$.1.,.#.p ",
";.>.#.#.>._ @.#._ >.,.x 2 a.#.X.*.` O.<.*.) ) *.p %.p.*.>.1.#.>.,.>.,.3.J q h.6.1.! X.2.2.6.X.X.,.0 ",
"1.3.>.>.>.( _ ,.@.@.>.H q s.` *.*.2.*.*.) ~ *.<.r $.i.>.2.>.2.,.,.,.,.3./ j s.2.X.#.6.<.<.6.Q X.2.y ",
"=.e.` ,.@._ >.,._ Y @.r u t.*.#.#.*.*.*.) ) *.<.y ,.u.E 1.>./ >.>.( >.>.W q s.2.$.<.1.2.2.1.( ,.#.6 ",
"5.2._ >._ ,.~ J Q #.<.P j w.` *.*.*.*.#.O./ *.2.0 ;.e.^ >.@.>.>.>._ ,.>.I q t.,.#.2.<.$.1.( X.,.Q - ",
"=.6.#.^ ^ N c ^ ( _ <.L u q./ ) #.*.*.) ~ / %.<.e -.u.,.,.,.@.U ( >.>.2.~ q a.<.1.$.$.1.$.X.1.O.$.r ",
"7.e.( U N E ^ _ ( _ >.J u y.` ) <.( ( ( W / *.<.9 =.u.,.1.#.@.^ ,.>.>.3.~ i a.2.$.$.2.$.@.X.D X.6.n ",
"5.r.~ E @.( @._ ( ` >.P t o.C ` *._ T ( #.*.*.<.9 =.u.#.^ _ 2.,.,.,.,.,.~ p p.,.#.#.,.<.1.( M X.2.a ",
"8.e.^ >.3.>.@.>.>.>.,.H 1  .S #.` ( V F *.) ` <.y +.>.>.@._ ,.>.,.,.,.,.~ c f.7.6.7.r.7.7.7.7.7.6.p ",
"..J 8 H H a w a d d p . 3 w.| *.( ( T ) #.( ` *.0 5.2.<._ ( >.>.>._ ,.e.~ 9 X.n n a n L K J P P H O ",
"A l q j j b l j m v V z h 7.#.*.( O.! *.) ) #.` 0 2.u.,.>.,.,.>.( >.>.,.I $ A T S F z j v b l l l k ",
"i.y.a.8.+.;.p.7.d.6.u.2.z u.#.#.*.*.Q Q ` *.*.` 6 2.u.,.,.2.,.>.@.>.>.3.I 3 j.f.r.7.! X.;.e.t.y.y.a.",
"#.` >.` E U ^ _ _ / ~ I t 5.@.~ ( #.Q ! O.` <.>.9 4.u.>.3.,.,._ >.>.1.1.I j y.` _ ^ ( T W U ( >.` #.",
"` ` / #.#.>.>.#._ _ #.I t 5.1.) ( ) ( #.#.#.` >.9 $.u.,.,.,.>.>.^ 1.>.,.P v t.~ P ^ <.>.( S / <.<.2.",
"^ _ m T ` ` <.>.>.( >.I t w.#.~ T ! ` <.-.*.` <.7 -.e.>.>.,.>.^ _ ,.,.3.I H g.#.~ / ( #./ $._ _ <.^ ",
"#.#._ ~ ` <.` ( ` ` ` n t a.) V R =.~ *.1.*.<.) # %.1.1.>.( >.@.>.,.,.3.H r 7.#.#.( ~ Q U ~ ( ~ _ #.",
"1.>.>.<.` <.` ` ` <.>.n t s.) W k *.! ) *.#.` W o | 2.>.,.E @.>.,.,.>.2.J r ,.@.#.E W @.#.>.#./ ` 1.",
"( ` ` #.` ~ ` <.>.` <./ h w.*.#.Y F ! ! #.<.~ C &  .2.#.,.E E ,.>.>.>.,.~ c a.>.#.^ W L ~ _ _ _ ` ` ",
"_ ` #.>.>.>.` >.>.#.>.I 3 5.*.*.O.T ( ( O.>.) ` r ,.,.>.@.Y ,.,._ ,.,.,.L l a.@.` >.<.>./ >.#.` >.#.",
">.>.>.>._ / ` ` ` ` >.~ t s.<.#.<.Y N z ( #.( ) w ,.u.>.@.^ >.@.#.2.>.>.I l u.( _ _ / >.~ / #.<.<.>.",
">.>.~ Q / / >./ >.>.<.I u s.<.) ( ( ) T *.*.*.~ - $.,.,.,.^ ] >.>.2.,.,.~ j 7.( / I / ` ` / ` >.#._ ",
"/ ` / / _ >._ I I _ ` i 0 s.<.<./ <.` W <.*.( / - $.>.P >.^ ~ ^ >.>.>._ H j q._ >.>.<.>.<./ / <._ I ",
"= > & & > > > , > > 1 : < V 7 1 , > : : : , - > @ k 6 & - - > , 9 1 , : # ; b 7 , 9 6 6 , , > 6 5 = ",
"&.| 7.5.9.5.w.w.r.i.w.-.4 ..%.&.&.O...=.=.&.! &.3 B 8.w.8.5.w.5.4.w.w.8.+.4 &.7.{ [ ;.=.4.+...O.-.4.",
"Q F 7.e.3.3.2.#.<.<.3._ l h.` *.3.3.2.*.` #.R O.- +.e.7.2.2.r.<.2.<.( 2._ u q.2.` _ <.1.3.>.` >.<.e.",
"Q / >._ ` ` ` <.` ` >.P u y.( / ) ` ` ) ) #.) W # ;. .E #.O.#.@.O.@.S #.I q y.<.` ` ` _ ` >.<.>./ E ",
">.*.` >.W U ( ` ) _ *.I t a.*.( ( ) ` #.<.` *.` > 4.8.( *.<.*.#.( *.R X.P q t.` ( P / _ ` <.>.<.1.#.",
"_ >.*.<.~ / #.~ ` ) ` I t s.#./ W *.#.#.) ) ` *.* 4.r.#.` <.#.! #.2.#.+.~ u a.>.` #.<.O.O.2.>.` ` ` ",
"` >.<.>.>.>.( ~ _ / ` C u a.` ! F ) ` *./ E U / > ;.e.#.$.#.#.U ) <.X.@.L u a.>.^ Q _ ( P ( 1.>.` ` ",
">.>.>.>.` #._ / ` ~ ) s u s.#.) W ! ) ` #.m k T 1 &.e.<.$.#./ v E O.O.<.K j i._ ( _ ( _ / I ` >.` ` ",
"` ` >.` #.` >.` / / ` P y y.` ` ) *.) ` *./ ( ) : =.y.*.<.*.O.N Q U ( *.~ u p.*.~ ! >.*.` ` / >.` #.",
">.` >./ W ( / >._ / >.p u s.` / / *.*.` %.) ( / : -.r.*.#.#.@./ #.X.@.1./ l p.*.` ` >.>.` >.<.<.>.#.",
">.<.` _ ` _ _ P / ` <.P q s.` ` *.) ` *.` ! ~ #.0 4.r.` R @.Q #.*.*.#.*.W u y.#.<.` ` <.>.<.<.<.( ` ",
"<.2.<.~ / _ ` / >.<.3.P u s.` ) ` *.) ) *.*.*.*.y &.) T $.*.*.#.#.*.*.1./ t 7.#.<.<.<.1.<.<.3.2.2.@.",
"8 i d 8 6 i i 8 i a a 5 t a.! W *.) ! #.( ( ) #.7 ' #.! O.#.#.( #.1.<.*.` t ) d a 8 y d p p d 8 e w ",
"2 V V V l u v b v b l 3 B t.) T ( ( ) #.) ) T ~ : ..e.O.#.#.<.( ! 1.*.1.) : B C C F F V H V H V V 3 ",
"&.d.i.r.7.r.y.p.7.7.w.#.V s.1.~ F ( ) *.*.*.#.W > :.q.#.>.<.<.<.#.1.*.2./ 2 s.g.p.a.g.r.r.y.a.d.f.U ",
"4.3.( / @.( #._ ( W / L j w.) ) ` ` ) #.#.#.*.#., :.3.` #.#.O.` 1.*.*.5./ t a.2.<.*.! ( <.*.<.3.,.e ",
"7.3._ ^ _ _ >.@.^ >.^ J j w.` #.*.*.) *.#.) ` *.9 O.<.` ) *.! ! 1.#.#.<.n q t.2.1.<.! O.2.1.<.$.Q 0 ",
"7.>.` / _ >.^ ^ _ ,.>.P q r._ O.` *.) #.*.<.#.*., %.2.#.( #.<.#.( 1.#.*.E 2 a.#.) 2.2.#.>.<.X.1.,.- ",
"7.7._ _ ^ _ Q @.>.,.,.P t 7.` O.) / ! ) *.*.*.*.q 4.r.) W ` <.1.4.( X.2.E u a.^ ~ 1.1.2.,.X.$.2.,.0 ",
"q.7.( >.^ m E _ _ _ _ H t a.#.<.` ! ` #.*.( ( *.0 5.2.! W *.#.<.<.*.*.1.W j a.^ ( 1.*.5.,.4.,.2.<.y ",
"$._ #.#.X.f N _ @.( #.J t s.<.*.( ) #.#.*.) ( <.y %.2.` ( *.O.#.O.O.<.>.~ j a.$.X.,.,.<.#.@.2.@.2.r ",
"o.Q @.@.>.^ Y >.#.>.<.L t s.*.*.! ( *.*.) *.#.<.u { 1.<.#.#.<.#.( Q ^ ^ K j a.1.#.<.2.,.X.X.Q X.#.y ",
"} ] ( @.#.,.@.>.>.#.$.I t s.#.! ) ! ` *.#.#.` *.q ..7.#.#.#.*.1.$.#./ O.n j g.$.1.$.$.6.$.,.X.( _ e ",
"o.#.U #.>.,.Q @.>.>.<.P t a.#.) W ! *.*.#.#.*.<.y +.7.#.*.*.*.1.1.2.<.2.L j g.1.2.,.#.2.#.2.#.>.#.r ",
"w.7.^ #.#.>.Q D _ _ @.~ u 6.E ( O.` <.>.~ E ~ C , &.r.*.( ( W ( I / W a % l h.2.X.#.Q ,.O.1._ m T e ",
"t.e.,.>.>.,.>.^ _ @.>./ 1 c % , 6 6 6 8 5 > 5 + + Z s 6 O = O - # # # o   Z g.1.#.#.| ,.E ,./ M R e "
};
