/* XPM */
static char *wallbest[] = {
/* columns rows colors chars-per-pixel */
"50 50 55 1 ",
"  c #6B7117",
". c #6D7219",
"X c #717416",
"o c #72751B",
"O c #6D6E25",
"+ c #6E6E2B",
"@ c #6E7121",
"# c #6F702C",
"$ c #727423",
"% c #767A20",
"& c #73742C",
"* c #76782E",
"= c #6C6C31",
"- c #67653B",
"; c #68663B",
": c #6A693E",
"> c #747632",
", c #777931",
"< c #797A35",
"1 c #707038",
"2 c #797B3B",
"3 c #6E6D41",
"4 c #706E44",
"5 c #716F4F",
"6 c #747745",
"7 c #777845",
"8 c #797A45",
"9 c #73724B",
"0 c #7C7D4B",
"q c #6C6951",
"w c #6E6C58",
"e c #747357",
"r c #797755",
"t c #7B7A54",
"y c #74725C",
"u c #7E7D5C",
"i c #726F60",
"p c #767363",
"a c #797665",
"s c #7D7C65",
"d c #7A7769",
"f c #7C7B6D",
"g c #7E7C71",
"h c #807F68",
"j c #807F72",
"k c #7D8025",
"l c #7F8044",
"z c #808152",
"x c #828261",
"c c #828175",
"v c #888770",
"b c #868579",
"n c #88877C",
"m c #8A897E",
"M c #8C8A80",
/* pixels */
"$0cjjjjhggc1@>dfffffffge@$ylncggcgcll=lgggggggfgw=",
"<bgjjjcgnMcfosgffgfffffg,,bcccgcgcgclklgggfgggffl1",
"<bgjlcgcglMlofggffffgfgg,,lcgccgcggcl@lgfgffigggc6",
"<cjjngcggggsXlggffffffgg,@igcggcgcgcg1lcfffffffgc6",
"4ngccgcggccs.ugfffffffgg>@wcggccgcgcl@lgffgfffigl1",
"1ccgcgggcgcf.aggffffffgg>6lcgclgcgccl-gggfggiggfcl",
"2bgcnMgbgclxougggffffffg>kngcgnncggcclggigggggffc6",
"tlcgglggccMxouggfffffgfg<1ccgcgggcgcl lggggiggffll",
"7lnnggcccccf.lcgffgggggn,,ccggcggcgllllgllggggggg6",
"2bcggglMcgld.ugggggggggl,,nMcccgcgglkkllwgglggglc6",
"@innbbbbbbMw.3nlgggccgcp@@alccnnccggOk-klggggcgclk",
".--q3-3333-+@Oq------q-=oo+3q--q--qq @  -qq--q-q- ",
".,l0l08l90looo5e5iele666%$1e6ar0llll O=lllllllllk ",
"*vnnnnnnnnmzo0cclnnlccln*1lcglnlgcgglklngcnnbnnnll",
"<mnbbbnbbnnxolMgccngcgnM,,cgcgccgcgcl;nMcnnnbnbnnl",
"<Mnbbnnbnbnxolncggcgggcl,,nggcgccgcglklnnncnbbbbnl",
"kMcnnnnnnnMn3lcgcgcggcgc41ngggcggcgcllcnnnnnbbbncl",
"lnnbcncccnMlklccgggccgcc6kcngggcccccl-cMnnncbnbbnl",
"lcbnnbnnnnMg+lcgcgcgccgc>kbnggcggggcl=lMbbcncncnnl",
"lnbbbbnnnnMlllcclcgcgggnk1clgcgccggcgklMbbbbnnncgl",
"kncnnnnccnnl@lcgnccgcgnnk1ngcccgcgcclkgnnbcnnnnnnl",
"lcbbnncnncnnklccgcgggglc63ncgggcgggclllnMllcncnnnl",
"6nMMMMnnMMMlkwnnngngnnng=&lMcnnnccggl-lnMlkgnMMMgk",
"@wglgglfgglqO-iligigppiw@@qdpppiigll-l-llllllgggw ",
" @-1=31#-:=k @q-1:1q=:=+k 6:111=l-kl=k-=-lqll-l:k ",
"@lgglcclggllOklglclllnlik.lllMMlMllgk lglglllglglk",
"kMcccccccgMl lMcnccgnccn&knnbnMnnnnnlklgggggggcgll",
"llgcgnlcggnn.lngcggcgcnlk1nnlnnncncnl-lnggcggggccw",
"lcgcggcgcgcl:gnggcgcccgw=lMbMnnncnnnlkgggggccgggl=",
"lcccgcccgcclklggggcggcce knbMMnnnnnngllngccgcggcnl",
"=lcgggcgcgnc@lcgnlcggcnl@kMbncnccnnnlllMgcgcgcggnl",
"lMggcggcggcl1lccccgcgcgc6knncnnnnnnnlOlccgcgcgcgll",
"6Mccgccgcgcl:lnccgclncgnl=lgnnnnnnbngklnggcggnggll",
"1lcccggcgcclklnggcgcgcgcl lgncnccnnnl lngggggggnw ",
"6cccgggnglll-lgcggggcggckkklnnncnnbnlllncgggggnw  ",
"=incnlllll==kwgncnngnnnn- klnMMcMMnnqkwlnnnnngl- k",
"@=q--=@k;kk.= ---------q kk -qwqlq-l k----qqq-Ok =",
".klwll=kk   k  klwlqllql  qlllllll-l  kllllll -lkk",
"kncclnpq     O liggglgglkklglggnlgglk lggggnlllclq",
"6lgcgggllllk@k3lgggggggg-kcggggggggcl=lglgggicgggl",
"lngcgclcMccl:lggiggggigglkcgcgcggcgclklkgglqlggggl",
"lccggcnggccgklgggggggggg=3ngccggcggcl k-iw-llggggl",
";lgccggccccgkkilgggggiggklnggcccgcgcgkk --klgggggl",
"lngcgccgggglkqgggiggggggk=ngggnlcgggl= lkllgcgngll",
"lMccgcgcggnc lgggggggggg==lngcgcggccl-llcgcggngggl",
":lggggcgcgnl lgglggggggnlkngcgcgcggclklcgcggggcggl",
"lcgcgcgggcgl:lgggggggglnklcggggggcgbl=lccgggggggnl",
"-gnncnnncncikicccgggggw-O3gncnnccglklllcnncnnnnnl-",
"kqwilliplpi=k wiiiwiil-k .qiiilflqO k -lwiiwliliq ",
"k = --=-OO-k  O=O=OOOO   kkOOOOO-kk  kk-  -k---k k"
};
