/* XPM */
static char * wallfinal_xpm[] = {
"50 50 82 1",
" 	c #72751B",
".	c #644D3A",
"+	c #624935",
"@	c #705D4A",
"#	c #6A5542",
"$	c #67513D",
"%	c #786B57",
"&	c #837D6D",
"*	c #807764",
"=	c #736654",
"-	c #5D4F41",
";	c #614632",
">	c #6D5A45",
",	c #72644E",
"'	c #8A8474",
")	c #878172",
"!	c #8C8779",
"~	c #847F71",
"{	c #7A7463",
"]	c #6D6558",
"^	c #615545",
"/	c #5D4835",
"(	c #796F5C",
"_	c #756E61",
":	c #5E5548",
"<	c #5C412D",
"[	c #6B5D4B",
"}	c #777160",
"|	c #7C7568",
"1	c #6F6858",
"2	c #635A4B",
"3	c #60442F",
"4	c #BD9842",
"5	c #8D897A",
"6	c #736B5B",
"7	c #605748",
"8	c #A2783C",
"9	c #C6A740",
"0	c #756954",
"a	c #685F53",
"b	c #5B4532",
"c	c #7F8226",
"d	c #636917",
"e	c #908C7E",
"f	c #84806F",
"g	c #5A3E2B",
"h	c #787B21",
"i	c #7F8124",
"j	c #7D7867",
"k	c #52473A",
"l	c #544333",
"m	c #656C17",
"n	c #665D51",
"o	c #5D5445",
"p	c #564D41",
"q	c #B3B0A9",
"r	c #A2814F",
"s	c #7F7968",
"t	c #53493D",
"u	c #7A725E",
"v	c #8F8C80",
"w	c #533D2C",
"x	c #57412F",
"y	c #4F3622",
"z	c #69523E",
"A	c #593925",
"B	c #533F30",
"C	c #6B6355",
"D	c #949086",
"E	c #918E82",
"F	c #959289",
"G	c #77715E",
"H	c #69604F",
"I	c #6F6857",
"J	c #5B4A3A",
"K	c #533623",
"L	c #533926",
"M	c #645846",
"N	c #4F311C",
"O	c #686F16",
"P	c #51331E",
"Q	c #4F2E19",
"                      .....++++++                 ",
"                      @@@@@@@@##++                ",
"                 .$$##%&&&***&*=-.+;+             ",
"                #>>@>,*'))''!~~{]^-../            ",
"               .>(_(((&)'~~'~'~~&]^:^/<           ",
"              #[=_}}|~~)~''~~~''~122^+3           ",
"      44     .>%}}{|~5!'''~'~'~'~627^+;           ",
"     4884 99.@0}|}*~!!'~~''''~''~&_a^^.b   c      ",
"     d44d98+#(||**'e5''f''''f'&'''&]77-bghi       ",
"      dd 9+@%|j|*''5''''f''&''''''~]22-klgm       ",
"         +#(j*{&'55''''''f''&'''~!~6n2oplbg  qq   ",
"        +[%{j&&'5555'''''''''''''!~&_2ppkklg rq   ",
"       <+@{{*&)555'''''''''''''''''!s]opttlg dd   ",
"       <;@%%u)55555''''''''''''''''!v~_ottlw      ",
"       3+#,,%'e5'5''''''''''''''!'!~!v~]2pkbx     ",
"       b+>,,u'ee5555'''''''''''5)!!!~!5~_pkklx    ",
"       +#>0uj5555555'''''''''''5!)!!!!v5jptply    ",
"      3z,,%f5555555'e'e555''''''!))55!55}ottlx    ",
"      3z,uf'555''555e5e'5'5''''e!!!!55vv|pttkkl   ",
"     33z%f555555555''e'5555'''''v!!v!!!5|pttkklw  ",
"    A+>%f'e55'555555555ee'eee''e!!!!!!!v}ptttttklB",
"    3.,f55'55!55e'5'5555eeeeeeeev!!!!!!!}:tpttttlB",
"    3.,*'ee5'5!5'e'5555eeeeee'eev!!!!v!}]:ppttttBB",
"   ;+z0*f'55e55!e'e555eeeeeeeeee!v!!!vsCnn:pptttBw",
"  <+>0*&ff'eDe!!!!55eeeeeeeeeeeeveEv!{1n222:ttttlw",
"  <$,*&&f&feeeeeeee5eeDeeeeeeeeeeevv~12n2222:tttlw",
"  3#*&&&f&ff!EFFFDDeeeeeeeeeeeeFe)jj}C2222227ottll",
" z#=*)&&&ff&)eEEeeDDDeeDeeeeeeee'jGG1n22222277otly",
"g$(&&&&&fff&ffff''eDDeeeDDFDFef*jjGH2H22222777:olB",
"gz{f&&&&sfffffffffeFFDFDe555e5**GGGH22222277::7$ly",
"gzuf&&&&ff&ffffff)eDFFFefj**u***GGGH22272777:::ply",
"A${f&&&&sf&&ffff'!!!!!5's{uuuu%%GIHH22227777:::pky",
"A$u&s&&&&&&f&f&f5D5ssssssj{{{}}GGC222277777o77oJBy",
"A+](Gj&&&&&&&f&&5F!|jjjjjjj{}}{{GC2227777777oo7oBK",
"Ab[]CGsss&&&ffff!E!sjjjsjjj{j}__GC22727777o7ootJwK",
"AbH]CI6%Gj&ffff!!)sjjjsjjjjjj}1]CH222727777o7oJlL ",
"A<MHCCCCCGjjjs&!)jjjjjjjjjjj{1]aC2222:7:7o77JJlN  ",
"  x$HCCCCI6666Gssjjjjjjjjjj}_]]aCCn2::::o77tkLLO  ",
"hiKbHCCCIICCIC6G{{j{jjjjjj}_]aC]aaa27:::7oJJxP    ",
" iA/HCCCCHCCCII1Gjjjjjjjj{1]aCaaaaCn22::2tlxP     ",
" OLb.HCHCHHIIIHI=G{jjjjj|_]a]aaaannn2:::tJxP      ",
"  dqx.HCHIIHHICI]IGjjjjjs|]]aa]]an222:oolxP       ",
"   dP/HCCCHCHIHICI6G}{{{}_]aa]aaaann2JlbxP        ",
"    x/HCHCCCCHIH]I6616116]a]aa]aan22owNNN         ",
"     bJMHH,HIHII=6166=]6]]CCCaCan-/BbLdO          ",
"      x/HHHH2HHHCIII]6]]]]CCaan27BKKP             ",
"       bbb//3/l/^I116I1]]]C]C^bxBg                ",
"        PPyPyPNNb2H[[[[2[n222JKNP                 ",
"                gx<ggxggggwggL                    ",
"                 QNQQQQQQQQNNN                    "};
