/* XPM */
static char *wallpart2[] = {
/* columns rows colors chars-per-pixel */
"50 50 13 1 ",
"  c #636917",
". c #656C17",
"X c #686F16",
"o c #72751B",
"O c #787B21",
"+ c #A2783C",
"@ c #7F8124",
"# c #7F8226",
"$ c #A2814F",
"% c #BD9842",
"& c #C6A740",
"* c #9CA8AD",
"= c #B3B0A9",
/* pixels */
"oooooooooooooooooooooooooooooooooooooooooooooooooo",
"oooooooooooooooooooooooooooooooooooooooooooooooooo",
"oooooooooooooooooooooooooooooooooooooooooooooooooo",
"oooooooooooooooooooooooooooooooooooooooooooooooooo",
"oooooooooooooooooooooooooooooooooooooooooooooooooo",
"oooooooooooooooooooooooooooooooooooooooooooooooooo",
"oooooo%%oooooooooooooooooooooooooooooooooooooooooo",
"ooooo%++%o&&oooooooooooooooooooooooo##ooooo#oooooo",
"ooooo %% &+&ooooooooooooooooooooooooo@OOoO@ooooooo",
"oooooo  o&& ooooooooooooooooooooooO@#.O.OO.ooooooo",
"ooooooooo  oooooooooooooooooooooooo@OO**OO.oo==ooo",
"ooooooooooooooooooooooooooooooooooo.O*$$*.ooo$=ooo",
"oooooooooooooooooooooooooooooooooooo. ** ==oo  ooo",
"oooooooooooooooooooooooooooooooooooooo  =$=ooooooo",
"oooooooooooooooooooooooooooooooooooooooo== ooooooo",
"oooooooooooooooooooooooooooooooooooooooo  oooooooo",
"oooooooooooooooooooooooooooooooooooooooooooooooooo",
"oooooooooooooooooooooooooooooooooooooooooooooooooo",
"oooooooooooooooooooooooooooooooooooooooooooooooooo",
"oooooooooooooooooooooooooooooooooooooooooooooooooo",
"oooooooooooooooooooooooooooooooooooooooooooooooooo",
"oooo@ooooooooooooooooooooooooooooooooooooooooooooo",
"ooooo@oooooooooooooooooooooooooooOOooooooooooooooo",
"oooooOOooooooooooooooooooooooooooX@@oooooooooooooo",
"ooooXOOooooooooooooooooooooooooooo@OOoooOooooooooo",
"ooo@OXXoooooooooooooooooooooooooooXOOo@Ooooooooooo",
"oooOOoooooooooooooooooooooooooooooXOOO&&oooooooooo",
"oooXXooooooooooooooooooooooooooooooXX&++&ooooooooo",
"ooooooooooooooooooooooooooooooooooooo && %%oooooOo",
"oooooooooooooooooooooooooooooooooooooo  o+%oooooo@",
"ooooooooooooooooooooooooooooooooooooooooo  ooooooO",
"ooooooooooooooooooooooooOooooooooooooooooooooooooo",
"ooooooooooooooooooooooooOOoooooooooooooooooooooooo",
"ooooooooooooooooooooooo==Ooooooooooooooooooooooooo",
"oooooooooooooooooooooo=$=Xoooooooooooooooooo@@Oooo",
"oooooooooooooooooooooo== oooooooooooooooooooo@OOoo",
"oo@@ooooo@oooooooooooo  oooooooooooooooooooooXOOoo",
"ooo@OOoO@oooooooooooooooooooooooooooooooooooooXXoo",
"O@@XOXOOXooooooooooooooooooooooooooooooooooooooooo",
"o@O==XOOXo@@ooo@oooooooooooooooooooooooooooooooooo",
"oX=$$=OXooo@@o@ooooooooooooooooooooooooooooooooooo",
"oo == oooooOOXOoooooooooooooooooo@@ooooOOooooooooo",
"ooo  ooooo**OXXooooooooooooooooooo@Oo&&Ooooooooooo",
"ooooooooo*$$*oooooooooooooooooooooXOO&+Ooooooooooo",
"ooooooooo ** o**ooooooooooooooooooXOO  Xoooooooooo",
"oooooooooo  oo$*oooooooooooooooooooXXooooooooooooo",
"oooooooooooooo  oooooooooooooooooooooooooooooooooo",
"oooooooooooooooooooooooooooooooooooooooooooooooooo",
"oooooooooooooooooooooooooooooooooooooooooooooooooo",
"oooooooooooooooooooooooooooooooooooooooooooooooooo"
};
