/* XPM */
static char * playerfinalright_xpm[] = {
"50 50 192 2",
"  	c #727423",
". 	c #7C7D4B",
"+ 	c #828175",
"@ 	c #807F72",
"# 	c #807F68",
"$ 	c #7E7C71",
"% 	c #707038",
"& 	c #6E7121",
"* 	c #747632",
"= 	c #7A7769",
"- 	c #7C7B6D",
"; 	c #747357",
"> 	c #74725C",
", 	c #7F8044",
"' 	c #88877C",
") 	c #6C6C31",
"! 	c #6E6C58",
"~ 	c #797A35",
"{ 	c #868579",
"] 	c #8C8A80",
"^ 	c #72751B",
"/ 	c #7D7C65",
"( 	c #777931",
"_ 	c #7D8025",
": 	c #726F60",
"< 	c #747745",
"[ 	c #717416",
"} 	c #706E44",
"| 	c #6D7219",
"1 	c #7E7D5C",
"2 	c #797665",
"3 	c #67653B",
"4 	c #797B3B",
"5 	c #828261",
"6 	c #7B7A54",
"7 	c #6B7117",
"8 	c #777845",
"9 	c #6E6D41",
"0 	c #767363",
"a 	c #6D6E25",
"b 	c #6C6951",
"c 	c #6E6E2B",
"d 	c #797A45",
"e 	c #73724B",
"f 	c #716F4F",
"g 	c #F4F3F2",
"h 	c #D6BCBC",
"i 	c #C9A3A3",
"j 	c #C69D9D",
"k 	c #E0CDCD",
"l 	c #F3EEEE",
"m 	c #797755",
"n 	c #76782E",
"o 	c #888770",
"p 	c #8A897E",
"q 	c #808152",
"r 	c #DFCACA",
"s 	c #B47171",
"t 	c #B44C4C",
"u 	c #B52D2D",
"v 	c #BB2C2C",
"w 	c #BC3535",
"x 	c #B45757",
"y 	c #B37A79",
"z 	c #BB928C",
"A 	c #C16661",
"B 	c #CB2E2E",
"C 	c #D23232",
"D 	c #D12F30",
"E 	c #CC5652",
"F 	c #C18A83",
"G 	c #BD8C82",
"H 	c #BE8C8A",
"I 	c #D2B4B4",
"J 	c #68663B",
"K 	c #C69189",
"L 	c #E3CEBD",
"M 	c #FCF6E2",
"N 	c #EB9E92",
"O 	c #D84D4A",
"P 	c #DB5955",
"Q 	c #D53D3C",
"R 	c #DB5E59",
"S 	c #DB615C",
"T 	c #E3D2D2",
"U 	c #B96868",
"V 	c #C32D2D",
"W 	c #DE7A72",
"X 	c #F9E3D1",
"Y 	c #F8DCCB",
"Z 	c #E0736C",
"` 	c #DA5451",
" .	c #F2C4B5",
"..	c #E79389",
"+.	c #D12E2F",
"@.	c #C38A89",
"#.	c #CDAAAA",
"$.	c #E17871",
"%.	c #FCF1DD",
"&.	c #F4CBBB",
"*.	c #D64442",
"=.	c #EADEDE",
"-.	c #B06A62",
";.	c #DDC7B7",
">.	c #D74B48",
",.	c #F7EBD8",
"'.	c #C59D96",
").	c #DBC5C5",
"!.	c #C19493",
"~.	c #E4867D",
"{.	c #B76967",
"].	c #B23635",
"^.	c #FBEDD9",
"/.	c #EEB3A6",
"(.	c #AE3737",
"_.	c #F4E7D3",
":.	c #F9E8D6",
"<.	c #D8514E",
"[.	c #A8514C",
"}.	c #6F702C",
"|.	c #6A693E",
"1.	c #EFE5E5",
"2.	c #B58A88",
"3.	c #D1BDAE",
"4.	c #EBA79B",
"5.	c #EA9A8F",
"6.	c #F6F0DC",
"7.	c #D59489",
"8.	c #A02828",
"9.	c #B9756E",
"0.	c #AE2929",
"a.	c #C53B39",
"b.	c #C84744",
"c.	c #C53837",
"d.	c #C66D66",
"e.	c #D2C4B3",
"f.	c #A75C5D",
"g.	c #9D2B2B",
"h.	c #9E2323",
"i.	c #A86661",
"j.	c #C89A9A",
"k.	c #A16663",
"l.	c #8E5145",
"m.	c #97594C",
"n.	c #985A4C",
"o.	c #9A5E50",
"p.	c #934F46",
"q.	c #A8726E",
"r.	c #C9C4BB",
"s.	c #AB9D83",
"t.	c #CAB996",
"u.	c #C4B594",
"v.	c #B4A586",
"w.	c #7F7666",
"x.	c #BDB29C",
"y.	c #DFDDD7",
"z.	c #C4BFB4",
"A.	c #E9D6AD",
"B.	c #EEDBB1",
"C.	c #CDBD99",
"D.	c #433F34",
"E.	c #A5997D",
"F.	c #DDCCA5",
"G.	c #897F69",
"H.	c #AFA48A",
"I.	c #D8D6D0",
"J.	c #C4C0B5",
"K.	c #D8C7A1",
"L.	c #E6D3AB",
"M.	c #EBD8AF",
"N.	c #B8A988",
"O.	c #D5C49F",
"P.	c #F0DDB3",
"Q.	c #B3A994",
"R.	c #D7D5CF",
"S.	c #BBAE92",
"T.	c #C7C2B8",
"U.	c #C5B798",
"V.	c #ADA082",
"W.	c #C0BAAB",
"X.	c #CCC8BD",
"Y.	c #9C9075",
"Z.	c #98907F",
"`.	c #B4AD9E",
" +	c #B5B0A5",
".+	c #9B9382",
"++	c #7B715B",
"@+	c #837A65",
"#+	c #BCB5A8",
"$+	c #BBB3A6",
"%+	c #AAA396",
"&+	c #A59E90",
"  . + @ @ @ @ # $ $ + % & * = - - - - - - - $ ; &   > , ' + $ $ + $ + , , ) , $ $ $ $ $ $ $ - $ ! ) ",
"~ { $ @ @ @ + $ ' ] + - ^ / $ - - $ - - - - - $ ( ( { + + + $ + $ + $ + , _ , $ $ $ - $ $ $ - - , % ",
"~ { $ @ , + $ + $ , ] , ^ - $ $ - - - - $ - $ $ ( ( , + $ + + $ + $ $ + , & , $ - $ - - : $ $ $ + < ",
"~ + @ @ ' $ + $ $ $ $ / [ , $ $ - - - - - - $ $ ( & : $ + $ $ + $ + $ + $ % , + - - - - - - - $ + < ",
"} ' $ + + $ + $ $ + + / | 1 $ - - - - - - - $ $ * & ! + $ $ + + $ + $ + , & , $ - - $ - - - : $ , % ",
"% + + $ + $ $ $ + $ + - | 2 $ $ - - - - - - $ $ * < , + $ + , $ + $ + + , 3 $ $ $ - $ $ : $ $ - + , ",
"4 { $ + ' ] $ { $ + , 5 ^ 1 $ $ $ - - - - - - $ * _ ' $ + $ ' ' + $ $ + + , $ $ : $ $ $ $ $ - - + < ",
"6 , + $ $ , $ $ + + ] 5 ^ 1 $ $ - - - - - $ - $ ~ % + + $ + $ $ $ + $ + , 7 , $ $ $ $ : $ $ - - , , ",
"8 , ' ' $ $ + + + + + - | , + $ - - $ $ $ $ $ ' ( ( + + $ $ + $ $ + $ , , , , $ , , $ $ $ $ $ $ $ < ",
"4 { + $ $ $ , ] + $ , = | 1 $ $ $ $ $ $ $ $ $ , ( ( ' ] + + + $ + $ $ , _ _ , , ! $ $ , $ $ $ , + < ",
"& : ' ' { { { { { { ] ! | 9 ' , $ $ $ + + $ + 0 & & 2 , + + ' ' + + $ $ a _ 3 _ , $ $ $ $ + $ + , _ ",
"| 3 3 b 9 3 9 9 9 9 3 c & a b 3 3 3 3 3 3 b 3 ) ^ ^ c 9 b 3 3 b 3 3 b b 7 & 7 7 3 b b 3 3 b 3 b 3 7 ",
"| ( , . , . d , e . , ^ ^ ^ f ; f : ; , g h i j j j i k l 2 m . , , , , 7 a ) , , , , , , , , , _ 7 ",
"n o ' ' ' ' ' ' ' ' p q ^ . + + , ' r j s t u u u v w x y h k , $ + $ $ , _ , ' $ + ' ' { ' ' ' , , ",
"~ p ' { { { ' { { ' ' 5 ^ , ] $ i z z A B B C C C D C B E F G H I + $ + , J ' ] + ' ' ' { ' { ' ' , ",
"~ ] ' { { ' ' { ' { ' 5 ^ , I s K L M N C C C C C O P Q C R S w t H + $ , _ , ' ' ' + ' { { { { ' , ",
"_ ] + ' ' ' ' ' ' ' ] ' 9 T U V W X Y Z C C C D `  .X ..C +.B C D w @.+ , , + ' ' ' ' ' { { { ' + , ",
", ' ' { + ' + + + ' ] , _ #.w C C P P Q C C C +.$.%.M &.*.C C C C W F k , 3 + ] ' ' ' + { ' { { ' , ",
", + { ' ' { ' ' ' ' ] $ =.-.B C C D +.C C C C C `  .X ..C C C C O Y ;.j , ) , ] { { + ' + ' + ' ' , ",
", ' { { { { ' ' ' ' ] , j w D C C C C C C C C C C >.R Q C C C C *. .,.'.)._ , ] { { { { ' ' ' + $ , ",
"_ ' + ' ' ' ' + + ' ' , !.v C C C C C C C C +.C C C C C C C C C C P ~.{.h _ $ ' ' { + ' ' ' ' ' ' , ",
", + { { ' ' + ' ' + ' ' !.v C C C C C C C O Z >.C C C C C C C C C C B ].)., , ' ] , , + ' + ' ' ' , ",
"< ' ] ] ] ] ' ' ] ] ] , !.E N ~.Q C C C >. .^./.*.D C C C C C *.*.C +.(.h 3 , ' ] , _ $ ' ] ] ] $ _ ",
"& ! $ , $ $ , - $ $ , b #.G _.:.Z C C D R :.M Y <.+.C C C C S  .&.S V [.k , 3 , , , , , , $ $ $ ! 7 ",
"7 & 3 % ) 9 % }.3 |.) _ 1.2.3._.W B C D Q 4.Y 5.Q C C C C C N ,.6.7.8.!.) _ 3 ) 3 , b , , 3 , |._ 7 ",
"& , $ $ , + + , $ $ , , a h z 9.(.0.v V V a.b.c.V V V V V V d.e.e.-.s T _ 7 , $ , $ , , , $ , $ , _ ",
"_ ] + + + + + + + $ ] , 7 , I f.g.h.h.h.h.h.h.h.h.h.h.h.h.h.g.[.i.y r ' , _ , $ $ $ $ $ $ $ + $ , , ",
", , $ + $ ' , + $ $ ' ' | , ' $ j.k.l.m.n.n.m.m.m.n.n.n.n.o.p.q.#.' + ' , 3 , ' $ $ + $ $ $ $ + + ! ",
", + $ + $ $ + $ + $ + , |.$ ' $ $ r.s.t.u.u.u.v.w.u.u.u.u.x.s.y.+ ' ' ' , _ $ $ $ $ $ + + $ $ $ , ) ",
", + + + $ + + + $ + + , _ , $ $ $ z.u.A.A.B.B.C.D.E.B.A.F.G.H.I.' ' ' ' $ , , ' $ + + $ + $ $ + ' , ",
") , + $ $ $ + $ + $ ' + & , + $ ' J.t.C.K.L.M.L.N.O.P.B.A.t.Q.R.+ ' ' ' , , , ] $ + $ + $ + $ $ ' , ",
", ] $ $ + $ $ + $ $ + , % , + + + z.t.C.v.v.F.P.P.P.B.B.P.P.S.R.' ' ' ' , a , + + $ + $ + $ + $ , , ",
"< ] + + $ + + $ + $ + , |., ' + + T.U.L.u.C.M.B.B.B.B.B.P.L.x.' ' ' { ' $ _ , ' $ $ + $ $ ' $ $ , , ",
"% , + + + $ $ + $ + + , _ , ' $ $ + x.F.M.B.B.B.B.M.M.M.F.V.W.+ + ' ' ' , 7 , ' $ $ $ $ $ $ $ ' ! 7 ",
"< + + + $ $ $ ' $ , , , 3 , $ + $ $ X.u.B.B.A.u.v.v.v.v.Y.Z.' + ' ' { ' , , , ' + $ $ $ $ $ ' ! 7 7 ",
") : ' + ' , , , , , ) ) _ ! $ ' + ' ' W.u.t.u.`. +.+++++@+Q.] + ] ] ' ' b _ ! , ' ' ' ' ' $ , 3 7 _ ",
"& ) b 3 3 ) & _ J _ _ | ) 7 3 3 3 3 3 1.#+Q.$+b 7 r.%+&+`.b ! b , b 3 , 7 _ 3 3 3 3 b b b 3 a _ 7 ) ",
"| _ , ! , , ) _ _ 7 7 7 _ 7 7 _ , ! , b , g b , 7 7 b g , , , , , , 3 , 7 7 _ , , , , , , 7 3 , _ _ ",
"_ ' + + , ' 0 b 7 7 7 7 7 a 7 , : $ $ $ , $ $ , _ _ , $ , $ $ ' , $ $ , _ 7 , $ $ $ $ ' , , , + , b ",
"< , $ + $ $ $ , , , , _ & _ 9 , $ $ $ $ $ $ $ $ 3 _ + $ $ $ $ $ $ $ $ + , ) , $ , $ $ $ : + $ $ $ , ",
", ' $ + $ + , + ] + + , |., $ $ : $ $ $ $ : $ $ , _ + $ + $ + $ $ + $ + , _ , _ $ $ , b , $ $ $ $ , ",
", + + $ $ + ' $ $ + + $ _ , $ $ $ $ $ $ $ $ $ $ ) 9 ' $ + + $ $ + $ $ + , 7 _ 3 : ! 3 , , $ $ $ $ , ",
"J , $ + + $ $ + + + + $ _ _ : , $ $ $ $ $ : $ $ _ , ' $ $ + + + $ + $ + $ _ _ 7 3 3 _ , $ $ $ $ $ , ",
", ' $ + $ + + $ $ $ $ , _ b $ $ $ : $ $ $ $ $ $ _ ) ' $ $ $ ' , + $ $ $ , ) 7 , _ , , $ + $ ' $ , , ",
", ] + + $ + $ + $ $ ' + 7 , $ $ $ $ $ $ $ $ $ $ ) ) , ' $ + $ + $ $ + + , 3 , , + $ + $ $ ' $ $ $ , ",
"|., $ $ $ $ + $ + $ ' , 7 , $ $ , $ $ $ $ $ $ ' , _ ' $ + $ + $ + $ $ + , _ , + $ + $ $ $ $ + $ $ , ",
", + $ + $ + $ $ $ + $ , |., $ $ $ $ $ $ $ $ , ' _ , + $ $ $ $ $ $ + $ { , ) , + + $ $ $ $ $ $ $ ' , ",
"3 $ ' ' + ' ' ' + ' + : _ : + + + $ $ $ $ $ ! 3 a 9 $ ' + ' ' + + $ , _ , , , + ' ' + ' ' ' ' ' , 3 ",
"_ b ! : , , : 0 , 0 : ) _ 7 ! : : : ! : : , 3 _ 7 | b : : : , - , b a 7 _ 7 3 , ! : : ! , : , : b 7 ",
"_ 7 ) 7 3 3 ) 3 a a 3 _ 7 7 a ) a ) a a a a 7 7 7 _ _ a a a a a 3 _ _ 7 7 _ _ 3 7 7 3 _ 3 3 3 _ 7 _ "};
