/* XPM */
static char * playerfinalface_xpm[] = {
"50 50 179 2",
"  	c #6C6C31",
". 	c #6E6C58",
"+ 	c #7E7C71",
"@ 	c #7C7B6D",
"# 	c #7F8044",
"$ 	c #828175",
"% 	c #88877C",
"& 	c #74725C",
"* 	c #727423",
"= 	c #6E7121",
"- 	c #747357",
"; 	c #7A7769",
"> 	c #747632",
", 	c #707038",
"' 	c #807F68",
") 	c #807F72",
"! 	c #7C7D4B",
"~ 	c #7D8025",
"{ 	c #868579",
"] 	c #777931",
"^ 	c #7D7C65",
"/ 	c #72751B",
"( 	c #8C8A80",
"_ 	c #797A35",
": 	c #747745",
"< 	c #726F60",
"[ 	c #717416",
"} 	c #7E7D5C",
"| 	c #6D7219",
"1 	c #706E44",
"2 	c #67653B",
"3 	c #797665",
"4 	c #828261",
"5 	c #797B3B",
"6 	c #6B7117",
"7 	c #7B7A54",
"8 	c #777845",
"9 	c #6D6E25",
"0 	c #767363",
"a 	c #6E6D41",
"b 	c #6C6951",
"c 	c #6E6E2B",
"d 	c #797755",
"e 	c #F3EEEE",
"f 	c #E0CDCD",
"g 	c #C9A3A3",
"h 	c #C69D9D",
"i 	c #D6BCBC",
"j 	c #F4F3F2",
"k 	c #716F4F",
"l 	c #73724B",
"m 	c #797A45",
"n 	c #B37A79",
"o 	c #B45757",
"p 	c #BC3535",
"q 	c #BB2C2C",
"r 	c #B52D2D",
"s 	c #B44C4C",
"t 	c #B47171",
"u 	c #DFCACA",
"v 	c #808152",
"w 	c #8A897E",
"x 	c #888770",
"y 	c #76782E",
"z 	c #68663B",
"A 	c #D2B4B4",
"B 	c #BE8C8A",
"C 	c #BD8C82",
"D 	c #C18A83",
"E 	c #CC5652",
"F 	c #CB2E2E",
"G 	c #D23232",
"H 	c #D12F30",
"I 	c #C16661",
"J 	c #BB928C",
"K 	c #DB615C",
"L 	c #DB5E59",
"M 	c #D53D3C",
"N 	c #DB5955",
"O 	c #D84D4A",
"P 	c #EB9E92",
"Q 	c #FCF6E2",
"R 	c #E3CEBD",
"S 	c #C69189",
"T 	c #C38A89",
"U 	c #D12E2F",
"V 	c #E79389",
"W 	c #F9E3D1",
"X 	c #F2C4B5",
"Y 	c #DA5451",
"Z 	c #E0736C",
"` 	c #F8DCCB",
" .	c #DE7A72",
"..	c #C32D2D",
"+.	c #B96868",
"@.	c #E3D2D2",
"#.	c #D64442",
"$.	c #F4CBBB",
"%.	c #FCF1DD",
"&.	c #E17871",
"*.	c #CDAAAA",
"=.	c #DDC7B7",
"-.	c #B06A62",
";.	c #EADEDE",
">.	c #DBC5C5",
",.	c #C59D96",
"'.	c #F7EBD8",
").	c #D74B48",
"!.	c #B76967",
"~.	c #E4867D",
"{.	c #C19493",
"].	c #B23635",
"^.	c #AE3737",
"/.	c #EEB3A6",
"(.	c #FBEDD9",
"_.	c #A8514C",
":.	c #D8514E",
"<.	c #F9E8D6",
"[.	c #F4E7D3",
"}.	c #6A693E",
"|.	c #A02828",
"1.	c #D59489",
"2.	c #F6F0DC",
"3.	c #EA9A8F",
"4.	c #EBA79B",
"5.	c #D1BDAE",
"6.	c #B58A88",
"7.	c #EFE5E5",
"8.	c #6F702C",
"9.	c #D2C4B3",
"0.	c #C66D66",
"a.	c #C53837",
"b.	c #C84744",
"c.	c #C53B39",
"d.	c #AE2929",
"e.	c #B9756E",
"f.	c #A86661",
"g.	c #9D2B2B",
"h.	c #9E2323",
"i.	c #A75C5D",
"j.	c #A8726E",
"k.	c #934F46",
"l.	c #9A5E50",
"m.	c #985A4C",
"n.	c #97594C",
"o.	c #8E5145",
"p.	c #A16663",
"q.	c #C89A9A",
"r.	c #DFDDD7",
"s.	c #AB9D83",
"t.	c #C4B594",
"u.	c #DDCCA5",
"v.	c #7B715B",
"w.	c #C9C4BB",
"x.	c #D8D6D0",
"y.	c #AFA48A",
"z.	c #EEDBB1",
"A.	c #000000",
"B.	c #E9D6AD",
"C.	c #C4BFB4",
"D.	c #D7D5CF",
"E.	c #B3A994",
"F.	c #F0DDB3",
"G.	c #EBD8AF",
"H.	c #E6D3AB",
"I.	c #CAB996",
"J.	c #C4C0B5",
"K.	c #BBAE92",
"L.	c #BDB29C",
"M.	c #C5B798",
"N.	c #C7C2B8",
"O.	c #C0BAAB",
"P.	c #CCC8BD",
"Q.	c #B4A586",
"R.	c #B4AD9E",
"S.	c #B5B0A5",
"T.	c #A59E90",
"U.	c #BBB3A6",
"V.	c #BCB5A8",
"  . + @ + + + + + + + #   # # $ + $ + + $ % # & * = - + @ @ @ @ @ @ @ ; > = , $ + + ' ) ) ) ) $ ! * ",
", # @ @ + + + @ + + + # ~ # $ + $ + $ + $ $ $ { ] ] + @ @ @ @ @ + @ @ + ^ / @ $ ( % + $ ) ) ) + { _ ",
": $ + + + < @ @ + @ + # = # $ + + $ + $ $ + $ # ] ] + + @ + @ @ @ @ + + @ / # ( # + $ + $ # ) + { _ ",
": $ + @ @ @ @ @ @ @ $ # , + $ + $ + $ + + $ + < = ] + + @ @ @ @ @ @ + + # [ ^ + + + + $ + % ) ) $ _ ",
", # + < @ @ @ + @ @ + # = # $ + $ + $ $ + + $ . = > + + @ @ @ @ @ @ @ + } | ^ $ $ + + $ + $ $ + % 1 ",
"# $ @ + + < + + @ + + + 2 # $ $ + $ + # $ + $ # : > + + @ @ @ @ @ @ + + 3 | @ $ + $ + + + $ + $ $ , ",
": $ @ @ + + + + + < + + # $ $ + + $ % % + $ + % ~ > + @ @ @ @ @ @ + + + } / 4 # $ + { + ( % $ + { 5 ",
"# # @ @ + + < + + + + # 6 # $ + $ + + + $ + $ $ , _ + @ + @ @ @ @ @ + + } / 4 ( $ $ + + # + + $ # 7 ",
": + + + + + + + # # + # # # # + $ + + $ + + $ $ ] ] % + + + + + @ @ + $ # | @ $ $ $ $ $ + + % % # 8 ",
": $ # + + + # + + . # # ~ ~ # + + $ + $ $ $ ( % ] ] # + + + + + + + + + } | ; # + $ ( # + + + $ { 5 ",
"~ # $ + $ + + + + # ~ 2 ~ 9 + + $ $ % % $ $ # 3 = = 0 $ + $ $ + + + # % a | . ( { { { { { { % % < = ",
"6 2 b 2 b 2 2 b b 2 6 6 = 6 b b 2 2 b 2 2 b a c / /   2 b 2 2 2 2 2 2 b 9 = c 2 a a a a 2 a b 2 2 | ",
"6 ~ # # # # # # # # #   9 6 # # # # ! d 3 e f g h h h g i j # - < k - k / / / # ! l # m ! # ! # ] | ",
"# # % % % { % % $ + % # ~ # + + $ + # f i n o p q r r r s t h u % # $ $ ! / v w % % % % % % % % x y ",
"# % % { % { % % % $ ( % z # $ + $ A B C D E F G H G G G F F I J J g + ( # / 4 % % { { % { { { % w _ ",
"# % { { { { % $ % % % # ~ # + $ B s p K L G M N O G G G G G P Q R S t A # / 4 % { % { % % { { % ( _ ",
"# $ % { { { % % % % % $ # # $ T p H G F U G V W X Y H G G G Z ` W  ...+.@.a % ( % % % % % % % $ ( ~ ",
"# % { { % { $ % % % ( $ 2 # f D  .G G G G #.$.Q %.&.U G G G M N N G G p *.~ # ( % $ $ $ % $ { % % # ",
"# % % $ % $ % $ { { ( #   # h =.` O G G G G V W X Y G G G G G U H G G F -.;.+ ( % % % % { % % { $ # ",
"# + $ % % % { { { { ( # ~ >.,.'.X #.G G G G M L ).G G G G G G G G G G H p h # ( % % % % { { { { % # ",
"# % % % % % % $ { % % + ~ i !.~.N G G G G G G G G G G U G G G G G G G G q {.# % % $ $ % % % % $ % ~ ",
"# % % % $ % $ # # ( % # # >.].F G G G G G G G G G G ).Z O G G G G G G G q {.% % $ % % $ % % { { $ # ",
"~ + ( ( ( % + ~ # ( % # 2 i ^.U G #.#.G G G G G H #./.(.X ).G G G M ~.P E {.# ( ( ( % % ( ( ( ( % : ",
"6 . + + + # # # # # # 2 # f _...K $.X K G G G G U :.` Q <.L H G G Z <.[.C *.b # + + @ # + + # + . = ",
"6 ~ }.# 2 # # b # 2   2 ~   {.|.1.2.'.P G G G G G M 3.` 4.M H G F  .[.5.6.7.~   }.2 8., a   , 2 = 6 ",
"~ # + # + # # # + # + # 6 ~ @.t -.9.9.0.............a.b.c.....q d.^.e.J i 9 # # + + # $ $ # + + # = ",
"# # + $ + + + + + + + # ~ # % u n f._.g.h.h.h.h.h.h.h.h.h.h.h.h.h.g.i.A # 6 # ( + $ $ $ $ $ $ $ ( ~ ",
". $ $ + + + + $ + + % # 2 # % $ % *.j.k.l.m.m.m.m.n.n.n.m.m.n.o.p.q.+ % # | % % + + $ # % + $ + # # ",
"  # + + + $ $ + + + + + ~ # % % % $ r.s.s.t.u.v.u.u.u.v.t.t.s.s.w.+ + % + }.# $ + $ + $ + + $ + $ # ",
"# % $ + + $ + $ $ + % # # + % % % % x.y.z.u.u.A.u.z.u.A.u.B.B.t.C.+ + + # ~ # $ $ + $ $ $ + $ $ $ # ",
"# % + + $ + $ + $ + ( # # # % % % $ D.E.z.B.u.F.z.z.u.G.H.z.u.I.J.% + $ # = $ % + $ + $ + + + $ #   ",
"# # + $ + $ + $ + $ $ # 9 # % % % % D.K.F.F.z.z.F.F.F.z.z.z.u.I.C.$ $ $ # , # $ + + $ + + $ + + ( # ",
"# # + + % + + $ + + % # ~ + % { % % % L.u.F.z.z.z.z.z.G.z.z.H.M.N.$ $ % # }.# $ + $ + $ $ + $ $ ( : ",
"6 . % + + + + + + + % # 6 # % % % $ $ O.u.G.G.G.G.z.z.z.z.G.u.L.$ + + % # ~ # $ $ + $ + + $ $ $ # , ",
"6 6 . % + + + + + $ % # # # % { % % $ P.t.z.z.B.t.Q.t.B.z.z.t.P.+ + $ + # 2 # # # + % + + + $ $ $ : ",
"~ 6 2 # + % % % % % # . ~ b % % ( ( $ ( P.t.I.t.R.S.R.t.I.t.O.% % $ % + . ~     # # # # # % $ % <   ",
"  6 ~ 9 2 b b b 2 2 2 2 ~ 6 # 2 b # b . 7.P.T.U.b 6 b U.E.V.7.2 2 2 2 2 6   | ~ ~ z ~ =   2 2 b   = ",
"~ ~ # 2 6 # # # # # # ~ 6 6 # 2 # # # # # # j b 6 6 # b j # b # . # ~ 6 6 ~ 6 6 6 ~ ~   # # . # ~ | ",
"b # $ # # # % + + + + # 6 ~ # + + # % + + # + # ~ ~ # + + # + + + < # 6 9 6 6 6 6 6 b 0 % # $ $ % ~ ",
"# + + + $ < + + + # + #   # $ + + + + + + + + $ ~ 2 + + + + + + + + # a ~ = ~ # # # # + + + $ + # : ",
"# + + + + # b # + + ~ # ~ # $ + $ + + $ + $ + $ ~ # + + < + + + + < + + # }.# $ $ ( $ # $ + $ + % # ",
"# + + + + # # 2 . < 2 ~ 6 # $ + + $ + + $ $ + % a   + + + + + + + + + + # ~ + $ $ + + % $ + + $ $ # ",
"# + + + + + # ~ 2 2 6 ~ ~ + $ + $ + $ $ $ + + % # ~ + + < + + + + + # < ~ ~ + $ $ $ $ + + $ $ + # z ",
"# # + % + $ + # # ~ # 6   # + + + $ # % + + + %   ~ + + + + + + < + + + b ~ # + + + + $ $ + $ + % # ",
"# + + + % + + $ + $ # # 2 # $ $ + + $ + $ + % #     + + + + + + + + + + # 6 $ % + + $ + $ + $ $ ( # ",
"# + + $ + + + + $ + $ # ~ # $ + + $ + $ + $ + % ~ # % + + + + + + # + + # 6 # % + $ + $ + + + + # }.",
"# % + + + + + + + $ $ #   # { + $ + + + + + + $ # ~ % # + + + + + + + + # }.# + $ + + + $ + $ + $ # ",
"2 # % % % % % $ % % $ # # # ~ # + $ $ % % $ % + a 9 2 . + + + + + $ $ $ < ~ < $ % $ % % % $ % % + 2 ",
"6 b < # < # . < < . # 2 6 ~ 6 9 b # @ # < < < b | 6 ~ 2 # < < . < < < . 6 ~   < 0 # 0 < # # < . b ~ ",
"~ 6 ~ 2 2 2 ~ 2 6 6 2 ~ ~ 6 6 ~ ~ 2 9 9 9 9 9 ~ ~ 6 6 6 9 9 9 9   9   9 6 6 ~ 2 9 9 2   2 2 6   6 ~ "};
