/* XPM */
static char * heart_empty_xpm[] = {
"50 50 125 2",
"  	c #72751B",
". 	c #BD9842",
"+ 	c #A2783C",
"@ 	c #A1773B",
"# 	c #B08E3D",
"$ 	c #6A6D18",
"% 	c #B99C3B",
"& 	c #6C6F19",
"* 	c #767923",
"= 	c #71741B",
"- 	c #7F8226",
"; 	c #636917",
"> 	c #B18E3D",
", 	c #000000",
"' 	c #303206",
") 	c #777921",
"! 	c #45490D",
"~ 	c #3E420B",
"{ 	c #5E6015",
"] 	c #A48A34",
"^ 	c #515611",
"/ 	c #5E6014",
"( 	c #595B13",
"_ 	c #42440C",
": 	c #686B18",
"< 	c #636519",
"[ 	c #686A1C",
"} 	c #686B1E",
"| 	c #535911",
"1 	c #63651A",
"2 	c #40440B",
"3 	c #505210",
"4 	c #70731A",
"5 	c #383A08",
"6 	c #323307",
"7 	c #676A18",
"8 	c #0B0B01",
"9 	c #616315",
"0 	c #6F721A",
"a 	c #7F8124",
"b 	c #787B21",
"c 	c #9CA8AD",
"d 	c #2B2F05",
"e 	c #B2AFA8",
"f 	c #B3B0A9",
"g 	c #636516",
"h 	c #666917",
"i 	c #3C3E0A",
"j 	c #222303",
"k 	c #656C17",
"l 	c #A2814F",
"m 	c #8D7044",
"n 	c #555812",
"o 	c #525411",
"p 	c #515310",
"q 	c #B1B39D",
"r 	c #C5C6B7",
"s 	c #737621",
"t 	c #5C5E14",
"u 	c #515411",
"v 	c #474B0E",
"w 	c #4A4E0F",
"x 	c #202103",
"y 	c #DDDDD5",
"z 	c #FAFAF9",
"A 	c #747725",
"B 	c #6D7019",
"C 	c #585A13",
"D 	c #90926A",
"E 	c #FDFDFC",
"F 	c #B6B7A3",
"G 	c #7F8146",
"H 	c #4C4E0F",
"I 	c #171802",
"J 	c #92946C",
"K 	c #FFFFFF",
"L 	c #B3B49F",
"M 	c #5B5D14",
"N 	c #44460C",
"O 	c #92946E",
"P 	c #B4B5A1",
"Q 	c #777A31",
"R 	c #93956F",
"S 	c #7E8044",
"T 	c #44450F",
"U 	c #1F2003",
"V 	c #3B3D09",
"W 	c #555712",
"X 	c #4E5012",
"Y 	c #71741F",
"Z 	c #686F16",
"` 	c #6B6E19",
" .	c #4A4C0E",
"..	c #5A6012",
"+.	c #6B6E1C",
"@.	c #656817",
"#.	c #636616",
"$.	c #303406",
"%.	c #2E3006",
"&.	c #363708",
"*.	c #4D4F0F",
"=.	c #C6A740",
"-.	c #6B6D19",
";.	c #5D6014",
">.	c #A48A33",
",.	c #6D701A",
"'.	c #47490D",
").	c #2B2D05",
"!.	c #514315",
"~.	c #3D410B",
"{.	c #B6923F",
"].	c #BC9742",
"^.	c #545611",
"/.	c #3F410B",
"(.	c #626516",
"_.	c #555A12",
":.	c #363908",
"<.	c #676A17",
"[.	c #333507",
"}.	c #575A12",
"|.	c #2B2C05",
"1.	c #686A18",
"2.	c #0D0D01",
"3.	c #5F6115",
"4.	c #565812",
"                                                                                                    ",
"                                                                                                    ",
"                                                                                                    ",
"                                                                                                    ",
"                                                                                                    ",
"                                                                                                    ",
"            . .                                                                                     ",
"          . + @ # $ % % $ $ $ $ $ $ &                         & $ $ $ $ * * $ $ $ $ = -             ",
"          ; . > , , , , , , , , , , '                         ' , , , , , , , , , , )               ",
"            ! ~ { ] ] ^ / / / / / / ( _ :                 : _ ( / / < [ } | < | < 1 2 3             ",
"        = 4 5 6   ; ;               7 8 9 0             0 9 8 7       a b b c c b b d 5 4 e f       ",
"        g , h                           i j             j i           k b c l l c k   h , m f       ",
"      n o p &     q r s                 t o u h     h u o t             k ; c c ; f f & p v w       ",
"      x i         y z A                   B , C     C , B                   ; ; f l f     i x       ",
"      j i     D E F G                       4 H I I H 4                         f f ;     i j       ",
"      j i     J K L                           M N N M                           ; ;       i j       ",
"      j i     O K P                                                                       i j       ",
"      j i     Q R S                                                                       i j       ",
"      j i                                                                                 i j       ",
"      j i                                                                                 i j       ",
"      j i                                                                                 i j       ",
"      j T                                                                                 i j       ",
"      U V a                                                       b b                     V U       ",
"      M W X Y                                                     Z a a               `  .W M       ",
"        .., +.=                                                     a b b       b   = @., #.        ",
"      a b Z $.%.                                                    Z b b   a b     %.&.            ",
"      b b   W *.C $                                                 Z b b b =.=.$ C *.W             ",
"      Z Z     -., ;.                                                  Z Z =.+ + >., -.              ",
"              = ,.'.).                                                    ; =.!.~.{.].          b   ",
"                  ^./.(.-.                                                -._.:.^.+ .             a ",
"                    4 , p                                                 p , 4   ; ;             b ",
"                    = <.o [.4                   b                     4 [.o <.=                     ",
"                        }.|.1.B                 b b                 B 1.|.}.                        ",
"                            2._               f f b                 _ 2.                            ",
"                            3.4._ B         f l f Z             B _ 4.3.                a a b       ",
"                              3.2.1.4       f f ;             4 1.2.3.                    a b b     ",
"    a a           a               |.[.      ; ;               [.|.                        Z b b     ",
"      a b b   b a                 }.o p -.                -.p o }.                          Z Z     ",
"b a a Z b Z b b Z                   <., (.                (., <.                                    ",
"  a b f f Z b b Z   a a       a     = 4 /.).            )./.4 =                                     ",
"  Z f l l f b Z       a a   a           ^.'.;.$     $ ;.'.^.                                        ",
"    ; f f ;           b b Z b             ,., C     C , ,.        a a         b b                   ",
"      ; ;           c c b Z Z             = -.*.|.|.*.-.=           a b   =.=.b                     ",
"                  c l l c                     W [.[.W               Z b b =.+ b                     ",
"                  ; c c ;   c c                                     Z b b ; ; Z                     ",
"                    ; ;     l c                                       Z Z                           ",
"                            ; ;                                                                     ",
"                                                                                                    ",
"                                                                                                    ",
"                                                                                                    "};
