/* XPM */
static char * heart_xpm[] = {
"50 50 133 2",
"  	c #72751B",
". 	c #BD9842",
"+ 	c #A2783C",
"@ 	c #A1773B",
"# 	c #B08E3D",
"$ 	c #6A6D18",
"% 	c #B99C3B",
"& 	c #6C6F19",
"* 	c #767923",
"= 	c #71741B",
"- 	c #7F8226",
"; 	c #636917",
"> 	c #B28F3E",
", 	c #000000",
"' 	c #323407",
") 	c #777921",
"! 	c #45490D",
"~ 	c #653908",
"{ 	c #D50001",
"] 	c #D40001",
"^ 	c #C21D03",
"/ 	c #43450C",
"( 	c #686B18",
"_ 	c #663B08",
": 	c #505210",
"< 	c #70731A",
"[ 	c #4E3307",
"} 	c #790000",
"| 	c #FF0001",
"1 	c #E80001",
"2 	c #360000",
"3 	c #656215",
"4 	c #6F721A",
"5 	c #B2AFA8",
"6 	c #B3B0A9",
"7 	c #636516",
"8 	c #E60001",
"9 	c #FE0001",
"0 	c #FF0102",
"a 	c #FF0000",
"b 	c #8C0200",
"c 	c #232504",
"d 	c #8D7044",
"e 	c #555812",
"f 	c #7A480D",
"g 	c #BB0000",
"h 	c #F30001",
"i 	c #FF9B9B",
"j 	c #FFB7B7",
"k 	c #FF0A0B",
"l 	c #D10001",
"m 	c #B41702",
"n 	c #525411",
"o 	c #666917",
"p 	c #76400A",
"q 	c #4A4E0F",
"r 	c #202103",
"s 	c #8E0000",
"t 	c #FF0304",
"u 	c #FFD4D4",
"v 	c #FFF9F9",
"w 	c #FF1213",
"x 	c #F50001",
"y 	c #595A12",
"z 	c #222303",
"A 	c #FF6767",
"B 	c #FFFCFC",
"C 	c #FFA2A2",
"D 	c #FF4141",
"E 	c #FA0001",
"F 	c #AA1101",
"G 	c #181902",
"H 	c #FF696A",
"I 	c #FFFFFF",
"J 	c #FF9E9E",
"K 	c #CE0001",
"L 	c #9E0000",
"M 	c #FF6A6A",
"N 	c #FF9F9F",
"O 	c #FF2727",
"P 	c #FF6B6B",
"Q 	c #FF3E3F",
"R 	c #1F2004",
"S 	c #8E0001",
"T 	c #1F2003",
"U 	c #5B5D14",
"V 	c #774E0F",
"W 	c #AC0000",
"X 	c #F10001",
"Y 	c #5A6012",
"Z 	c #050500",
"` 	c #E50301",
" .	c #FC0001",
"..	c #E50201",
"+.	c #040500",
"@.	c #636616",
"#.	c #7F8124",
"$.	c #787B21",
"%.	c #686F16",
"&.	c #3E3105",
"*.	c #710000",
"=.	c #423407",
"-.	c #555712",
";.	c #6A480D",
">.	c #C80001",
",.	c #EE0001",
"'.	c #6B6D19",
").	c #6E711A",
"!.	c #5F420B",
"~.	c #6A0000",
"{.	c #593B09",
"].	c #B6923F",
"^.	c #BC9742",
"/.	c #545611",
"(.	c #523C09",
"_.	c #DD0001",
":.	c #EF0001",
"<.	c #4C3507",
"[.	c #676A18",
"}.	c #724B0E",
"|.	c #7E0000",
"1.	c #575A12",
"2.	c #2E2B05",
"3.	c #E80501",
"4.	c #F40001",
"5.	c #131401",
"6.	c #9C0000",
"7.	c #5F6115",
"8.	c #784E0F",
"9.	c #A2814F",
"0.	c #9CA8AD",
"a.	c #C6A740",
"b.	c #333507",
"                                                                                                    ",
"                                                                                                    ",
"                                                                                                    ",
"                                                                                                    ",
"                                                                                                    ",
"                                                                                                    ",
"            . .                                                                                     ",
"          . + @ # $ % % $ $ $ $ $ $ &                         & $ $ $ $ * * $ $ $ $ = -             ",
"          ; . > , , , , , , , , , , '                         ' , , , , , , , , , , )               ",
"            ! ~ { ] ] ] ] ] ] ] ] ] ^ / (                 ( / ^ ] ] ] ] ] ] ] ] ] { _ :             ",
"        = < [ } | | | | | | | | | | 1 2 3 4             4 3 2 1 | | | | | | | | | | } [ < 5 6       ",
"        7 , 8 9 0 a a | | | | | | | | | b c             c b | | | | | | | | | | | | 9 8 , d 6       ",
"      e f g h | a i j k | | | | | | | | l m n o     o n m l | | | | | | | | | | | | | h g p q       ",
"      r s | | t a u v w | | | | | | | | | x , y     y , x | | | | | | | | | | | | | | | | s r       ",
"      z s | | A B C D 0 | | | | | | | | | 9 E F G G F E 9 | | | | | | | | | | | | | | | | s z       ",
"      z s | | H I J a | | | | | | | | | | | | K L L K | | | | | | | | | | | | | | | | | | s z       ",
"      z s | | M I N a | | | | | | | | | | | | | | | | | | | | | | | | | | | | | | | | | | s z       ",
"      z s | | O P Q | | | | | | | | | | | | | | | | | | | | | | | | | | | | | | | | | | | s z       ",
"      z s | | | | | | | | | | | | | | | | | | | | | | | | | | | | | | | | | | | | | | | | s z       ",
"      z s | | | | | | | | | | | | | | | | | | | | | | | | | | | | | | | | | | | | | | | | s z       ",
"      z s | | | | | | | | | | | | | | | | | | | | | | | | | | | | | | | | | | | | | | | | s z       ",
"      z s | | | | | | | | | | | | | | | | | | | | | | | | | | | | | | | | | | | | | | | | s z       ",
"      R S | | | | | | | | | | | | | | | | | | | | | | | | | | | | | | | | | | | | | | | | s T       ",
"      U V W X | | | | | | | | | | | | | | | | | | | | | | | | | | | | | | | | | | | | X W V U       ",
"        Y Z `  .| | | | | | | | | | | | | | | | | | | | | | | | | | | | | | | | | |  ...+.@.        ",
"      #.$.%.&.*.| | | | | | | | | | | | | | | | | | | | | | | | | | | | | | | | | | *.=.            ",
"      $.$.  -.;.>.,.| | | | | | | | | | | | | | | | | | | | | | | | | | | | | | ,.>.;.-.            ",
"      %.%.    '., ] | | | | | | | | | | | | | | | | | | | | | | | | | | | | | | ] , '.              ",
"              = ).!.~.9 | | | | | | | | | | | | | | | | | | | | | | | | | | 9 ~.{.].^.          $.  ",
"                  /.(._.:.| | | | | | | | | | | | | | | | | | | | | | | | :._.<./.+ .             #.",
"                    < , g | | | | | | | | | | | | | | | | | | | | | | | | g , <   ; ;             $.",
"                    = [.}.|.E | | | | | | | | | | | | | | | | | | | | E |.}.[.=                     ",
"                        1.2.3.4.| | | | | | | | | | | | | | | | | | 4.3.2.1.                        ",
"                            5.6.| | | | | | | | | | | | | | | | | | 6.5.                            ",
"                            7.8.6.4.| | | | | | | | | | | | | | 4.6.8.7.                #.#.$.      ",
"                              7.5.3.E | | | | | | | | | | | | E 3.5.7.                    #.$.$.    ",
"    #.#.          #.              2.|.| | | | | | | | | | | | |.2.                        %.$.$.    ",
"      #.$.$.  $.#.                1.}.g :.| | | | | | | | :.g }.1.                          %.%.    ",
"$.#.#.%.$.%.$.$.%.                  [., _.9 | | | | | | 9 _., [.                                    ",
"  #.$.6 6 %.$.$.%.  #.#.      #.    = < (.~.| | | | | | ~.(.< =                                     ",
"  %.6 9.9.6 $.%.      #.#.  #.          /.!.] ,.| | ,.] !./.                                        ",
"    ; 6 6 ;           $.$.%.$.            )., >.| | >., ).        #.#.        $.$.                  ",
"      ; ;           0.0.$.%.%.            = '.;.~.~.;.'.=           #.$.  a.a.$.                    ",
"                  0.9.9.0.                    -.b.b.-.              %.$.$.a.+ $.                    ",
"                  ; 0.0.;   0.0.                                    %.$.$.; ; %.                    ",
"                    ; ;     9.0.                                      %.%.                          ",
"                            ; ;                                                                     ",
"                                                                                                    ",
"                                                                                                    ",
"                                                                                                    "};
