/* XPM */
static char * G_xpm[] = {
"50 50 488 2",
"  	c #DAD3CD",
". 	c #CEC9CB",
"+ 	c #C2BCBD",
"@ 	c #C9BFC2",
"# 	c #C5BEC1",
"$ 	c #BDB6B9",
"% 	c #BFB7B7",
"& 	c #E5E4E4",
"* 	c #F3F3F3",
"= 	c #F2F2F2",
"- 	c #ECECEC",
"; 	c #CCC3C3",
"> 	c #BCB3B4",
", 	c #C8BDBD",
"' 	c #C8B6B4",
") 	c #998B8B",
"! 	c #D9CFCC",
"~ 	c #D3CED1",
"{ 	c #C1B6B9",
"] 	c #BAAEB1",
"^ 	c #C2B8BB",
"/ 	c #D0CFD0",
"( 	c #C8C8C8",
"_ 	c #BCBCBC",
": 	c #B9BABA",
"< 	c #BABABA",
"[ 	c #C8C9C9",
"} 	c #DAD9D9",
"| 	c #CCC6C9",
"1 	c #9A9495",
"2 	c #D1C7C0",
"3 	c #C5BFC2",
"4 	c #D0CFCF",
"5 	c #A3A4A4",
"6 	c #757676",
"7 	c #6D6E6E",
"8 	c #6E7070",
"9 	c #6E706F",
"0 	c #6E6F6F",
"a 	c #6D6F6F",
"b 	c #6C6E6E",
"c 	c #767877",
"d 	c #A0A2A1",
"e 	c #D7D8D7",
"f 	c #BAADAD",
"g 	c #CAC3C4",
"h 	c #C6C1C2",
"i 	c #969192",
"j 	c #D2C3BD",
"k 	c #E6E4E4",
"l 	c #D5D5D5",
"m 	c #919392",
"n 	c #4A4C4C",
"o 	c #383B3A",
"p 	c #3C3F3E",
"q 	c #3A3D3C",
"r 	c #383C3B",
"s 	c #393C3B",
"t 	c #383C3A",
"u 	c #3B3E3D",
"v 	c #3B3F3E",
"w 	c #4C4F4E",
"x 	c #8E908F",
"y 	c #D5D6D6",
"z 	c #C2B5B5",
"A 	c #D2C6C8",
"B 	c #928A84",
"C 	c #FCFCFC",
"D 	c #DADBDA",
"E 	c #909190",
"F 	c #484B4A",
"G 	c #373A39",
"H 	c #404342",
"I 	c #525554",
"J 	c #636564",
"K 	c #666867",
"L 	c #606261",
"M 	c #4E5150",
"N 	c #3D403F",
"O 	c #4A4D4C",
"P 	c #8D8F8E",
"Q 	c #97908B",
"R 	c #CDC3BB",
"S 	c #BEB9BA",
"T 	c #909291",
"U 	c #4A4E4D",
"V 	c #3E4140",
"W 	c #575959",
"X 	c #878888",
"Y 	c #AEAFAF",
"Z 	c #B5B6B6",
"` 	c #B6B7B6",
" .	c #A6A7A7",
"..	c #7E807F",
"+.	c #4D4F4F",
"@.	c #393D3B",
"#.	c #D4D5D4",
"$.	c #8D8683",
"%.	c #D4CAC3",
"&.	c #B4AEB1",
"*.	c #575A59",
"=.	c #848585",
"-.	c #B7B7B8",
";.	c #D1D0D0",
">.	c #E4E1E0",
",.	c #E4E3E4",
"'.	c #CFCDCE",
").	c #A9AAAA",
"!.	c #777978",
"~.	c #505352",
"{.	c #4C4E4D",
"].	c #897F79",
"^.	c #B29D9A",
"/.	c #AA9793",
"(.	c #545756",
"_.	c #878988",
":.	c #B8B9B9",
"<.	c #CFCECF",
"[.	c #9D9796",
"}.	c #D0C9BF",
"|.	c #D8D3D9",
"1.	c #CAC0C3",
"2.	c #C9C5C6",
"3.	c #B1B2B2",
"4.	c #7A7C7B",
"5.	c #4B4E4D",
"6.	c #8E8F8E",
"7.	c #D5D6D5",
"8.	c #C3BAB5",
"9.	c #D3CCCC",
"0.	c #B3A5A4",
"a.	c #B4A6A9",
"b.	c #585B5A",
"c.	c #818382",
"d.	c #B5B6B5",
"e.	c #D5D3D3",
"f.	c #C8C4C4",
"g.	c #918882",
"h.	c #D7D2D8",
"i.	c #E0DDDD",
"j.	c #DBDBDB",
"k.	c #A8AAA9",
"l.	c #767777",
"m.	c #8F9090",
"n.	c #D9DAD9",
"o.	c #B9A39E",
"p.	c #A39B9C",
"q.	c #D5D1D3",
"r.	c #454847",
"s.	c #BCBDBD",
"t.	c #D4D3D2",
"u.	c #C9C5C4",
"v.	c #908781",
"w.	c #C0B6B8",
"x.	c #D5D2D3",
"y.	c #D8D8D8",
"z.	c #B0B0B0",
"A.	c #6B6D6D",
"B.	c #414443",
"C.	c #4B4D4D",
"D.	c #8D8E8E",
"E.	c #B29994",
"F.	c #939494",
"G.	c #D7D7D7",
"H.	c #E4E3E3",
"I.	c #CABCB3",
"J.	c #C2BCBF",
"K.	c #D6D2D3",
"L.	c #C9C9C9",
"M.	c #777878",
"N.	c #363938",
"O.	c #8C8D8D",
"P.	c #C6B9AD",
"Q.	c #A89EA2",
"R.	c #8F898A",
"S.	c #A49EA1",
"T.	c #908788",
"U.	c #494B4A",
"V.	c #959696",
"W.	c #DCDCDC",
"X.	c #E9E7E7",
"Y.	c #C5C0BF",
"Z.	c #CFCBCC",
"`.	c #D1D2D2",
" +	c #898A8A",
".+	c #606262",
"++	c #5A5C5C",
"@+	c #5B5D5D",
"#+	c #5C5E5E",
"$+	c #595B5B",
"%+	c #999B9A",
"&+	c #D9D9D9",
"*+	c #ABA3A5",
"=+	c #A7A0A1",
"-+	c #ACA6A9",
";+	c #7C726F",
">+	c #BAAA96",
",+	c #A5998D",
"'+	c #9A8E83",
")+	c #A2968A",
"!+	c #A99D93",
"~+	c #949595",
"{+	c #CDC5C8",
"]+	c #BEBEBE",
"^+	c #AFB0AF",
"/+	c #ADAEAD",
"(+	c #B0B1B0",
"_+	c #AEB0AF",
":+	c #B0B2B1",
"<+	c #BDBDBB",
"[+	c #CAC6C2",
"}+	c #AA9C8D",
"|+	c #A59B92",
"1+	c #AC968D",
"2+	c #D9D5D9",
"3+	c #DED8D6",
"4+	c #E1DDDC",
"5+	c #DEDADA",
"6+	c #EBEAE9",
"7+	c #C8C2C5",
"8+	c #D7D4D5",
"9+	c #E7E8E7",
"0+	c #E9E9E9",
"a+	c #DBDBDA",
"b+	c #C9C8C9",
"c+	c #DAD8D6",
"d+	c #E9EAE9",
"e+	c #E6E6E6",
"f+	c #D8D6D7",
"g+	c #BBB0AE",
"h+	c #DBD5D3",
"i+	c #E9E8E8",
"j+	c #CBC5C8",
"k+	c #EDEBEC",
"l+	c #F1EFEF",
"m+	c #D5D0D1",
"n+	c #AEA9AC",
"o+	c #CBC6C1",
"p+	c #F7F5F5",
"q+	c #E2E0E1",
"r+	c #BEB7BA",
"s+	c #B6AAA5",
"t+	c #B5ACAC",
"u+	c #B6B0B2",
"v+	c #EAE9E9",
"w+	c #CBC5C6",
"x+	c #C7C0C3",
"y+	c #C9C0C3",
"z+	c #A79D95",
"A+	c #DCD6D4",
"B+	c #B6B0B3",
"C+	c #B2A39C",
"D+	c #AD9D99",
"E+	c #8F8883",
"F+	c #CFC8BD",
"G+	c #E6E2E2",
"H+	c #BEB8B7",
"I+	c #85786F",
"J+	c #C7C0B6",
"K+	c #7F7467",
"L+	c #C5B4AD",
"M+	c #EBEAEA",
"N+	c #AEA39B",
"O+	c #847A74",
"P+	c #C8B4AA",
"Q+	c #EBE9EA",
"R+	c #B9A7A4",
"S+	c #968E8E",
"T+	c #DED8DA",
"U+	c #E7E4E7",
"V+	c #D9D5D7",
"W+	c #D4CFD0",
"X+	c #D1CBCC",
"Y+	c #D7D3D5",
"Z+	c #DBD8D9",
"`+	c #D6D3D4",
" @	c #D6D2D4",
".@	c #CBC9CA",
"+@	c #C7C2BD",
"@@	c #DFDDE0",
"#@	c #D2CECE",
"$@	c #978F8A",
"%@	c #F4F3F3",
"&@	c #EEEEEE",
"*@	c #D2D3D3",
"=@	c #D3D3D3",
"-@	c #D3D4D4",
";@	c #D3D4D3",
">@	c #D4D5D5",
",@	c #E2E3E3",
"'@	c #F7F7F7",
")@	c #968E89",
"!@	c #EEEDED",
"~@	c #CFCFCF",
"{@	c #9C9E9D",
"]@	c #828483",
"^@	c #828484",
"/@	c #8A8C8B",
"(@	c #B2B3B3",
"_@	c #E4E4E4",
":@	c #857D7A",
"<@	c #87807B",
"[@	c #DDDCDB",
"}@	c #8A807A",
"|@	c #908680",
"1@	c #E7E5E4",
"2@	c #BABBBB",
"3@	c #707271",
"4@	c #424544",
"5@	c #434645",
"6@	c #444746",
"7@	c #454746",
"8@	c #454747",
"9@	c #424443",
"0@	c #8B827C",
"a@	c #868384",
"b@	c #CBC1B5",
"c@	c #D7D0C7",
"d@	c #EDEAE7",
"e@	c #A6988C",
"f@	c #E9E7E5",
"g@	c #BEBFBF",
"h@	c #787A79",
"i@	c #4D504F",
"j@	c #3A3E3C",
"k@	c #373B3A",
"l@	c #D6D6D6",
"m@	c #B2A89D",
"n@	c #4A4D4D",
"o@	c #BCAAA5",
"p@	c #F2F0EF",
"q@	c #AEAFAE",
"r@	c #9A9C9B",
"s@	c #9B9D9C",
"t@	c #989A99",
"u@	c #848685",
"v@	c #3F4241",
"w@	c #4C4E4E",
"x@	c #948A83",
"y@	c #F7F6F5",
"z@	c #E1E2E1",
"A@	c #E2E2E2",
"B@	c #DBDCDB",
"C@	c #B9BBBA",
"D@	c #8E8F8F",
"E@	c #8E8783",
"F@	c #E2DDD9",
"G@	c #E9E4E2",
"H@	c #D9D5D5",
"I@	c #DBD9D8",
"J@	c #ECEAEB",
"K@	c #F4F4F4",
"L@	c #CDCFCE",
"M@	c #797B7A",
"N@	c #8A7D75",
"O@	c #D4D0D1",
"P@	c #E5E3E3",
"Q@	c #CFD0D0",
"R@	c #7B7D7C",
"S@	c #444645",
"T@	c #E6E3E4",
"U@	c #CCC8C9",
"V@	c #CECFCE",
"W@	c #7B7D7D",
"X@	c #444646",
"Y@	c #D8D9D8",
"Z@	c #E5E1E0",
"`@	c #AC978E",
" #	c #91857C",
".#	c #C5C2C3",
"+#	c #CECDCD",
"@#	c #E7E5E6",
"##	c #8A8077",
"$#	c #CEC8C5",
"%#	c #CECFCD",
"&#	c #CCC5C7",
"*#	c #393D3C",
"=#	c #E8E5E5",
"-#	c #C8C0C0",
";#	c #CECECE",
">#	c #CFCCCB",
",#	c #8D908F",
"'#	c #948F91",
")#	c #9C9798",
"!#	c #E9E6E6",
"~#	c #C3AC9D",
"{#	c #CDC9CA",
"]#	c #938C8B",
"^#	c #96897D",
"/#	c #ACA196",
"(#	c #9C938A",
"_#	c #CFCCCD",
":#	c #4D4F4E",
"<#	c #9C8C7D",
"[#	c #DFDEE1",
"}#	c #ECEAEA",
"|#	c #D1C8BF",
"1#	c #D6D0CB",
"2#	c #E2DEE1",
"3#	c #484A49",
"4#	c #E3E2E2",
"5#	c #CECFCF",
"6#	c #C8C7C6",
"7#	c #C2BDBE",
"8#	c #C8C1C0",
"9#	c #CDCDCD",
"0#	c #D6D7D7",
"a#	c #727473",
"b#	c #A8A9A9",
"c#	c #CCCBCB",
"d#	c #C7C2C2",
"e#	c #98918D",
"f#	c #C8C1B7",
"g#	c #D0CBCD",
"h#	c #C4BFBF",
"i#	c #C0B7B8",
"j#	c #C6C0C1",
"k#	c #CBC8C8",
"l#	c #C2C2C2",
"m#	c #757776",
"n#	c #434544",
"o#	c #A7A9A8",
"p#	c #CDCCCC",
"q#	c #E6E4E3",
"r#	c #D9D1CC",
"s#	c #EFEEEF",
"t#	c #D4D1D0",
"u#	c #E1E1E1",
"v#	c #939493",
"w#	c #5E605F",
"x#	c #ACAEAE",
"y#	c #D9DADA",
"z#	c #D9D7D6",
"A#	c #DFDFDF",
"B#	c #D7D7D6",
"C#	c #D9D9D8",
"D#	c #C9CACA",
"E#	c #919393",
"F#	c #5D605F",
"G#	c #8D8F8F",
"H#	c #A78B83",
"I#	c #4F5251",
"J#	c #787979",
"K#	c #999A9A",
"L#	c #9FA0A0",
"M#	c #9D9F9E",
"N#	c #9EA09F",
"O#	c #9E9F9F",
"P#	c #8B8D8C",
"Q#	c #636565",
"R#	c #8F9190",
"S#	c #484A4A",
"T#	c #353837",
"U#	c #474949",
"V#	c #4E5151",
"W#	c #505252",
"X#	c #494C4B",
"Y#	c #8C8D8C",
"Z#	c #CAB0A4",
"`#	c #C0A7A2",
" $	c #949594",
".$	c #434644",
"+$	c #404241",
"@$	c #909191",
"#$	c #C1B7B9",
"$$	c #CCCACB",
"%$	c #A9A9A9",
"&$	c #888A8A",
"*$	c #828382",
"=$	c #838483",
"-$	c #838484",
";$	c #838584",
">$	c #828383",
",$	c #898B8B",
"'$	c #AAABAB",
")$	c #CCCBCC",
"!$	c #D0D1D1",
"~$	c #CDCECE",
"{$	c #CCCDCD",
"]$	c #C5C2C2",
"^$	c #C3BDBE",
"/$	c #BEB8BB",
"($	c #ECE9EA",
"_$	c #FBFBFB",
":$	c #FAFAFA",
"<$	c #F9F9F9",
"[$	c #F8F8F8",
"}$	c #C3BEBF",
"  . + @ # # # $ % & * = = = = = = = = = = = = = = = = = = = = = = = = = = = = * - ; + @ > @ , ' ' ) ",
"! ~ { # ] $ # ^ / ( _ : < < < < < < < < < < < < < : < < < < < < < < < < < : : _ [ } + , , + { + | 1 ",
"2 + > { $ # $ 3 4 5 6 7 8 8 8 9 8 8 8 8 8 8 8 9 0 a a 0 9 9 8 8 8 8 8 8 8 9 b c d e f g h , g @ + i ",
"j # + + # $ { k l m n o p p p p p p p p p p p q r s t s u v p p p p p p p u t w x y z | | A z z @ B ",
"g . # # # > $ C D E F G q u u u u u u u q s H I J K K L M N s q u u u u u q G O P y A h h A f z | Q ",
"R ~ S @ { $ # C D T U s p N N N N N N N p V W X Y Z `  ...+.p p N N N N N N @.w P #.g | | g > @ + $.",
"%.| $ # $ @ &.C D T U s p N N N N N N u H *.=.-.;.>.,.'.).!.~.V p N N N N N s {.P #.h , g > z @ f ].",
"R A + ] ] ^./.C D T U s p N N N N N N V (._.:.<.[.}.|.1.2.3.4.5.V N N N N N q w 6.7., g , z g 8., ) ",
"9.~ > 0.^.a.] C D T 5.q p N N N N u H b.c.d.e.f.g.R h.@ i.j.k.l.~.V N N N p s {.m.n.| , { z o.z A p.",
"%.q.&.a.{ > { C D T 5.q p N N N N q r.c.s.t.u.h v.R h.+ w.x.y.z.A.B.q p p u o C.D.7.@ h g > E.z | 1 ",
"! ~ ] # . # { C D T 5.s p N V N N q F F.G.H.S h Q I.# # { J.K.L.M.B.o q q s N.n O.#.q.9.9.9.9.9.A i ",
"P.Q.R.S.S.1 T.C D T 5.s p N N N N s U.V.W.X.S Y.B %.| h $ > Z.`. +.+++@+#+@+$+K %+&+p.*+=+Q.-+-+S.;+",
">+,+'+)+)+!+,+C D T 5.s p N N N N s U.~+j.X.+ S B | h.@ # @ {+'.]+^+/+^+(+_+/+:+<+[+}+)+|+!+,+,+,+1+",
"2+3+4+! I.j 5+C D T U s p N N N N s U.~+j.6+Y.S $.| h.@ @ | @ 7+8+9+0+a+b+c+d+e+f+9.g+z j ~ h+3+3+4+",
"+ S # S a.0.] C D T U s p N N N N s U.~+j.i+h # v.2 h.# . @ @ $ j+k+l+m+n+o+p+q+r+] > s+t+0.> # S + ",
"S S u++ + # # C D T U s N N N N N s U.~+j.v+S # v., h.@ @ @ # # ] w+x+y+-+z+A+B+-+] h # > C+u+h h | ",
"] $ D+s+S S h C D T U q N N N N N s U.~+j.6+S h E+F+~ # # @ # ] $ @ @ . n+S.G++ &.u+> + u+, $ $ h ] ",
"+ + $ &.S h S C D T U s N N N N N s U.~+j.6+h H+I+J+g g # > # { # @ @ . S.) 9.+ + > &.f 0.&.> &.$ + ",
"g # # h S h S C D T U s N N N N N s U.~+j.v+S t+K+L+| # @ a.{ # @ @ # | Q.) @ { + a.t+{ + # + u+S g ",
"> S S + S &.S C D T U s N N N N N s U.~+j.M+&.N+O+P+| + @ a.a.@ # # # @ &./.4+# + ] t+*+&.$ $ $ S S ",
"$ S + # # # S C D T U s p N N N p s U.~+j.Q+H+S ) @ @ # { R+@ @ $ @ @ @ *+,+4+{ S # h # u+# + S # + ",
"# # # # $ u+S C D T 5.s p N N N p s U.~+j.v+> H+S+T+U+V+W+X+Y+W+x.Z+`+ @.@+@@@#@ @Z+u+# &.u++ h h # ",
"# # &.f u+u+# C D T 5.s p N N N N s U.~+j.6+Y.&.$@%@&@W.*@*@=@*@-@;@`.`.=@*@`.>@,@'@u+S S u+S # + $ ",
"u+S u+u+$ # $ C D T U s p N N N N s U.~+j.6+> u+)@!@~@{@]@c.^@^@^@]@^@^@^@^@c./@(@_@h # h u+u+h $ n+",
":@<@O+O+<@<@<@C D T U s p N N N N s U.~+j.[@}@<@|@1@2@3@4@B.5@5@6@7@6@8@r.7@9@I T 7.$.$.0@0@<@$.a@:@",
"b@L+9.%.c@%.  C D T U s p N N N N s U.~+j.d@g+b@e@f@g@h@i@i@M U.H u q j@u u k@n D.l@j R 2 I.P.8.F+2 ",
"f m@9.~ . . | C D T n@s N V N N N s U.~+j.v+o@8.$@p@y.q@r@s@t@u@b.v@p p N p s w@P >@h g . # S # h ~ ",
"f u+# $ S S S C D T n@s N N N N N s U.~+j.v+H+t+x@y@* 9+z@A@B@C@3@4@p N N N s {.D@l@S $ S # h # u+a.",
"# Y.S # t+0.> C D T U s N N N N N s U.~+j.i+Y.S E@F@G@H@I@J@K@L@M@5@u N N N s {.6.7.u+$ S h # h g + ",
"$ # Y.h &.u++ C D T U s N N N N N s U.~+j.X.S Y.N@2 q.+ S O@P@Q@R@S@u N N N s 5.D@e h 8.8.| # S S S ",
"S # h # # # > C D T U s p N N N N s U.~+j.T@0.u+<@j ~ + , + U@V@W@X@u N N N s C.D@Y@$ > -+> g # S S ",
"# # # # S + $ C D T U s p N N N N s U.~+j.Z@`@s+ #b@~ h , + .#+#4.5@u N V N s w@P l > $ u+n+S # S S ",
"S S # S + S # C D T U s p N N N N s U.~+j.@#> H+##R 3+Y.h Y.$#%#R@S@u N N N s {.D@l@# Y.S S u+# S + ",
"# S # u+t+> u+C D T U s N V N N p s U.~+j.X.> u+##F+q.Y.+ + &#V@R@S@u N N N *#w P #.# # S # h h # + ",
"# h S $ S $ $ C D T U s p N N N N s U.~+j.=#&.+ B 2 q.S o@{ -#;#4.5@u N N N s w x l@S h # h h h > S ",
"h | h &.u+$ S C D T U s p N N N N s U.~+j.6+Y.Y.Q b@H+s+, Y.>#;#R@S@u N N N s w ,#l h g h h . | | { ",
"R.'#)#R.$.'#'#C D T 5.s N N N N N s U.~+j.!#H++ E+~#+ g+8.+ {#;#4.S@u N N N q w P #.Q )#i i )#R.]#T.",
"^#/#/#/#,+(#|+C D T 5.s N N N N N s U.~+j.X.s+&.##P.~ 8.+ + _#;#4.S@u N N N *#:#D@#.m@/#S./#S./#/#<#",
"b@[#2+q.9.q.3+C D T 5.s p N N N N s U.~+W.}#+ t+<@|#1#+ # h _#V@R@S@u N N N @.+.x #.G+q.q.3+4+[#2#0.",
"2 . > u+{ > + C D T 5.s p N N N N q 3#x =@4#Y.+ 0@|#. S + + $#5#R@S@u N N N q w ,#7.g+> h Y.h . @ ]#",
"9.. $ ] $ $ # C D T U s p N N N N q 6@c ^+6#7#Y.v.8.h S H+Y.8#9#R@S@u N N N q w x 0#g+8.| g h , f B ",
"9.# S u+$ # ] C D T U s p N N N N p v@i@a#b#c#d#e#f#g#h#i#j#k#l#m#n#u N N N q w P 7.| + # h z g @ ].",
"9.9.$ $ ] $ f C D T 5.*#p N N N N N N p w h@o#p#q#r#s#t#H@u#: v#w#H p N N N s C.D@n.g | @ z , | @ B ",
"1#9.> # ] D+a.C D T 5.s p N N N N N N p V i@m#x#y#z#A#B#C#D#E#F#r.V N N N N s w G#y Y.%.@ 2 @ | h Q ",
", $ + + z H#^.C D T n@s p N N N N N N N u u I#J#K#L#M#N#O#P#Q#H u p N N N p s w P #.@ h + { | { | ) ",
"' f { { # ] R+C D R#S#T#s s s s s s s q s o p U#V#~.I#W#~.5.B.s o s s s s o T#X#Y##.| @ z z f z + Q ",
"Z#`#> { + @ { @#l@ $I#H .$5@5@S@5@S@S@5@5@5@.$9@H +$+$H H B.4@n#4@5@5@S@5@n#H ~.@$G., A , @ z > $ ]#",
"' + 0.+ # @ f #$$$%$&$*$=$-$-$;$-$;$;$-$-$;$;$-$-$-$-$-$-$-$-$-$]@;$-$;$-$-$>$,$'$`++ | + | + # + ) ",
"  9.] + + # f o.r+)$!$V@V@5#;#5#5#;#5#5#5#;#5#5#5#;#5#;#~$5#5#5#5#;#5#5#5#5#5#{$]$^$f @ 8.g $ D+s+]#",
"h+~ @ # # @ # ] /$($_$_$_$:$<$_$_$<$:$_$:$<$_$_$_$<$:$<$[$<$_$_$_$<$_$_$_$:$<$!@}$+ L+@ a.@ u+E.o@]#"};
