/* XPM */
static char * L_xpm[] = {
"50 50 297 2",
"  	c #DAD3CD",
". 	c #CEC9CB",
"+ 	c #C2BCBD",
"@ 	c #C9BFC2",
"# 	c #C5BEC1",
"$ 	c #BDB6B9",
"% 	c #C2BABB",
"& 	c #EAEAEA",
"* 	c #F3F4F3",
"= 	c #F2F3F2",
"- 	c #DFDAD6",
"; 	c #D6CFC6",
"> 	c #D7D0C7",
", 	c #D6D0CB",
"' 	c #B9AC9F",
") 	c #B5A593",
"! 	c #DED8D6",
"~ 	c #D2C3BD",
"{ 	c #D7D2D8",
"] 	c #D9D5D9",
"^ 	c #E2DEE1",
"/ 	c #C8B6B4",
"( 	c #B29D9A",
"_ 	c #CAC3C4",
": 	c #CCC6C9",
"< 	c #C8BDBD",
"[ 	c #BCB3B4",
"} 	c #998B8B",
"| 	c #D9CFCC",
"1 	c #D3CED1",
"2 	c #C1B6B9",
"3 	c #BAAEB1",
"4 	c #DCDADB",
"5 	c #CACACA",
"6 	c #BCBDBD",
"7 	c #B9BABA",
"8 	c #BABBBA",
"9 	c #BBBCBC",
"0 	c #C6C6C5",
"a 	c #D1CFD0",
"b 	c #D5D1D3",
"c 	c #A59B92",
"d 	c #C7C0B6",
"e 	c #DFDEE1",
"f 	c #C6C1C2",
"g 	c #A89EA2",
"h 	c #AC968D",
"i 	c #E6E2E2",
"j 	c #9A9495",
"k 	c #D1C7C0",
"l 	c #DCDDDC",
"m 	c #A4A6A5",
"n 	c #777979",
"o 	c #6C6E6D",
"p 	c #6E706F",
"q 	c #6E7070",
"r 	c #6D6F6E",
"s 	c #737575",
"t 	c #A3A4A4",
"u 	c #D5D5D5",
"v 	c #DBD9D8",
"w 	c #B6B0B2",
"x 	c #C5C0BF",
"y 	c #97908B",
"z 	c #BEB9BA",
"A 	c #A2968A",
"B 	c #BAADAD",
"C 	c #969192",
"D 	c #DADBDA",
"E 	c #939595",
"F 	c #4F5251",
"G 	c #373B3A",
"H 	c #3B3E3D",
"I 	c #3C3F3E",
"J 	c #3C3F3D",
"K 	c #393C3B",
"L 	c #464948",
"M 	c #919292",
"N 	c #D9DADA",
"O 	c #E3E2E1",
"P 	c #BEB8B7",
"Q 	c #DEDADA",
"R 	c #9A8E83",
"S 	c #E8E5E4",
"T 	c #D2C6C8",
"U 	c #BBB0AE",
"V 	c #C2B5B5",
"W 	c #928A84",
"X 	c #DADBDB",
"Y 	c #939594",
"Z 	c #4E504F",
"` 	c #373A39",
" .	c #3A3D3C",
"..	c #383B3A",
"+.	c #454847",
"@.	c #909291",
"#.	c #D9DAD9",
"$.	c #DFDEDE",
"%.	c #E4E1DE",
"&.	c #CDC3BB",
"*.	c #DADCDB",
"=.	c #949695",
"-.	c #505251",
";.	c #3D403F",
">.	c #484B4A",
",.	c #919392",
"'.	c #DADADA",
").	c #E3E1E1",
"!.	c #B4A6A9",
"~.	c #B5ACAC",
"{.	c #8D8683",
"].	c #D4CAC3",
"^.	c #B4AEB1",
"/.	c #474A49",
"(.	c #E1DFDF",
"_.	c #AEA9AC",
":.	c #DBD5D3",
"<.	c #897F79",
"[.	c #AA9793",
"}.	c #DBDCDB",
"|.	c #938C8B",
"1.	c #CFC8BD",
"2.	c #B3A5A4",
"3.	c #E1DDDC",
"4.	c #C3BAB5",
"5.	c #D3CCCC",
"6.	c #484A4A",
"7.	c #908781",
"8.	c #948F91",
"9.	c #B9A39E",
"0.	c #A39B9C",
"a.	c #E5E4E3",
"b.	c #B29994",
"c.	c #CABCB3",
"d.	c #C6B9AD",
"e.	c #8F898A",
"f.	c #A49EA1",
"g.	c #908788",
"h.	c #E2E0E0",
"i.	c #ABA3A5",
"j.	c #A7A0A1",
"k.	c #ACA6A9",
"l.	c #7C726F",
"m.	c #BAAA96",
"n.	c #A5998D",
"o.	c #A99D93",
"p.	c #383C3B",
"q.	c #3E4140",
"r.	c #8C7D6F",
"s.	c #B6AAA5",
"t.	c #B2A39C",
"u.	c #B2A89D",
"v.	c #AA9C8D",
"w.	c #9C8C7D",
"x.	c #E9E8E5",
"y.	c #E3E2E2",
"z.	c #DBDCDC",
"A.	c #E4E2E3",
"B.	c #AD9D99",
"C.	c #8F8883",
"D.	c #85786F",
"E.	c #7F7467",
"F.	c #C5B4AD",
"G.	c #E6E4E4",
"H.	c #AEA39B",
"I.	c #847A74",
"J.	c #C8B4AA",
"K.	c #E5E3E4",
"L.	c #B9A7A4",
"M.	c #C0A7A2",
"N.	c #857D7A",
"O.	c #87807B",
"P.	c #8B827C",
"Q.	c #D5D3D1",
"R.	c #82766D",
"S.	c #91857C",
"T.	c #8A8077",
"U.	c #93826E",
"V.	c #868384",
"W.	c #CBC1B5",
"X.	c #E8E4E0",
"Y.	c #B2A28F",
"Z.	c #A9957E",
"`.	c #C5B0A4",
" +	c #C1ADA1",
".+	c #BCAAA5",
"++	c #9C938A",
"@+	c #8A7D75",
"#+	c #E0DCDD",
"$+	c #DED9D8",
"%+	c #E2DFDE",
"&+	c #9D9186",
"*+	c #9C9798",
"=+	c #C3AC9D",
"-+	c #96897D",
";+	c #ACA196",
">+	c #D1C8BF",
",+	c #D8D9D8",
"'+	c #E2E0DF",
")+	c #8A8B8B",
"!+	c #CECECE",
"~+	c #DEDDDD",
"{+	c #C4BFBF",
"]+	c #8D847F",
"^+	c #CCC6BD",
"/+	c #D1CCCF",
"(+	c #C9C3C4",
"_+	c #C3BCBD",
":+	c #CCC8C9",
"<+	c #D0C9CA",
"[+	c #CBC7C6",
"}+	c #B7AAAC",
"|+	c #9D9187",
"1+	c #E4E0E0",
"2+	c #C7C1C2",
"3+	c #434645",
"4+	c #6A6D6C",
"5+	c #9C9E9D",
"6+	c #C8C9C9",
"7+	c #D7D6D5",
"8+	c #C6C1C0",
"9+	c #AAA199",
"0+	c #F2F0EF",
"a+	c #F6F6F6",
"b+	c #F4F3F3",
"c+	c #F3F2F2",
"d+	c #F4F4F4",
"e+	c #F5F4F4",
"f+	c #F6F5F4",
"g+	c #F3F3F3",
"h+	c #F5F4F5",
"i+	c #CDC5C7",
"j+	c #CECBC7",
"k+	c #F8F9F9",
"l+	c #E5E1E2",
"m+	c #B7B1B4",
"n+	c #666968",
"o+	c #A0A1A1",
"p+	c #CACBCB",
"q+	c #D3D3D3",
"r+	c #CDCDCC",
"s+	c #E0E1E0",
"t+	c #E1E2E2",
"u+	c #D6D6D6",
"v+	c #D8D8D7",
"w+	c #DEDFDF",
"x+	c #D2D0CF",
"y+	c #CBC4C5",
"z+	c #A78B83",
"A+	c #919393",
"B+	c #9FA1A1",
"C+	c #9E9F9F",
"D+	c #9D9F9F",
"E+	c #9D9E9E",
"F+	c #9EA0A0",
"G+	c #9C9E9E",
"H+	c #A3A5A5",
"I+	c #D7D5D6",
"J+	c #4D504F",
"K+	c #343837",
"L+	c #444746",
"M+	c #515353",
"N+	c #505352",
"O+	c #505252",
"P+	c #4E5150",
"Q+	c #5F6161",
"R+	c #999B9A",
"S+	c #CAB0A4",
"T+	c #969898",
"U+	c #545756",
"V+	c #404342",
"W+	c #424544",
"X+	c #3F4241",
"Y+	c #3C403E",
"Z+	c #515454",
"`+	c #959796",
" @	c #D5D4D5",
".@	c #ACADAD",
"+@	c #8B8D8D",
"@@	c #828483",
"#@	c #838584",
"$@	c #828484",
"%@	c #818382",
"&@	c #8B8C8C",
"*@	c #D5D3D3",
"=@	c #BEB8BA",
"-@	c #C4C3C4",
";@	c #CBCCCC",
">@	c #CECFCF",
",@	c #CCCDCD",
"'@	c #C6C2C2",
")@	c #C3BDBE",
"!@	c #C2B8BB",
"~@	c #ECEAEB",
"{@	c #FAFAFA",
"]@	c #EDEBEC",
"^@	c #C3BEBF",
"  . + @ # # # $ % & * = = = = = = = * - ; > > , ' ) ! > ,   ! ~ # { ] ^ / ( ^ _ : < + @ [ @ < / / } ",
"| 1 2 # 3 $ # 2 4 5 6 7 8 8 8 8 8 7 9 0 a . . b c d e f 1 . . f # @ @ 1 g h i @ : < + < < + 2 + : j ",
"k + [ 2 $ # $ # l m n o p q q q p r s t u v w x y d ] z @ # z [ z # # @ g A i _ @ + B _ f < _ @ + C ",
"~ # + + # $ 2 + D E F G H I I I J K L M N O P x C d Q x # _ + # @ # @ . g R S T _ U V : : T V V @ W ",
"_ . # # # [ $ @ X Y Z `  .H H H  ...+.@.#.$.x f } < ] # : # : @ @ @ @ . w A %.: V + T f f T B V : y ",
"&.1 z @ 2 $ # @ *.=.-.K ;.;.;.;.;. .>.,.'.).x f y @ { !._ # w # # [ # # ~.R %.: < f _ : : _ [ @ + {.",
"].: $ # $ @ ^.g D =.-.K ;.;.;.;.;. ./.,.'.(.x : W ~ 1 3 # 2 # # # $ @ # _.R :.@ + : f < _ [ V @ B <.",
"&.T + 3 3 ( [.3 }.=.-.K ;.;.;.;.;. ./.,.'.(.d f |.1.{ @ @ @ 2 2.[ # # : ^.R 3.f _ < < _ < V _ 4.< } ",
"5.1 [ 2.( !.3 $ D =.-.K ;.;.;.;.;. .6.,.'.(.x f 7.&.{ @ _ + 2 3 @ # # . ^.8.3.: < < : < 2 V 9.V T 0.",
"].b ^.!.2 [ 2 $ }.=.-.K ;.;.;.;.;. .>.,.'.a.x f 7.&.{ + 3 $ : @ @ @ @ @ ^.C Q @ + + @ f _ [ b.V : j ",
"| 1 3 # . # 2 # D =.-.K ;.;.;.;.;. .>.,.'.).z f y c.# # 2 $ @ # @ @ @ @ ^.[.^ 5.T 5.b 5.5.5.5.5.T C ",
"d.g e.f.f.j g.j X =.-...I ;.;.;.;. .>.,.'.h.z x W ].: f $ [ # # # $ @ 1 ^.7.V 0.0.j 0.i.j.g k.k.f.l.",
"m.n.R A A o.n.A X =.-.p.I q.;.;.;. .>.,.'.).+ z W : { @ # @ @ # [ # # @ _.r.m.s.t.u.v.A c o.n.n.n.h ",
"] ! 3.| c.~ Q 5.D =.-.K ;.q.;.q.I  .>.,.'.a.x z {.: { @ @ : @ # 2 # # . _.w.x.^ b 5.U V ~ 1 :.! ! 3.",
"+ z # z !.2.3 $ D =.-.K I ;.;.q.I  .>.,.'.y.f # 7.k { # . @ @ $ # # _ _ _.A ! z $ 3 [ s.~.2.[ # z + ",
"z z w + + # # + z.=.-...I q.;.;.;. .>.,.'.A.z # 7.< { @ @ @ # # 3 _ # @ k.c :.^.k.3 f # [ t.w f f : ",
"3 $ B.s.z z f # z.=.-.K ;.;.;.;.;. .>.,.'.a.z f C.1.1 # # @ # 3 $ @ @ . _.f.i + ^.w [ + w < $ $ f 3 ",
"+ + $ ^.z f z [ D =.-.K I ;.;.;.;. .>.,.'.a.f P D.d _ _ # [ # 2 # @ @ . f.} 5.+ + [ ^.B 2.^.[ ^.$ + ",
"_ # # f z f z z D =.-...I ;.;.;.;. .>.,.'.A.z ~.E.F.: # @ !.2 # @ @ # : g } @ 2 + !.~.2 + # + w z _ ",
"[ z z + z ^.z f *.=.-.K I ;.;.;.;. .>.,.'.G.^.H.I.J.: + @ !.!.@ # # # @ ^.[.3.# + 3 ~.i.^.$ $ $ z z ",
"$ z + # # # z # z.=.-.K ;.q.;.;.;. .>.,.'.K.P z } @ @ # 2 L.@ @ $ @ @ @ i.n.3.2 z # f # w # + z # + ",
"# # # # $ w z z X =.-.K ;.q.;.;.;. .>.,.'.A.[ P g.@ { # 2 3 # 2 + : # # _.n.{ [ $ $ w # ^.w + f f # ",
"# # ^.B w w # w D =.-...I ;.;.;.;. .>.,.'.a.x ^.<.< @ @ @ 3 M.# # : @ @ ^.A 5.[ w _.w z z w z # + $ ",
"w z w w $ # $ _.D =.-.K ;.;.;.;.;. .>.,.'.a.[ w <.< # k.# 3 ^.3 # # # $ f.A , $ # # f # f w w f $ _.",
"N.O.I.I.O.O.O.P.}.=.-.K ;.q.;.;.;. .>.,.'.Q.<.O.R.h {.I.<.<.O.P.7.S.P.T.D.U.o.C.P.7.{.{.P.P.O.{.V.N.",
"W.F.5.].> ].    D =.-.K ;.;.;.;.;. .>.,.'.X.U W.w.Y.|   | ].  ].k     | c.Z.W.5.`. +~ &.k c.d.4.1.k ",
"B u.5.1 . . : + D =.-.K ;.;.;.;.;. .>.,.'.A..+4.<.c.1 5.: : b f : f [ : $ ++, : z $ f _ . # z # f 1 ",
"B w # $ z z z f D =.-.K ;.;.;.;.;. .>.,.'.A.P ~.D.~ J.!.+ 4.+ 2 4.2 t.+ _.R ! f z z z $ z # f # w !.",
"# x z # ~.2.[ z X =.-...I q.;.;.;. .>.,.'.y.x z O.k | [ x f x + [ x .+V k.R :.z [ k.w $ z f # f _ + ",
"$ # x f ^.w + ^.X =.-.p.I q.q.;.;. .>.,.'.).z x @+k b + z f + U + : + c.^.++3.# z + f 4.4.: # z z z ",
"z # f # # # [ ^.X =.-.K I q.q.;.;. .>.,.'.#+2.w O.~ 1 + < + + 2.P f V 2 i.++3.# 3 B $ [ k.[ _ # z z ",
"# # # # z + $ w }.=.-...I ;.;.;.;. .>.,.'.$+h s.S.W.1 f < + w c !.4.4.f j.A ] $ [ $ [ $ w _.z # z z ",
"z z # z + z # z D =.-.K I ;.;.;.;. .>.,.'.(.[ P T.&.! x f x 4.( B 2.[ x ^.++Q x ^.U # x z z w # z + ",
"# z # w ~.[ w # }.=.-...I ;.;.;.;. .>.,.'.).[ w T.1.b x + + 2 w + V 2 _ w n.Q x z z # # z # f f # + ",
"# f z $ z $ $ k.D =.-.K ;.q.;.;.;. .>.,.'.%+^.+ W k b z .+2 B + x x + x ~.++! + f z z f # f f f [ z ",
"f : f ^.w $ z w }.=.-.K ;.;.;.;.;. .>.,.'.a.x x y W.P s.< x x + + x x _ w &+5.+ f f f _ f f . : : 2 ",
"e.8.*+e.{.8.8.e.z.=.-.K I ;.;.;.I  .>.,.'.h.P + C.=++ U 4.+ + [ + _ f x z &+P *+j e.y *+C C *+e.|.g.",
"-+;+;+;+n.++c o.X =.-.K ;.;.;.;.I  .>.,.'.).s.^.T.d.1 4.+ + f [ U _ x _ P T.Y.H.H.u.u.;+f.;+f.;+;+w.",
"W.e ] b 5.b ! Q X =.-.K ;.;.;.q.;. .>.,.'.a.+ ~.O.>+, + # f f f + _ x : w -+%.i Q 3.i b b ! 3.e ^ 2.",
"k . [ w 2 [ + $ }.=.-.K ;.;.;.q.;. .>.,.'.A.x + P.>+. z + + 4.z _ x x ].w &+3.: f x U [ f x f . @ |.",
"5.. $ 3 $ $ # 2 D =.-.K ;.;.;.;.;. .>.,.,+'+z x 7.4.f z P x U U _ + + f 0.R :.: _ f U 4.: _ f < B W ",
"5.# z w $ # 3 3 }.=.-.K ;.;.;.;.;.H /.)+!+~+{+x ]+^+/+(+_+(+:+(+_+<+(+[+}+|+1+2+P : : + # f V _ @ <.",
"5.5.$ $ 3 $ B 2 D =.-.K ;.;.;.;.;.H 3+4+5+6+7+8+9+0+a+b+c+b+d+e+f+g+b+h+i+j+k+l+m+_ _ : @ V < : @ W ",
", 5.[ # 3 B.!.$ D =.-.K ;.;.;.;.;.I q.>.n+o+p+q+r+s+t+t+t+t+t+t+t+t+t+t+u+v+t+w+x+y+x ].@ k @ : f y ",
"< $ + + V z+( $ }.=.-...I ;.;.;.;.;.I H /.p A+B+B+C+D+E+E+D+D+D+E+E+D+D+F+C+G+H+8 I+@ f + 2 : 2 : } ",
"/ B 2 2 # 3 L.# D Y J+K+.. . .K K K K ..H L+J+M+M+M+M+N+O+N+M+M+O+O+M+M+N+O+P+Q+R+z.: @ V V B V + y ",
"S+M.[ 2 + @ 2 # X T+U+V+3+L+L+3+3+3+3+3+3+W+V+V+V+V+V+V+V+V+V+V+V+V+V+V+V+X+Y+Z+`+D < T < @ V [ $ |.",
"/ + 2.+ # @ B 2  @.@+@@@#@#@#@#@#@#@#@#@#@#@$@$@$@$@$@$@$@$@$@$@$@$@$@$@$@$@%@&@.@*@+ : + : + # + } ",
"  5.3 + + # B 9.=@-@;@>@>@>@>@>@>@>@>@>@>@>@>@>@>@>@>@>@>@>@>@>@>@>@>@>@>@>@>@,@'@)@B @ 4._ $ B.s.|.",
":.1 @ # # @ # 3 $ !@~@{@{@{@{@{@{@{@{@{@{@{@{@{@{@{@{@{@{@{@{@{@{@{@{@{@{@{@{@]@^@+ F.@ !.@ w b..+|."};
