/* XPM */
static char * N_xpm[] = {
"50 50 459 2",
"  	c #DAD3CD",
". 	c #CEC9CB",
"+ 	c #C2BCBD",
"@ 	c #C9BFC2",
"# 	c #C5BEC1",
"$ 	c #BDB6B9",
"% 	c #C1BABB",
"& 	c #E8E7E8",
"* 	c #F0F0F0",
"= 	c #EFF0EF",
"- 	c #EFF0F0",
"; 	c #ECEAE9",
"> 	c #D2CAC1",
", 	c #D1C8BF",
"' 	c #C6B9AD",
") 	c #CDC3BB",
"! 	c #D4CAC3",
"~ 	c #D7D0C7",
"{ 	c #D6D0CB",
"] 	c #B9AC9F",
"^ 	c #B5A593",
"/ 	c #DED8D6",
"( 	c #D2C3BD",
"_ 	c #D7D2D8",
": 	c #D9D5D9",
"< 	c #E2DEE1",
"[ 	c #E4DFDE",
"} 	c #E5E4E5",
"| 	c #CDC8CB",
"1 	c #C8BDBD",
"2 	c #BCB3B4",
"3 	c #C8B6B4",
"4 	c #998B8B",
"5 	c #D9CFCC",
"6 	c #D3CED1",
"7 	c #C1B6B9",
"8 	c #BAAEB1",
"9 	c #D3D3D3",
"0 	c #C5C5C6",
"a 	c #BABBBB",
"b 	c #B7B9B8",
"c 	c #B8B9B9",
"d 	c #C1C2C1",
"e 	c #CAC9C9",
"f 	c #CCC6C9",
"g 	c #D3CCCC",
"h 	c #D5D1D3",
"i 	c #A59B92",
"j 	c #C7C0B6",
"k 	c #DFDEE1",
"l 	c #C6C1C2",
"m 	c #C9C0C3",
"n 	c #D7D6D7",
"o 	c #C7C8C8",
"p 	c #BBBDBC",
"q 	c #BBBCBB",
"r 	c #C8C9C9",
"s 	c #D4D3D4",
"t 	c #C9BEBE",
"u 	c #9A9495",
"v 	c #D1C7C0",
"w 	c #D0D1D1",
"x 	c #9C9D9D",
"y 	c #757777",
"z 	c #6D6F6E",
"A 	c #6F7170",
"B 	c #848685",
"C 	c #ACACAC",
"D 	c #C6C2C2",
"E 	c #C6C1C0",
"F 	c #B4AEB1",
"G 	c #B6B0B2",
"H 	c #C5C0BF",
"I 	c #97908B",
"J 	c #BEB9BA",
"K 	c #C6BFC2",
"L 	c #D1CFD0",
"M 	c #AAABAB",
"N 	c #797B7A",
"O 	c #767877",
"P 	c #A3A5A4",
"Q 	c #CFCECE",
"R 	c #C2BDBE",
"S 	c #BAADAD",
"T 	c #CAC3C4",
"U 	c #969192",
"V 	c #CBCCCC",
"W 	c #888989",
"X 	c #4B4E4D",
"Y 	c #3A3D3C",
"Z 	c #3D4140",
"` 	c #555756",
" .	c #838585",
"..	c #B0B0B0",
"+.	c #C8C6C6",
"@.	c #BFBBBC",
"#.	c #C3BAB5",
"$.	c #BEB8B7",
"%.	c #DEDADA",
"&.	c #D0CFD0",
"*.	c #9B9D9C",
"=.	c #515453",
"-.	c #4A4D4D",
";.	c #909191",
">.	c #D1D2D2",
",.	c #E1DEDD",
"'.	c #C2B5B5",
").	c #D2C6C8",
"!.	c #928A84",
"~.	c #878888",
"{.	c #484B4A",
"].	c #373A39",
"^.	c #404342",
"/.	c #555857",
"(.	c #818382",
"_.	c #B4B5B5",
":.	c #C9C7C8",
"<.	c #C6C1C1",
"[.	c #9B9C9C",
"}.	c #4F5150",
"|.	c #474A49",
"1.	c #8E8F8F",
"2.	c #D6D7D7",
"3.	c #F9F9F9",
"4.	c #CCCDCD",
"5.	c #888A89",
"6.	c #4A4C4B",
"7.	c #393C3B",
"8.	c #3D403F",
"9.	c #3C3F3E",
"0.	c #3F4241",
"a.	c #585B5A",
"b.	c #868887",
"c.	c #B5B6B6",
"d.	c #C9C6C6",
"e.	c #C8C3C2",
"f.	c #B4A6A9",
"g.	c #C5BFC2",
"h.	c #CDCDCD",
"i.	c #505352",
"j.	c #4A4D4C",
"k.	c #8F9190",
"l.	c #FAFAFA",
"m.	c #8D8683",
"n.	c #A89EA2",
"o.	c #565958",
"p.	c #878988",
"q.	c #BDBDBD",
"r.	c #C8C5C6",
"s.	c #C5BDB8",
"t.	c #8F9191",
"u.	c #F8F8F8",
"v.	c #897F79",
"w.	c #B29D9A",
"x.	c #AA9793",
"y.	c #3E4140",
"z.	c #3B3E3D",
"A.	c #424544",
"B.	c #5B5E5D",
"C.	c #B9BABA",
"D.	c #C2C0C1",
"E.	c #B8B3B4",
"F.	c #938C8B",
"G.	c #CFC8BD",
"H.	c #B3A5A4",
"I.	c #CFCECF",
"J.	c #414443",
"K.	c #5A5D5C",
"L.	c #8E908F",
"M.	c #C5C3C4",
"N.	c #C6C2C1",
"O.	c #908781",
"P.	c #8F9090",
"Q.	c #B9A39E",
"R.	c #A39B9C",
"S.	c #444646",
"T.	c #5D5F5F",
"U.	c #8D8E8E",
"V.	c #BCBDBD",
"W.	c #D2D0D0",
"X.	c #C7C2C3",
"Y.	c #CECDCD",
"Z.	c #515352",
"`.	c #B29994",
" +	c #616362",
".+	c #929393",
"++	c #BBBCBC",
"@+	c #CFCDCD",
"#+	c #9A948F",
"$+	c #CABCB3",
"%+	c #8F898A",
"&+	c #A49EA1",
"*+	c #908788",
"=+	c #444746",
"-+	c #939494",
";+	c #C0C1C1",
">+	c #BEBCBB",
",+	c #D4CBC5",
"'+	c #D1D0D1",
")+	c #D7D7D7",
"!+	c #FBFBFB",
"~+	c #ABA3A5",
"{+	c #A7A0A1",
"]+	c #ACA6A9",
"^+	c #7C726F",
"/+	c #BAAA96",
"(+	c #A5998D",
"_+	c #9A8E83",
":+	c #A2968A",
"<+	c #A99D93",
"[+	c #393D3C",
"}+	c #434645",
"|+	c #656766",
"1+	c #969897",
"2+	c #BFC0C0",
"3+	c #D5D2D3",
"4+	c #D8D4D9",
"5+	c #AA9C8D",
"6+	c #AC968D",
"7+	c #E1DDDC",
"8+	c #636464",
"9+	c #969797",
"0+	c #C8C9C8",
"a+	c #D7D5D8",
"b+	c #CBC2C5",
"c+	c #BBB0AE",
"d+	c #DBD5D3",
"e+	c #474948",
"f+	c #686A69",
"g+	c #979898",
"h+	c #CECBCD",
"i+	c #D0CBCD",
"j+	c #CAC4C4",
"k+	c #4B4D4C",
"l+	c #B6AAA5",
"m+	c #B5ACAC",
"n+	c #464847",
"o+	c #676968",
"p+	c #9EA09F",
"q+	c #C9CACA",
"r+	c #D2CECF",
"s+	c #CCC3C5",
"t+	c #B2A39C",
"u+	c #AD9D99",
"v+	c #3D3F3E",
"w+	c #494C4B",
"x+	c #686B6A",
"y+	c #9A9C9B",
"z+	c #D7D3D4",
"A+	c #C6C0C2",
"B+	c #A1A3A2",
"C+	c #D2D0D1",
"D+	c #C2B8BA",
"E+	c #A2A4A3",
"F+	c #CACBCB",
"G+	c #D6D3D4",
"H+	c #CAC0C3",
"I+	c #F8F9F9",
"J+	c #727473",
"K+	c #A4A5A5",
"L+	c #CCCBCB",
"M+	c #D9D7D8",
"N+	c #C7C0C3",
"O+	c #CDCBCC",
"P+	c #9A9B9B",
"Q+	c #505251",
"R+	c #A7A9A8",
"S+	c #CFD0D0",
"T+	c #D4D0D2",
"U+	c #CECACC",
"V+	c #BDBCBD",
"W+	c #898B8A",
"X+	c #3B3F3E",
"Y+	c #4E504F",
"Z+	c #A6A7A7",
"`+	c #666867",
" @	c #4C4F4E",
".@	c #4D4F4F",
"+@	c #757776",
"@@	c #A2A3A3",
"#@	c #919292",
"$@	c #646666",
"%@	c #909291",
"&@	c #AEA9AC",
"*@	c #6A6C6B",
"=@	c #616363",
"-@	c #383B3A",
";@	c #857D7A",
">@	c #87807B",
",@	c #847A74",
"'@	c #8B827C",
")@	c #404241",
"!@	c #868384",
"~@	c #CBC1B5",
"{@	c #C5B4AD",
"]@	c #B2A89D",
"^@	c #595C5B",
"/@	c #747776",
"(@	c #4D504F",
"_@	c #909292",
":@	c #515353",
"<@	c #7E8080",
"[@	c #A6A8A7",
"}@	c #A7A8A8",
"|@	c #4D4F4E",
"1@	c #808282",
"2@	c #B2B4B4",
"3@	c #C6C7C6",
"4@	c #C1BFBF",
"5@	c #A8AAA9",
"6@	c #5D605F",
"7@	c #A3A4A4",
"8@	c #D9DADA",
"9@	c #DCDADA",
"0@	c #C0BCBD",
"a@	c #C3C1C1",
"b@	c #636564",
"c@	c #B1B2B1",
"d@	c #EAEAEA",
"e@	c #E4E0E1",
"f@	c #B7B2B4",
"g@	c #ACABAA",
"h@	c #A3A3A3",
"i@	c #717373",
"j@	c #4C4F4F",
"k@	c #4A4D4B",
"l@	c #B2B3B3",
"m@	c #978D85",
"n@	c #C4C2BE",
"o@	c #9D9E9E",
"p@	c #3C403F",
"q@	c #393D3B",
"r@	c #626463",
"s@	c #B2B3B2",
"t@	c #E4E2E3",
"u@	c #8A8077",
"v@	c #CCC3BC",
"w@	c #C8C8C6",
"x@	c #9E9F9E",
"y@	c #6D6F6F",
"z@	c #B1B3B2",
"A@	c #E6E5E4",
"B@	c #D3D0D1",
"C@	c #BBBABA",
"D@	c #6C6E6D",
"E@	c #484A49",
"F@	c #B0B1B1",
"G@	c #E9E9E9",
"H@	c #E6E2E2",
"I@	c #B9B4B2",
"J@	c #464948",
"K@	c #E9E7E7",
"L@	c #C7BEBE",
"M@	c #BAB8B8",
"N@	c #696B6B",
"O@	c #948F91",
"P@	c #9C9798",
"Q@	c #B1B2B2",
"R@	c #E9EAEA",
"S@	c #E6E3E3",
"T@	c #8F8883",
"U@	c #C3AC9D",
"V@	c #CECCCC",
"W@	c #959696",
"X@	c #96897D",
"Y@	c #ACA196",
"Z@	c #9C938A",
"`@	c #E6E4E4",
" #	c #CCC8C9",
".#	c #D6D6D6",
"+#	c #C5C6C6",
"@#	c #9C8C7D",
"##	c #E8E9E9",
"$#	c #E7E6E5",
"%#	c #CECACB",
"&#	c #C3C4C4",
"*#	c #454847",
"=#	c #E8E6E6",
"-#	c #C5C1C2",
";#	c #D6D5D6",
">#	c #5F6160",
",#	c #CEC9CA",
"'#	c #DBD9DA",
")#	c #8C8E8D",
"!#	c #E9E7E8",
"~#	c #BCB4B5",
"{#	c #CEC8C8",
"]#	c #D7D6D6",
"^#	c #BEBFBF",
"/#	c #8B8D8D",
"(#	c #575959",
"_#	c #4F5151",
":#	c #C7BCBC",
"<#	c #D5D5D5",
"[#	c #666868",
"}#	c #919392",
"|#	c #D5D6D6",
"1#	c #CEC8C9",
"2#	c #B9B9B9",
"3#	c #A3A4A3",
"4#	c #DBDBDB",
"5#	c #A78B83",
"6#	c #B0B2B1",
"7#	c #BFBBBD",
"8#	c #C2C0BD",
"9#	c #C5C5C5",
"0#	c #E5E4E4",
"a#	c #DCD7D9",
"b#	c #B9A7A4",
"c#	c #363938",
"d#	c #5F6261",
"e#	c #AFB0B0",
"f#	c #E9E8E8",
"g#	c #C5B0A4",
"h#	c #AFA79F",
"i#	c #E5E3E3",
"j#	c #F2F3F3",
"k#	c #F0EFEF",
"l#	c #C8C4C5",
"m#	c #CAB0A4",
"n#	c #C0A7A2",
"o#	c #8B8D8C",
"p#	c #525454",
"q#	c #464848",
"r#	c #454848",
"s#	c #DDDCDC",
"t#	c #D9D5D6",
"u#	c #ECE9E9",
"v#	c #EAE6E6",
"w#	c #E3E0E1",
"x#	c #CABFBF",
"y#	c #CAC9CA",
"z#	c #A5A5A6",
"A#	c #898B8B",
"B#	c #828484",
"C#	c #838584",
"D#	c #949695",
"E#	c #BBBBBB",
"F#	c #C6C3C3",
"G#	c #BEB7BA",
"H#	c #CACACA",
"I#	c #CCCDCC",
"J#	c #CCCCCC",
"K#	c #C6C6C6",
"L#	c #C5C0C2",
"M#	c #AEA39B",
"N#	c #817675",
"O#	c #E8E5E4",
"P#	c #C2B8BB",
"Q#	c #EAE8E9",
"R#	c #F7F7F7",
"S#	c #F5F4F4",
"T#	c #B2AEAD",
"U#	c #7F7570",
"V#	c #9F9996",
"W#	c #85786F",
"X#	c #7F7467",
"Y#	c #776656",
"Z#	c #BCAAA5",
"  . + @ # # # $ % & * = - * ; > , ' ) ! ~ ~ ~ { ] ^ / ~ {   / ( # _ : < [ * * } | 1 + @ 2 @ 1 3 3 4 ",
"5 6 7 # 8 $ # 7 9 0 a b c d e f 6 + f g h . . h i j k l 6 . . l # @ m n o p q r s t + 1 1 + 7 + f u ",
"v + 2 7 $ # $ # w x y z A B C D E F G + H H G H I j : J @ # J 2 J # K L M N O P Q R S T l 1 T @ + U ",
"( # + + # $ 7 + V W X Y Z `  ...+.@.#.l H $.$.H U j %.H # T + # @ # m &.*.=.-.;.>.,.'.f f ).'.'.@ !.",
"T . # # # 2 $ @ V ~.{.].Y ^./.(._.:.<.H $.F H l 4 1 : # f # f @ @ @ m &.[.}.|.1.2.3.).l l ).S '.f I ",
") 6 J @ 7 $ # @ 4.5.6.7.8.9.0.a.b.c.d.e.$.$.H l I @ _ f.T # G # # 2 g.h.*.i.j.k.2.l.T f f T 2 @ + m.",
"! f $ # $ @ F n.4.5.6.7.8.8.9.^.o.p.q.r.s.G H f !.( 6 8 # 7 # # # $ m h.*.i.j.t.2.u.l 1 T 2 '.@ S v.",
") ).+ 8 8 w.x.8 4.5.j.Y 8.y.9.z.A.B.5.C.D.E.j l F.G._ @ @ @ 7 H.2 # g.I.*.i.j.t.2.u.1 T 1 '.T #.1 4 ",
"g 6 2 H.w.f.8 $ 4.5.j.Y 8.8.8.8.8.J.K.L.a M.N.l O.) _ @ T + 7 8 @ # g.&.*.i.6.P.2.l.f 1 7 '.Q.'.).R.",
"! h F f.7 2 7 $ 4.5.j.Y 8.8.8.8.8.9.S.T.U.V.W.X.O.) _ + 8 $ f @ @ @ m Y.*.Z.X t.2.u.@ l T 2 `.'.f u ",
"5 6 8 # . # 7 # 4.5.j.Y 8.8.8.8.8.8.9.J. +.+++@+#+$+# # 7 $ @ # @ @ m Y.*.Z.j.k.2.l.h g g g g g ).U ",
"' n.%+&+&+u *+u 4.5.j.7.8.8.8.8.8.8.9.9.=+ +-+;+>+,+f l $ 2 # # # $ m '+*.i.j.k.)+!+R.~+{+n.]+]+&+^+",
"/+(+_+:+:+<+(+:+4.5.j.[+8.8.8.8.8.8.8.8.z.}+|+1+2+3+4+@ # @ @ # 2 # g.Y.*.i.j.k.2.3.5+:+i <+(+(+(+6+",
": / 7+5 $+( %.g 4.5.j.Y 8.8.8.8.8.8.8.8.9.9.=+8+9+0+a+b+@ f @ # 7 # g.&.*.Z.j.k.2.3.c+'.( 6 d+/ / 7+",
"+ J # J f.H.8 $ 4.5.j.Y 8.8.8.8.8.8.8.8.8.9.z.e+f+g+o h+i+@ @ $ # # j+Q *.Z.k+k.2.l.2 l+m+H.2 # J + ",
"J J G + + # # + 4.5.6.7.8.8.8.8.8.8.8.8.8.8.8.8.n+o+p+q+r+s+# # 8 T g.Y.*.i.6.k.2.u.l # 2 t+G l l f ",
"8 $ u+l+J J l # 4.5.j.Y 8.8.8.8.8.8.8.8.8.8.8.9.v+w+x+y+4.z+A+8 $ @ m &.*.i.j.t.2.u.2 + G 1 $ $ l 8 ",
"+ + $ F J l J 2 4.5.j.Y 8.8.8.8.8.8.8.8.8.8.8.8.8.8.|.z B+r C+D+# @ m &.*.i.6.P.2.l.F S H.F 2 F $ + ",
"T # # l J l J J 4.5.j.Y 8.8.8.8.8.8.8.8.8.8.8.8.8.9.8.j.z E+F+G+H+@ g.I.*.i.j.t.2.I+m+7 + # + G J T ",
"2 J J + J F J l 4.5.j.Y 8.8.8.8.8.8.8.8.8.8.8.8.8.8.8.9.j.J+K+L+M+N+# O+P+Q+j.k.2.l.m+~+F $ $ $ J J ",
"$ J + # # # J # 4.5.j.Y 8.8.8.8.8.8.8.8.8.8.8.8.8.8.8.9.8.X J+R+S+T+U+V+W+X j.k.)+!+l # G # + J # + ",
"# # # # $ G J J 4.5.j.Y 8.8.8.8.8.8.8.8.8.8.8.8.8.8.8.8.9.X+Y+O Z+V 2+9+`+A. @;.2.3.G # F G + l l # ",
"# # F S G G # G 4.5.j.Y 8.8.8.8.8.8.8.8.8.8.8.8.8.8.8.8.8.8.y..@+@@@#@$@=+7..@%@2.u.G J J G J # + $ ",
"G J G G $ # $ &@4.5.j.Y 8.8.8.8.8.8.8.8.8.9.9.8.8.8.8.8.8.8.z.y.=.*@=@w+9.-@ @t.2.u.l # l G G l $ &@",
";@>@,@,@>@>@>@'@4.5.j.Y 8.8.8.8.8.8.8.y.8.9.9.8.8.8.8.8.8.8.8.8.)@}+J.y.9.7. @t.2.l.m.m.'@'@>@m.!@;@",
"~@{@g ! ~ !     4.5.6.7.8.8.8.8.8.8.8.8.A.w+w+^.9.8.8.8.8.8.8.8.8.z.8.8.9.7. @t.)+l.( ) v $+' #.G.v ",
"S ]@g 6 . . f + 4.5.j.Y 8.8.8.8.8.8.z.y.^@/@/@=.8.9.8.8.8.8.8.8.8.9.8.8.9.7.(@_@2.u.l T . # J # l 6 ",
"S G # $ J J J l 4.5.j.Y 8.8.8.8.9.8.^.:@<@[@}@J+|@y.9.8.8.8.8.8.8.8.8.8.9.7..@;.2.l.J $ J # l # G f.",
"# H J # m+H.2 J 4.5.j.Y 8.8.8.8.9.9.i.1@2@3@4@5@O X 8.9.8.8.8.8.8.8.8.8.9.7. @t.2.3.G $ J l # l T + ",
"$ # H l F G + F 4.5.j.Y 8.8.8.8.9.9.6@7@8@9@0@a@7@J+(@8.9.8.8.8.8.8.8.8.9.7. @t.2.u.l #.#.f # J J J ",
"J # l # # # 2 F 4.5.j.Y 8.8.8.8.9.8.b@c@d@e@H.f@g@h@i@6.8.9.8.8.8.8.8.8.9.7.j@;.2.3.$ 2 ]+2 T # J J ",
"# # # # J + $ G 4.5.k@7.8.8.8.8.9.8.b@l@d@7+6+l+m@n@o@A X p@9.8.8.8.8.8.9.q@(@%@2.l.2 $ G &@J # J J ",
"J J # J + J # J 4.5.j.Y 8.8.8.8.9.8.r@s@d@t@2 $.u@v@w@x@y@|.v+8.8.8.8.8.9.7. @t.2.u.# H J J G # J + ",
"# J # G m+2 G # 4.5.6.7.8.8.8.8.9.8.r@z@d@A@2 G u@G.B@C@P+D@E@9.9.8.8.8.9.7. @t.)+l.# # J # l l # + ",
"# l J $ J $ $ ]+4.5.j.Y 8.8.8.8.9.8.r@F@G@H@F + !.v h J I@*.|+J@8.9.8.8.8.Y  @t.)+!+J l # l l l 2 J ",
"l f l F G $ J G 4.5.j.Y 8.8.8.8.9.8.r@F@G@K@H H I ~@$.l+L@M@P+N@=+z.8.8.8.Y (@%@2.3.l T l l . f f 7 ",
"%+O@P@%+m.O@O@%+4.5.j.Y 8.8.8.8.9.8.r@Q@R@S@$.+ T@U@+ c+#.V@r W@b@J@9.9.9.7..@;.2.u.I P@U U P@%+F.*+",
"X@Y@Y@Y@(+Z@i <+4.5.j.[+8.8.8.8.9.8.r@l@G@`@l+F u@' 6 #.+  #.#+#9+r@}+9.9.7. @t.2.3.]@Y@&+Y@&+Y@Y@@#",
"~@k : h g h / %.4.5.j.7.8.8.8.8.9.8.r@Q@##$#+ m+>@, { + # l %#n &#;.b@*#z.7. @t.2.l.H@h h / 7+k < H.",
"v . 2 G 7 2 + $ 4.5.j.Y 8.8.8.8.z.9.r@F@G@=#H + '@, . J + + #.-#;#;+#@>#A.7. @t.2.3.c+2 l H l . @ F.",
"g . $ 8 $ $ # 7 4.5.j.Y 8.8.8.8.z.9.=@Q@d@A@J H O.#.l J $.H c+c+,#'#++)#>#0.X t.2.l.c+#.f T l 1 S !.",
"g # J G $ # 8 8 4.5.j.Y 8.8.8.8.9.8.r@z@d@!#+ H '@j f + 2 + l + ~#{#]#^#/#(#_#k.2.u.f + # l '.T @ v.",
"g g $ $ 8 $ S 7 4.5.j.Y 8.8.8.8.9.8.r@z@d@K@H H _+v h $.m+J l T v ~#:#<#c b.[#}#|#3.T f @ '.1 f @ !.",
"{ g 2 # 8 u+f.$ 4.5.j.Y 8.8.8.8.9.8.r@z@d@S@2 H !.! f c+m+H + l l H H 1#@+2#L.3#4#I+H ! @ v @ f l I ",
"1 $ + + '.5#w.$ 4.5.j.7.9.8.8.8.z.9.r@6#R@A@2 l I j f J 2 H #.+ #.#.l # 7#8#9#w 0#a#@ l + 7 f 7 f 4 ",
"3 S 7 7 # 8 b## V ~.{.c#7.Y Y Y -@Y d#e#G@f#+ l Z@g#T l + + l + 2 S 8 8 {+h#i#j#k#l#f @ '.'.S '.+ I ",
"m#n#2 7 + @ 7 # 4.o#p#}+*#q#q#r#*#J@o+l@s#t#J H _+' g + + + H T 1 + G #.R.:+u#v#w#x#1 ).1 @ '.2 $ F.",
"3 + H.+ # @ S 7 y#z#A#B#C#C#C# .C# .D#E#F#+ H l I $+g + H H H T T f l f ~+:+H@T f @ + f + f + # + 4 ",
"  g 8 + + # S Q.G#D.H#4.I#I#I#I#J#V K#L#F f.F M#'@~@h H 2 2 m+2 &@G m+u N#(+O#f '.+ S @ #.T $ u+l+F.",
"d+6 @ # # @ # 8 $ P#Q#R#R#R#R#R#R#S#T#%+!@>@!@U#U#^ V#m.^+;@^+v.W#W#W#X#Y#^ H@T + + {@@ f.@ G `.Z#F."};
