/* XPM */
static char * O_xpm[] = {
"50 50 433 2",
"  	c #DAD3CD",
". 	c #CEC9CB",
"+ 	c #C2BCBD",
"@ 	c #C9BFC2",
"# 	c #C5BEC1",
"$ 	c #BDB6B9",
"% 	c #BFB7B8",
"& 	c #E5E5E6",
"* 	c #EDEEED",
"= 	c #ECECEC",
"- 	c #ECEDED",
"; 	c #EDEEEE",
"> 	c #E4E2E4",
", 	c #C9B8B6",
"' 	c #B4A09D",
") 	c #E2DEE1",
"! 	c #CAC3C4",
"~ 	c #CCC6C9",
"{ 	c #C8BDBD",
"] 	c #BCB3B4",
"^ 	c #C8B6B4",
"/ 	c #998B8B",
"( 	c #D9CFCC",
"_ 	c #D3CED1",
": 	c #C1B6B9",
"< 	c #BAAEB1",
"[ 	c #BEB8BB",
"} 	c #C9C8C8",
"| 	c #C1C2C2",
"1 	c #B9BAB9",
"2 	c #B6B7B7",
"3 	c #B7B8B8",
"4 	c #B8B9B9",
"5 	c #B7B9B8",
"6 	c #B8B9B8",
"7 	c #BDBEBD",
"8 	c #CBCBCA",
"9 	c #DBDBDA",
"0 	c #CAC0BC",
"a 	c #E6E2E2",
"b 	c #9A9495",
"c 	c #D1C7C0",
"d 	c #CAC8C9",
"e 	c #B1B2B2",
"f 	c #909191",
"g 	c #767878",
"h 	c #6E7070",
"i 	c #707272",
"j 	c #727473",
"k 	c #717473",
"l 	c #717372",
"m 	c #7F8180",
"n 	c #A8A9A9",
"o 	c #CCCDCD",
"p 	c #D1D1CF",
"q 	c #E0DEDE",
"r 	c #BAADAD",
"s 	c #C6C1C2",
"t 	c #969192",
"u 	c #D2C3BD",
"v 	c #CFD0D0",
"w 	c #767877",
"x 	c #4C4F4E",
"y 	c #3D403F",
"z 	c #414443",
"A 	c #424544",
"B 	c #424644",
"C 	c #434645",
"D 	c #444746",
"E 	c #525554",
"F 	c #797A7A",
"G 	c #959696",
"H 	c #A9AAA9",
"I 	c #BFBFBE",
"J 	c #CBC4C5",
"K 	c #BBB0AE",
"L 	c #C2B5B5",
"M 	c #D2C6C8",
"N 	c #928A84",
"O 	c #CECFCF",
"P 	c #A7A8A8",
"Q 	c #737574",
"R 	c #484A49",
"S 	c #383B3A",
"T 	c #3B3E3D",
"U 	c #3C3F3E",
"V 	c #535655",
"W 	c #616362",
"X 	c #646665",
"Y 	c #575959",
"Z 	c #484B4A",
"` 	c #3F4241",
" .	c #424444",
"..	c #4F5151",
"+.	c #575A59",
"@.	c #686A69",
"#.	c #999A99",
"$.	c #C7C7C6",
"%.	c #D2CBCB",
"&.	c #C3BEBE",
"*.	c #97908B",
"=.	c #CDC3BB",
"-.	c #BEB9BA",
";.	c #747574",
">.	c #595B5A",
",.	c #7E807F",
"'.	c #9EA09F",
").	c #A6A7A6",
"!.	c #878988",
"~.	c #626564",
"{.	c #494B4B",
"].	c #3E4140",
"^.	c #4A4D4C",
"/.	c #868787",
"(.	c #C4C4C4",
"_.	c #DEDCDC",
":.	c #C8C3C4",
"<.	c #8D8683",
"[.	c #D4CAC3",
"}.	c #B4AEB1",
"|.	c #A89EA2",
"1.	c #565958",
"2.	c #7B7D7D",
"3.	c #A7A7A8",
"4.	c #BEBDBD",
"5.	c #D2D0CE",
"6.	c #B4B5B5",
"7.	c #8A8B8B",
"8.	c #474948",
"9.	c #767777",
"0.	c #ABACAC",
"a.	c #CFCBCD",
"b.	c #897F79",
"c.	c #B29D9A",
"d.	c #AA9793",
"e.	c #404342",
"f.	c #7D7F7E",
"g.	c #A3A4A4",
"h.	c #BEBEBE",
"i.	c #989291",
"j.	c #CFC9BF",
"k.	c #D1D0D2",
"l.	c #B3B3B3",
"m.	c #888A8A",
"n.	c #606262",
"o.	c #565857",
"p.	c #7C7D7D",
"q.	c #D5D6D6",
"r.	c #C3BAB5",
"s.	c #D3CCCC",
"t.	c #B3A5A4",
"u.	c #B4A6A9",
"v.	c #747575",
"w.	c #545756",
"x.	c #787A79",
"y.	c #A2A3A3",
"z.	c #BEBEBD",
"A.	c #C5C1C2",
"B.	c #908781",
"C.	c #D6D2D7",
"D.	c #CAC8C8",
"E.	c #B0B1B1",
"F.	c #858787",
"G.	c #5F6160",
"H.	c #464948",
"I.	c #606261",
"J.	c #9D9E9E",
"K.	c #B9A39E",
"L.	c #A39B9C",
"M.	c #D5D1D3",
"N.	c #737575",
"O.	c #3A3D3C",
"P.	c #474A49",
"Q.	c #A2A4A3",
"R.	c #BDBCBC",
"S.	c #C5C0BF",
"T.	c #D7D2D8",
"U.	c #C4BEBF",
"V.	c #C9C5C6",
"W.	c #7D7E7E",
"X.	c #5A5C5B",
"Y.	c #9A9B9B",
"Z.	c #D3D4D3",
"`.	c #B29994",
" +	c #727474",
".+	c #393C3B",
"++	c #4B4E4D",
"@+	c #838584",
"#+	c #C6C4C4",
"$+	c #CABCB3",
"%+	c #DBD7D8",
"&+	c #CCCDCC",
"*+	c #8B8D8C",
"=+	c #595C5B",
"-+	c #9A9B9A",
";+	c #D2D3D2",
">+	c #C6B9AD",
",+	c #8F898A",
"'+	c #A49EA1",
")+	c #908788",
"!+	c #383C3B",
"~+	c #878888",
"{+	c #BABBBB",
"]+	c #C8C5C5",
"^+	c #DCDADB",
"/+	c #8D8F8E",
"(+	c #5A5D5C",
"_+	c #ABA3A5",
":+	c #A7A0A1",
"<+	c #ACA6A9",
"[+	c #7C726F",
"}+	c #BAAA96",
"|+	c #A5998D",
"1+	c #9A8E83",
"2+	c #A2968A",
"3+	c #A99D93",
"4+	c #868888",
"5+	c #BABBBA",
"6+	c #C8C7C6",
"7+	c #DFDDDE",
"8+	c #CFCFCF",
"9+	c #8C8E8D",
"0+	c #5B5D5C",
"a+	c #999A9A",
"b+	c #AA9C8D",
"c+	c #A59B92",
"d+	c #AC968D",
"e+	c #D9D5D9",
"f+	c #DED8D6",
"g+	c #E1DDDC",
"h+	c #DEDADA",
"i+	c #CBCAC9",
"j+	c #E0DEDF",
"k+	c #D3D4D4",
"l+	c #DBD5D3",
"m+	c #C8C7C7",
"n+	c #E2E0E1",
"o+	c #8D8E8E",
"p+	c #B6AAA5",
"q+	c #B5ACAC",
"r+	c #B6B0B2",
"s+	c #E2DEDF",
"t+	c #D1D1D1",
"u+	c #8F9090",
"v+	c #B2A39C",
"w+	c #AD9D99",
"x+	c #8F8883",
"y+	c #CFC8BD",
"z+	c #8E908F",
"A+	c #BEB8B7",
"B+	c #85786F",
"C+	c #C7C0B6",
"D+	c #DEDCDD",
"E+	c #8C8E8E",
"F+	c #7F7467",
"G+	c #C5B4AD",
"H+	c #E1DEDF",
"I+	c #D0D1D1",
"J+	c #8E8F8F",
"K+	c #5B5E5D",
"L+	c #CBCACA",
"M+	c #AEA39B",
"N+	c #847A74",
"O+	c #C8B4AA",
"P+	c #D2D3D3",
"Q+	c #CBC9CA",
"R+	c #DEDADB",
"S+	c #8C8D8D",
"T+	c #424443",
"U+	c #AEA9AC",
"V+	c #DEDDDE",
"W+	c #857D7A",
"X+	c #87807B",
"Y+	c #8B827C",
"Z+	c #B7B5B4",
"`+	c #82766D",
" @	c #CECCCB",
".@	c #868384",
"+@	c #CBC1B5",
"@@	c #D7D0C7",
"#@	c #CDCAC5",
"$@	c #9C8C7D",
"%@	c #B2A28F",
"&@	c #E8E4E3",
"*@	c #B2A89D",
"=@	c #BCAAA5",
"-@	c #E1DFE0",
";@	c #DFDDDD",
">@	c #8A7D75",
",@	c #DBDADA",
"'@	c #CECECE",
")@	c #8D8F8F",
"!@	c #595B5B",
"~@	c #C4C0C1",
"{@	c #DFDCDC",
"]@	c #C2BDBC",
"^@	c #91857C",
"/@	c #E1DDDD",
"(@	c #D0D0D0",
"_@	c #5B5D5D",
":@	c #C5C4C4",
"<@	c #8A8077",
"[@	c #C7C4C3",
"}@	c #DDD7D6",
"|@	c #948F91",
"1@	c #9C9798",
"2@	c #C7C5C5",
"3@	c #C3AC9D",
"4@	c #DEDBDA",
"5@	c #8B8D8D",
"6@	c #938C8B",
"7@	c #96897D",
"8@	c #ACA196",
"9@	c #9C938A",
"0@	c #737474",
"a@	c #DFDEE1",
"b@	c #4B4F4E",
"c@	c #CCCAC9",
"d@	c #D1C8BF",
"e@	c #D6D0CB",
"f@	c #E0DDDE",
"g@	c #818282",
"h@	c #B3B4B3",
"i@	c #D7D5D6",
"j@	c #C7C7C7",
"k@	c #888989",
"l@	c #585B5A",
"m@	c #5A5B5B",
"n@	c #747675",
"o@	c #494C4B",
"p@	c #6C6E6D",
"q@	c #989998",
"r@	c #B3B1B0",
"s@	c #BDB9BA",
"t@	c #BFBABB",
"u@	c #C2C1C0",
"v@	c #AAABAB",
"w@	c #505251",
"x@	c #3A3E3C",
"y@	c #CDCDCD",
"z@	c #ACACAC",
"A@	c #7C7E7D",
"B@	c #525453",
"C@	c #6D706F",
"D@	c #989A99",
"E@	c #B7B6B6",
"F@	c #C4C0BF",
"G@	c #968F8A",
"H@	c #CBC5BC",
"I@	c #CCC7C9",
"J@	c #C1BFBF",
"K@	c #A4A5A5",
"L@	c #797B7B",
"M@	c #C6C1C3",
"N@	c #BCBBBB",
"O@	c #979998",
"P@	c #6C6F6E",
"Q@	c #4D504F",
"R@	c #4F5251",
"S@	c #979897",
"T@	c #BDBDBD",
"U@	c #DAD9D8",
"V@	c #E7E5E5",
"W@	c #A5A7A6",
"X@	c #575958",
"Y@	c #BFB8BB",
"Z@	c #D5D4D5",
"`@	c #BABABA",
" #	c #8A8C8B",
".#	c #5E6160",
"+#	c #4E5050",
"@#	c #707271",
"##	c #C5C5C5",
"$#	c #7E7F7F",
"%#	c #999B9A",
"&#	c #A78B83",
"*#	c #C2B7BA",
"=#	c #C9C3C3",
"-#	c #BEBDBE",
";#	c #696B6A",
">#	c #454847",
",#	c #515453",
"'#	c #929393",
")#	c #797B7A",
"!#	c #5A5C5C",
"~#	c #B9A7A4",
"{#	c #C1C0C1",
"]#	c #ACADAD",
"^#	c #8B8C8B",
"/#	c #6F7170",
"(#	c #4B4D4C",
"_#	c #CAB0A4",
":#	c #C0A7A2",
"<#	c #C7C1C1",
"[#	c #C6C6C7",
"}#	c #C5C6C5",
"|#	c #B0B1B0",
"1#	c #6A6C6B",
"2#	c #4A4C4C",
"3#	c #494C4C",
"4#	c #494B4A",
"5#	c #626463",
"6#	c #9E9E9E",
"7#	c #D5D5D5",
"8#	c #C9C6C8",
"9#	c #D6D4D2",
"0#	c #D8D8D8",
"a#	c #BBBCBC",
"b#	c #9C9D9D",
"c#	c #878989",
"d#	c #828383",
"e#	c #828484",
"f#	c #838484",
"g#	c #838585",
"h#	c #828483",
"i#	c #AFAFB0",
"j#	c #D2D0D1",
"k#	c #B5AFB2",
"l#	c #D4CCCE",
"m#	c #CECCCD",
"n#	c #C9CACA",
"o#	c #C8C9C9",
"p#	c #C9C9C9",
"q#	c #CACACA",
"r#	c #C9CAC9",
"s#	c #C3C0C0",
"t#	c #C2BDBE",
"u#	c #AB9995",
"v#	c #867C7B",
"w#	c #A49F9B",
"x#	c #EEEEEE",
"y#	c #F4F4F4",
"z#	c #E8E7E7",
"  . + @ # # # $ % & * = - ; - = = - - - - - = = - - - - - - - - - ; - > , ' ) ! ~ { + @ ] @ { ^ ^ / ",
"( _ : # < $ # : [ } | 1 2 3 4 3 3 5 4 4 5 5 6 5 5 5 5 4 5 5 5 5 5 3 7 8 9 0 a @ ~ { + { { + : + ~ b ",
"c + ] : $ # $ # d e f g h i j k k k j j k k j k k k k j k k k k l l m n o p q ! @ + r ! s { ! @ + t ",
"u # + + # $ : + v n w x y z A A A A A A A A B C D D D C A A A A z A E F G H I J ! K L ~ ~ M L L @ N ",
"! . # # # ] $ @ O P Q R S T U U U U U U T U D V W X Y Z ` U U U U U  ...+.@.#.$.%.&.M s s M r L ~ *.",
"=._ -.@ : $ # @ O P ;.Z S U y y y y y y U z >.,.'.).!.~.{.].U y y y y y T ^./.(._.:.! ~ ~ ! ] @ + <.",
"[.~ $ # $ @ }.|.O P ;.Z S U y y y y U U A 1.2.3.4.5.6.7.W R ].U y y y y T 8.9.0.} a.s { ! ] L @ r b.",
"=.M + < < c.d.< O P ;.Z S U y y y y y e.1.f.g.h.i.j.k.l.m.n.Z ].y y y y U e.o.p.0.q.{ ! { L ! r.{ / ",
"s._ ] t.c.u.< $ O P v.Z S U y y U T e.w.x.y.z.A.B.=.C.D.E.F.G.H.].y y y y y e.I.J.q.~ { : L K.L M L.",
"[.M.}.u.: ] : $ O P N.Z S U y y U O.P.v.Q.R.S.s B.=.T.U.V.6.W.V e.U U U y U T X.Y.Z.@ s ! ] `.L ~ b ",
"( _ < # . # : # O P  +P.S U ].y U .+++@+2 #+-.s *.$+# # %+&+*+=+A U U y y U T X.-+;+M.s.s.s.s.s.M t ",
">+|.,+'+'+b )+b O P Q R S U ].y U !+x ~+{+]+-.S.N [.~ s ^+v /+(+A U U y y U T >.#.Z.L._+:+|.<+<+'+[+",
"}+|+1+2+2+3+|+2+O P v.Z S U y y U !+x 4+5+6++ -.N ~ T.@ 7+8+9+0+z U y y y U T >.a+Z.b+2+c+3+|+|+|+d+",
"e+f+g+( $+u h+s.O P ;.Z S U y y U !+x 4+5+i+S.-.<.~ T.@ j+v 9+0+A U U y y U T X.Y.k+K L u _ l+f+f+g+",
"+ -.# -.u.t.< $ O P ;.Z S U y y U !+x 4+{+m+s # B.c T.# n+8+o+0+C U U U y U T X.Y.Z.] p+q+t.] # -.+ ",
"-.-.r++ + # # + O P ;.Z S U y y U !+x 4+{+D.-.# B.{ T.@ s+t+u+0+A U U y y U T X.-+Z.s # ] v+r+s s ~ ",
"< $ w+p+-.-.s # O P ;.Z S U y y U !+x 4+{+i+-.s x+y+_ # j+t+z+(+z U y y y U O.>.Y.Z.] + r+{ $ $ s < ",
"+ + $ }.-.s -.] O P ;.Z S U ].y U !+x 4+{+i+s A+B+C+! ! D+O E+(+A U y y y U T X.Y.Z.}.r t.}.] }.$ + ",
"! # # s -.s -.-.O P ;.Z S U y y U !+x 4+{+D.-.q+F+G+~ # H+I+J+K+C U U U y U T X.-+Z.q+: + # + r+-.! ",
"] -.-.+ -.}.-.s O P ;.Z S U y y U !+x 4+{+L+}.M+N+O+~ + s+t+o+0+A U U y y U T X.-+P+q+_+}.$ $ $ -.-.",
"$ -.+ # # # -.# O P ;.Z S U y y U !+x 4+{+Q+A+-./ @ @ # R+8+S+(+z U y y y U T >.#.Z.s # r+# + -.# + ",
"# # # # $ r+-.-.O P ;.Z S U y y U !+x 4+{+D.] A+)+@ T.# R+8+9+0+T+U y y y U T >.#.Z.r+# }.r++ s s # ",
"# # }.r r+r+# r+O P ;.Z S U ].y U !+x 4+{+i+S.}.b.{ @ @ H+v 9+K+A U U y y U T X.Y.k+r+-.-.r+-.# + $ ",
"r+-.r+r+$ # $ U+O P ;.Z S U ].y U !+x 4+{+i+] r+b.{ # <+V+O o+K+A U U U y U T X.Y.Z.s # s r+r+s $ U+",
"W+X+N+N+X+X+X+Y+O P ;.Z S U y y U !+x 4+{+Z+b.X+`+d+<.N+ @t+z+(+C U U y y U T X.-+Z.<.<.Y+Y+X+<..@W+",
"+@G+s.[.@@[.    O P ;.Z S U ].y U !+x 4+{+#@K +@$@%@(   &@t+z+(+A U y y y U O.>.Y.Z.u =.c $+>+r.y+c ",
"r *@s._ . . ~ + O P ;.Z S U y y U !+x 4+{+D.=@r.b.$+_ s.-@O o+(+T+U y y y U T X.Y.Z.s ! . # -.# s _ ",
"r r+# $ -.-.-.s O P ;.Z S U y y U !+x 4+{+D.A+q+B+u O+u.;@v 9+K+C U U y y U T X.-+Z.-.$ -.# s # r+u.",
"# S.-.# q+t.] -.O P ;.Z S U y y U !+x 4+{+m+S.-.X+c ( ] ;@v J+0+A U U y y U T X.-+;+r+$ -.s # s ! + ",
"$ # S.s }.r++ }.O P ;.Z S U y y U !+x 4+{+6+-.S.>@c M.+ ,@'@)@(+z U U y y U O.!@-+Z.s r.r.~ # -.-.-.",
"-.# s # # # ] }.O P ;.Z S U y y U !+x 4+5+~@t.r+X+u _ + {@8+9+(+z U y y y U O.!@Y.k+$ ] <+] ! # -.-.",
"# # # # -.+ $ r+O P ;.Z S U ].y U !+x 4+{+]@d+p+^@+@_ s /@(@9+_@A U U y y U T X.Y.Z.] $ r+U+-.# -.-.",
"-.-.# -.+ -.# -.O P ;.Z S U y y U !+x 4+{+:@] A+<@=.f+S.;@O E+(+C U U U y U T X.-+Z.# S.-.-.r+# -.+ ",
"# -.# r+q+] r+# O P ;.Z S U y y U !+x 4+{+6+] r+<@y+M.S.7+t+z+K+A U y y y U T X.Y.Z.# # -.# s s # + ",
"# s -.$ -.$ $ <+O P ;.Z S U y y U !+x 4+{+[@}.+ N c M.-.}@t+z+(+z U U y y U O.>.Y.k+-.s # s s s ] -.",
"s ~ s }.r+$ -.r+O P ;.Z S U y ].U !+x 4+{+i+S.S.*.+@A+p+{@8+o+(+z U U y y U T !@Y.Z.s ! s s . ~ ~ : ",
",+|@1@,+<.|@|@,+O P  +P.S U y y y !+x 4+{+2@A++ x+3@+ K 4@8+5@(+C U U y y U T X.Y.Z.*.1@t t 1@,+6@)+",
"7@8@8@8@|+9@c+3+O P 0@P.S U y y U !+x ~+{+6+p+}.<@>+_ r.7+(@S+(+A U U U y U O.!@Y.k+*@8@'+8@'+8@8@$@",
"+@a@e+M.s.M.f+h+O P v.Z S U y y U !+b@4+{+c@+ q+X+d@e@+ f@(@E+(+z U U U y U O.!@Y.Z.a M.M.f+g+a@) t.",
"c . ] r+: ] + $ O P Q Z S U y y U !+^.g@h@#+S.+ Y+d@. -.i@j@k@l@z U y y y U T m@-+Z.K ] s S.s . @ 6@",
"s.. $ < $ $ # : O P n@o@.+U y y y O.H.p@q@r@s@S.B.r.s t@u@v@9.w@e.U y y y U x@>.Y.Z.K r.~ ! s { r N ",
"s.# -.r+$ # < < y@z@A@B@].U y y y U ].x C@D@E@F@G@H@I@J@K@L@Y C y U y y y U T X.-+Z.~ + # s L ! @ b.",
"s.s.$ $ < $ r : M@N@O@P@Q@].T U y y U ].R@l S@T@U@V@y@W@A@X@D y y y y y y U T >.D@;+! ~ @ L { ~ @ N ",
"e@s.] # < w+u.$ Y@Z@`@ #.#` O.y y U y U ` +#@#'.##o 0.$#l@D y U y y U y y U T !@%#Z.S.[.@ c @ ~ s *.",
"{ $ + + L &#c.$ *#=#-#a+;#>#U ].y y y y U ].,#l S+'#)#!#>#y U y y y y y y U T X.Y.k+@ s + : ~ : ~ / ",
"^ r : : # < ~## + # {#]#^#/#_@(#e.U U y U U z (#V 1.Q@D ].U U U y y y U U T O.!@-+Z.~ @ L L r L + *.",
"_#:#] : + @ : # # + <#[#}#|#o+1#,#Z {.2#o@o@o@o@2#o@o@o@o@o@{.o@o@3#o@o@{.4#Z 5#6#7#{ M { @ L ] $ 6@",
"^ + t.+ # @ r : # # s 8#9#0#a#b#c#d#d#e#e#f#g#g#g#e#e#f#g#g#f#f#g#e#g#f#f#f#h#u+i#j#+ ~ + ~ + # + / ",
"  s.< + + # r K.$ $ : k#9@l#m#(.n#o#o#o#o#p#q#q#n#o#o#n#q#q#n#o#n#o#n#o#n#n#r#o#s#t#r @ r.! $ w+p+6@",
"l+_ @ # # @ # < $ : # r+^@u#v#w#x#y#y#y#y#y#y#y#y#y#y#y#y#y#y#y#y#y#y#y#y#y#y#z#&.+ G+@ u.@ r+`.=@6@"};
