/* XPM */
static char * S_xpm[] = {
"50 50 448 2",
"  	c #DAD3CD",
". 	c #CEC9CB",
"+ 	c #C2BCBD",
"@ 	c #C9BFC2",
"# 	c #C5BEC1",
"$ 	c #BDB6B9",
"% 	c #BCB3B4",
"& 	c #CBC6C8",
"* 	c #F5F5F5",
"= 	c #D7D3D5",
"- 	c #C8BDBD",
"; 	c #C8B6B4",
"> 	c #998B8B",
", 	c #D9CFCC",
"' 	c #D3CED1",
") 	c #C1B6B9",
"! 	c #BAAEB1",
"~ 	c #BEB7BA",
"{ 	c #CBC8C9",
"] 	c #C4C5C4",
"^ 	c #BDBEBD",
"/ 	c #BCBDBD",
"( 	c #BDBDBD",
"_ 	c #C2C2C2",
": 	c #D0D0D1",
"< 	c #CCC3C3",
"[ 	c #CCC6C9",
"} 	c #9A9495",
"| 	c #D1C7C0",
"1 	c #D8D2D4",
"2 	c #C7C8C8",
"3 	c #828383",
"4 	c #656766",
"5 	c #656666",
"6 	c #666867",
"7 	c #656767",
"8 	c #646666",
"9 	c #666767",
"0 	c #636565",
"a 	c #7A7C7B",
"b 	c #E1E1E1",
"c 	c #BAADAD",
"d 	c #CAC3C4",
"e 	c #C6C1C2",
"f 	c #969192",
"g 	c #D2C3BD",
"h 	c #F3F2F2",
"i 	c #C2C3C3",
"j 	c #696B6B",
"k 	c #3A3D3C",
"l 	c #3B3E3D",
"m 	c #3C3F3E",
"n 	c #3D403F",
"o 	c #3D3F3E",
"p 	c #393C3B",
"q 	c #5F6261",
"r 	c #B6B8B7",
"s 	c #F2F2F2",
"t 	c #C2B5B5",
"u 	c #D2C6C8",
"v 	c #928A84",
"w 	c #C4C5C5",
"x 	c #696B6A",
"y 	c #3E4140",
"z 	c #4C4F4E",
"A 	c #595B5B",
"B 	c #4E5150",
"C 	c #3F4241",
"D 	c #383B3A",
"E 	c #5E6160",
"F 	c #B7B8B8",
"G 	c #97908B",
"H 	c #CDC3BB",
"I 	c #BEB9BA",
"J 	c #6A6C6B",
"K 	c #7D7F7E",
"L 	c #AAABAB",
"M 	c #ACADAD",
"N 	c #858787",
"O 	c #505352",
"P 	c #F1F1F1",
"Q 	c #8D8683",
"R 	c #D4CAC3",
"S 	c #B4AEB1",
"T 	c #A89EA2",
"U 	c #727473",
"V 	c #ADAFAF",
"W 	c #E3E4E4",
"X 	c #E8E8E8",
"Y 	c #B8B9B8",
"Z 	c #797B7A",
"` 	c #505251",
" .	c #897F79",
"..	c #B29D9A",
"+.	c #AA9793",
"@.	c #474A49",
"#.	c #767877",
"$.	c #B0B2B1",
"%.	c #CDCCCC",
"&.	c #A39E9D",
"*.	c #D4CFC5",
"=.	c #D6D6D7",
"-.	c #7E807F",
";.	c #4B4E4D",
">.	c #B7B9B8",
",.	c #C3BAB5",
"'.	c #D3CCCC",
").	c #B3A5A4",
"!.	c #B4A6A9",
"~.	c #C3C4C4",
"{.	c #6F7171",
"].	c #A4A6A5",
"^.	c #D7D8D8",
"/.	c #C8C3C4",
"(.	c #908781",
"_.	c #D7D3D8",
":.	c #D6D4D5",
"<.	c #757776",
"[.	c #4F5251",
"}.	c #B9A39E",
"|.	c #A39B9C",
"1.	c #D5D1D3",
"2.	c #F7F7F7",
"3.	c #666868",
"4.	c #ABADAD",
"5.	c #D5D6D6",
"6.	c #C8C4C3",
"7.	c #D7D2D8",
"8.	c #C3BDBE",
"9.	c #D3D1D1",
"0.	c #B4B6B5",
"a.	c #6F7271",
"b.	c #404342",
"c.	c #5F6160",
"d.	c #F0F1F1",
"e.	c #B29994",
"f.	c #737675",
"g.	c #C7C9C8",
"h.	c #E4E3E3",
"i.	c #CABCB3",
"j.	c #E7E5E6",
"k.	c #D0D1D1",
"l.	c #7E7F7F",
"m.	c #373A39",
"n.	c #5D605F",
"o.	c #C6B9AD",
"p.	c #8F898A",
"q.	c #A49EA1",
"r.	c #908788",
"s.	c #757777",
"t.	c #CBCCCC",
"u.	c #E6E5E5",
"v.	c #C5C0BF",
"w.	c #DEDBDC",
"x.	c #898B8B",
"y.	c #565858",
"z.	c #515353",
"A.	c #525554",
"B.	c #535554",
"C.	c #525454",
"D.	c #525453",
"E.	c #505252",
"F.	c #6E706F",
"G.	c #BABBBB",
"H.	c #ABA3A5",
"I.	c #A7A0A1",
"J.	c #ACA6A9",
"K.	c #7C726F",
"L.	c #BAAA96",
"M.	c #A5998D",
"N.	c #9A8E83",
"O.	c #A2968A",
"P.	c #A99D93",
"Q.	c #C2C3C2",
"R.	c #696C6B",
"S.	c #CACBCB",
"T.	c #E7E6E6",
"U.	c #C6BFC2",
"V.	c #CECBCC",
"W.	c #A3A4A4",
"X.	c #A2A4A3",
"Y.	c #ABACAB",
"Z.	c #C4C3C2",
"`.	c #C4BEB7",
" +	c #AA9C8D",
".+	c #A59B92",
"++	c #AC968D",
"@+	c #D9D5D9",
"#+	c #DED8D6",
"$+	c #E1DDDC",
"%+	c #DEDADA",
"&+	c #E8E7E7",
"*+	c #E2E0E1",
"=+	c #E9E9E9",
"-+	c #EAEAEA",
";+	c #D9D6D7",
">+	c #BBB0AE",
",+	c #DBD5D3",
"'+	c #D1CCCE",
")+	c #D6D2D4",
"!+	c #D9D5D6",
"~+	c #C8C5C7",
"{+	c #C1BAB4",
"]+	c #E7E3E1",
"^+	c #CECBCB",
"/+	c #B6AAA5",
"(+	c #B5ACAC",
"_+	c #B6B0B2",
":+	c #B2A39C",
"<+	c #AD9D99",
"[+	c #747776",
"}+	c #E8E6E6",
"|+	c #8F8883",
"1+	c #CFC8BD",
"2+	c #AEA9AC",
"3+	c #E6E2E2",
"4+	c #BEB8B7",
"5+	c #85786F",
"6+	c #C7C0B6",
"7+	c #F5F6F6",
"8+	c #717372",
"9+	c #C0C2C1",
"0+	c #E2E2E2",
"a+	c #BFBABB",
"b+	c #7F7467",
"c+	c #C5B4AD",
"d+	c #6A6C6C",
"e+	c #5C5E5D",
"f+	c #939595",
"g+	c #C9C6C8",
"h+	c #AFA49C",
"i+	c #847A74",
"j+	c #C8B4AA",
"k+	c #434544",
"l+	c #5A5C5C",
"m+	c #8F9191",
"n+	c #CCCCCC",
"o+	c #C5C2C3",
"p+	c #B9A7A4",
"q+	c #414443",
"r+	c #636564",
"s+	c #959796",
"t+	c #C4C4C4",
"u+	c #CBC9C9",
"v+	c #E7E3E4",
"w+	c #ECEAEC",
"x+	c #E5E3E4",
"y+	c #E4E0E1",
"z+	c #E1DDDE",
"A+	c #E4E3E4",
"B+	c #E4E2E2",
"C+	c #E8E5E7",
"D+	c #DDDCDD",
"E+	c #DBD7D4",
"F+	c #DCD9D9",
"G+	c #F6F6F6",
"H+	c #424544",
"I+	c #9B9C9C",
"J+	c #CFD0D0",
"K+	c #DBDCDC",
"L+	c #DADADA",
"M+	c #D9DADA",
"N+	c #D9DAD9",
"O+	c #C4C0C2",
"P+	c #454847",
"Q+	c #646664",
"R+	c #81827F",
"S+	c #8A8B8B",
"T+	c #898A8A",
"U+	c #888A89",
"V+	c #888989",
"W+	c #969797",
"X+	c #D6D3D5",
"Y+	c #857D7A",
"Z+	c #87807B",
"`+	c #8B827C",
" @	c #686A6A",
".@	c #434645",
"+@	c #444645",
"@@	c #444746",
"#@	c #464948",
"$@	c #464847",
"%@	c #464848",
"&@	c #454746",
"*@	c #444646",
"=@	c #B8B9B9",
"-@	c #EEEFEF",
";@	c #868384",
">@	c #CBC1B5",
",@	c #D7D0C7",
"'@	c #ECEBEC",
")@	c #6E7170",
"!@	c #454747",
"~@	c #434545",
"{@	c #B2A89D",
"]@	c #D0CDCD",
"^@	c #9B9D9C",
"/@	c #898A8B",
"(@	c #868787",
"_@	c #6C6E6D",
":@	c #484B4A",
"<@	c #C4C1C1",
"[@	c #D9D9D9",
"}@	c #DBDBDB",
"|@	c #D2D3D3",
"1@	c #636665",
"2@	c #5F6161",
"3@	c #D3D0D0",
"4@	c #D8D5D2",
"5@	c #F0EEEE",
"6@	c #E2DFDF",
"7@	c #E3E1E0",
"8@	c #E3E1E1",
"9@	c #E5E4E4",
"0@	c #E2E1E1",
"a@	c #E5E3E3",
"b@	c #D3D1D0",
"c@	c #E4E1DF",
"d@	c #CDCDCC",
"e@	c #9C9D9C",
"f@	c #9D9186",
"g@	c #E4E1DE",
"h@	c #8A7D75",
"i@	c #D8D5D7",
"j@	c #989999",
"k@	c #606261",
"l@	c #AEA39B",
"m@	c #9C938A",
"n@	c #C9C5C6",
"o@	c #C6C6C6",
"p@	c #9A9B9B",
"q@	c #9F9996",
"r@	c #91857C",
"s@	c #E3E0E0",
"t@	c #7C7E7D",
"u@	c #F1F2F2",
"v@	c #8A8077",
"w@	c #EBEAEA",
"x@	c #D3D4D4",
"y@	c #818282",
"z@	c #EAE8E9",
"A@	c #D4D4D4",
"B@	c #838584",
"C@	c #E8E4E3",
"D@	c #818382",
"E@	c #D3CFD0",
"F@	c #C7C3C5",
"G@	c #BDB8B4",
"H@	c #EBE9E7",
"I@	c #D2CFCF",
"J@	c #D2CECD",
"K@	c #D6D3D2",
"L@	c #C8C3C2",
"M@	c #EBE9E9",
"N@	c #818383",
"O@	c #948F91",
"P@	c #9C9798",
"Q@	c #A19C9C",
"R@	c #DCDBDB",
"S@	c #E8E9E9",
"T@	c #E8E9E8",
"U@	c #E4E4E4",
"V@	c #C2BBBC",
"W@	c #C3AC9D",
"X@	c #EAE8E7",
"Y@	c #828483",
"Z@	c #938C8B",
"`@	c #96897D",
" #	c #ACA196",
".#	c #ACA39B",
"+#	c #C9C8C7",
"@#	c #AFB0AF",
"##	c #A2A3A3",
"$#	c #B1B2B2",
"%#	c #CBCAC9",
"&#	c #9C8C7D",
"*#	c #DFDEE1",
"=#	c #E6E4E4",
"-#	c #C5C6C5",
";#	c #767878",
">#	c #515453",
",#	c #545655",
"'#	c #808281",
")#	c #CCCDCD",
"!#	c #DFDDDD",
"~#	c #D1C8BF",
"{#	c #D6D0CB",
"]#	c #EBE9EA",
"^#	c #3A3E3D",
"/#	c #4A4B43",
"(#	c #E2DEE1",
"_#	c #C1C3C2",
":#	c #686B6A",
"<#	c #C8C9C9",
"[#	c #E6E5E6",
"}#	c #606262",
"|#	c #ABACAC",
"1#	c #D6D6D6",
"2#	c #C2BDBE",
"3#	c #D3D2D2",
"4#	c #B4B5B5",
"5#	c #717373",
"6#	c #414342",
"7#	c #707271",
"8#	c #D8D8D8",
"9#	c #C7C2C1",
"0#	c #CDC7CA",
"a#	c #D4D3D4",
"b#	c #757676",
"c#	c #B1B2B1",
"d#	c #A8A097",
"e#	c #D6CEC8",
"f#	c #B6B7B7",
"g#	c #7F8180",
"h#	c #3E403F",
"i#	c #4D504F",
"j#	c #AEAFAF",
"k#	c #B7B8B7",
"l#	c #787A7A",
"m#	c #A78B83",
"n#	c #C3C4C3",
"o#	c #7D7F7F",
"p#	c #A9ABAA",
"q#	c #858786",
"r#	c #606362",
"s#	c #595B5A",
"t#	c #5A5C5B",
"u#	c #CAB0A4",
"v#	c #C0A7A2",
"w#	c #F3F3F3",
"x#	c #D9D6D8",
"y#	c #7B7D7C",
"z#	c #BDBEBE",
"A#	c #E4E1E2",
"B#	c #C9C7C8",
"C#	c #C1C2C2",
"D#	c #BBBCBC",
"E#	c #BBBCBB",
"F#	c #C0C1C0",
"G#	c #C9C4C4",
"H#	c #C7C2C3",
"I#	c #C1B7B9",
"J#	c #E2DFE0",
"K#	c #F3F4F4",
"L#	c #F4F4F4",
"M#	c #F2F3F3",
"N#	c #EFF0F0",
"O#	c #BCAAA5",
"  . + @ # # # $ % & * * * * * * * * * * * * * * * * * * * * * * * * * * * * * * = - + @ % @ - ; ; > ",
", ' ) # ! $ # ) ~ { ] ^ / ( ( ( ( / ( ( ( ( ( ( ( ( ( ( / ( ( ( ( ( ( ( ( ( / _ : < + - - + ) + [ } ",
"| + % ) $ # $ # 1 2 3 4 5 4 6 7 7 7 4 7 6 7 8 8 8 7 5 5 7 4 7 6 7 4 5 7 9 5 0 a / b c d e - d @ + f ",
"g # + + # $ ) + h i j k l m n m m n m o m m m l p p k m m m n o n m m o o l k q r s t [ [ u t t @ v ",
"d . # # # % $ @ * w x l k l m l m m l m l l y z A A B C l l l l l m l m l l D E F s u e e u c t [ G ",
"H ' I @ ) $ # @ * i J m m n n n n n n n n m z K L M N O m m n n n n n n n m l q F P d [ [ d % @ + Q ",
"R [ $ # $ @ S T * w J m m n n n n n n m n z U V W X Y Z ` y l n n n n n n m l q F s e - d % t @ c  .",
"H u + ! ! ..+.! * i J m m n n n n n n m @.#.$.%.&.*.=.F -.;.m n n n n n n m l q >.s - d - t d ,.- > ",
"'.' % )...!.! $ * ~.J m m n n n n n y z {.].^./.(.H _.:.M <.[.C m n n n n m l q F s [ - ) t }.t u |.",
"R 1.S !.) % ) $ 2.i J m m n n n n m C 3.4.5.6.e (.H 7.8.9.0.a.b.k m m m m l k c.>.d.@ e d % e.t [ } ",
", ' ! # . # ) # * ~.J l m n n n n l C f.g.h.I e G i.# # j.k.l.b.D l l l l k m.n.F s 1.'.'.'.'.'.u f ",
"o.T p.q.q.} r.} * i J n m n n n n l C s.t.u.I v.v R [ e w.5.x.y.z.A.A.B.C.D.E.F.G.h.|.H.I.T J.J.q.K.",
"L.M.N.O.O.P.M.O.2.Q.R.l m n n n n l C <.S.T.+ I v [ 7.@ U.V.F W.X.W.W.W.W.W.X.Y.Z.`. +O..+P.M.M.M.++",
"@+#+$+, i.g %+'.* w J m l n n n n l C <.t.&+v.I Q [ 7.@ @ [ *+=+=+X =+X =+X =+-+;+'.>+t g ' ,+#+#+$+",
"+ I # I !.).! $ * ~.J m m n n n n m b.s.t.u.e # (.| 7.# . @ @ '+)+)+!+!+~+{+]+^+$ ! % /+(+).% # I + ",
"I I _++ + # # + * ~.J m m n n n n l C s.t.u.I # (.- 7.@ @ @ # # ! d # @ J..+,+S J.! e # % :+_+e e [ ",
"! $ <+/+I I e # * ~.J m m n n n n l C [+t.}+I e |+1+' # # @ # ! $ @ @ . 2+q.3++ S _+% + _+- $ $ e ! ",
"+ + $ S I e I % * ~.J m m n n n n l C s.t.X e 4+5+6+d d # % # ) # @ @ . q.> '.+ + % S c ).S % S $ + ",
"d # # e I e I I 7+w R.l m n n n n m C 8+9+0+a+(+b+c+[ # @ !.) # @ @ # [ T > @ ) + !.(+) + # + _+I d ",
"% I I + I S I e * ~.d+m m n n n n l C e+f+i g+h+i+j+[ + @ !.!.@ # # # @ S +.$+# + ! (+H.S $ $ $ I I ",
"$ I + # # # I # 7+w j m m n n n n n n k+l+m+n+o+> @ @ # ) p+@ @ $ @ @ @ H.M.$+) I # e # _+# + I # + ",
"# # # # $ _+I I * ] J m m n n n n n n l q+r+s+t+u+v+w+x+y+z+A+y+B+C+x+x+D+E+w+F+~ $ _+# S _++ e e # ",
"# # S c _+_+# _+G+i J m m n n n n n n n n H+n.I+J+K+L+M+M+M+N+M+M+L+M+M+M+M+L+K+O+2+_+I I _+I # + $ ",
"_+I _+_+$ # $ 2+G+Q.R.m m n n n m n n n m l P+Q+R+S+T+T+T+T+T+T+T+T+T+T+T+U+V+W+~.X+e # e _+_+e $ 2+",
"Y+Z+i+i+Z+Z+Z+`+* i  @k p l l l l l l l k l l C .@+@@@P+#@P+#@$@P+%@$@%@%@&@*@7 =@-@Q Q `+`+Z+Q ;@Y+",
">@c+'.R ,@R     '@w )@@@&@P+#@P+#@P+%@$@$@#@P+!@+@~@b.m l l l l l l l l l k D E r s g H | i.o.,.1+| ",
"c {@'.' . . [ + ]@n+^@U+U+T+T+T+T+T+T+T+T+T+T+T+/@(@_@:@l m m n n n m n n l k q >.d.e d . # I # e ' ",
"c _+# $ I I I e I <@[@L+M+M+M+M+M+M+M+M+M+M+L+L+}@|@W.1@.@n m n n n n n n m l 2@F s I $ I # e # _+!.",
"# v.I # (+).% I 4+$ 3@D+4@5@h.6@6@7@8@B+9@0@a@8@b@c@d@e@j .@l n n n n n n l l q >.s _+$ I e # e d + ",
"$ # v.e S _++ S I 4+I 2+f@g@+ _+(+v.+ + 4+4+I v.h@| i@k.j@q @@n n n n n n m k k@>.s e ,.,.[ # I I I ",
"I # e # # # % S $ _+I l@m@$+I >+{@4+I v._+!.)._+Z+g ' n@o@p@r+b.l n n n n m l c.>.s $ % J.% d # I I ",
"# # # # I + $ _+I S 4+q@m@g@+ 4+(+>+4+I + <+++/+r@>@' e s@S.t@q+l n n n n m l k@>.u@% $ _+2+I # I I ",
"I I # I + I # I _+_+I J.G #+I I 4+v.4+I v._+% 4+v@H #+v.w@x@y@H+l n n n n m l q >.s # v.I I _+# I + ",
"# I # _+(+% _+# $ _+# f m@g@I _+_+v.v.I 6+4+% _+v@1+1.v.z@A@B@H+l n n n n m k k@>.P # # I # e e # + ",
"# e I $ I $ $ J._+I e J.N.g@I I v.4+I v.I >+S + v | 1.I C@A@D@H+l n n n n m l 2@F s I e # e e e % I ",
"e [ e S _+$ I _+# e E@F@G@H@I@J@I@K@J@L@v.v.v.v.G >@4+/+M@A@N@H+k n n n n m l k@>.s e d e e . [ [ ) ",
"p.O@P@p.Q O@O@p.O@Q@R@=+S@S@S@=+S@T@-+U@V@% 4++ |+W@+ >+X@A@Y@H+l n n n n m k q >.s G P@f f P@p.Z@r.",
"`@ # # #M.m@.+P..#+#@#X.X.W.W.W.W.##W.$#%#v./+S v@o.' ,.z@x@Y@H+l n n n n m l k@>.s {@ #q. #q. # #&#",
">@*#@+1.'.1.#+%+=#-#;#>#C.A.A.A.C.z.,#'#)#!#+ (+Z+~#{#+ ]#A@D@H+^#/#n n n m l q >.s 3+1.1.#+$+*#(#).",
"| . % _+) % + $ * _#:#p k l l l k p n U <#[#v.+ `+~#. I &+k.D@H+l n n n n m l }#>.s >+% e v.e . @ Z@",
"'.. $ ! $ $ # ) * ~.J l l m m m m l y 6 |#1#2#v.(.,.e a+3#4#5#6#l n n n n m k q >.s >+,.[ d e - c v ",
"'.# I _+$ # ! ! * ~.J m m n n n n n y ;.7#].8#9#`+6+0#a#M b#[.C m n n n n m l q >.P [ + # e t d @  .",
"'.'.$ $ ! $ c ) 7+w d+m m n n n n n n m @.<.c#d@d#e#1#f#g#;.m n n n n n n m l q >.s d [ @ t - [ @ v ",
"{#'.% # ! <+!.$ * ~.J m m n n n n n n m h#i#5#j#W S@k#l#` C m n n n n n n m l 2@>.s v.R @ | @ [ e G ",
"- $ + + t m#..$ 2.n#J m m n n n n n n n m m ;.o#p#M q#O m m n n n n n n n m l r#>.P @ e + ) [ ) [ > ",
"; c ) ) # ! p+# * Q.x l k m l m l l m l l l n ;.s#t#B C l l l m m m m m l l p E F s [ @ t t c t + G ",
"u#v#% ) + @ ) # w#~.x l l n n m o n m o o m m l p k k m n m n o m n m o m m p E f#s - u - @ t % $ Z@",
"; + ).+ # @ c ) x#<#3 1@5 7 7 4 4 7 4 7 7 4 5 8 8 8 5 5 7 4 7 7 4 7 7 7 7 8 0 y#z#A#+ [ + [ + # + > ",
"  '.! + + # c }.~ B#C#D#E#D#D#D#D#D#D#D#D#D#D#D#D#D#D#D#D#D#D#D#D#D#D#D#D#E#E#F#G#H#c @ ,.d $ <+/+Z@",
",+' @ # # @ # ! $ I#J#K#K#w#w#L#K#w#w#K#K#K#w#L#K#K#w#K#M#K#M#K#w#w#K#K#K#w#L#N#/.+ c+@ !.@ _+e.O#Z@"};
